{
  "extensionsUsed": [
    "KHR_materials_specular",
    "KHR_materials_ior",
    "KHR_materials_unlit",
    "HYPAR_info",
    "HYPAR_representation_info"
  ],
  "accessors": [
    {
      "bufferView": 0,
      "componentType": 5126,
      "count": 398,
      "type": "VEC3",
      "max": [
        0.045,
        0.21,
        0.045
      ],
      "min": [
        -0.045,
        -0.0,
        -0.045
      ]
    },
    {
      "bufferView": 1,
      "componentType": 5126,
      "count": 398,
      "type": "VEC3",
      "max": [
        0.98768836,
        1.0,
        0.98768836
      ],
      "min": [
        -0.98768836,
        -1.0,
        -0.98768836
      ]
    },
    {
      "bufferView": 2,
      "componentType": 5123,
      "count": 816,
      "type": "SCALAR",
      "max": [
        397.0
      ],
      "min": [
        0.0
      ]
    },
    {
      "bufferView": 3,
      "componentType": 5126,
      "count": 398,
      "type": "VEC2",
      "max": [
        0.21,
        0.045
      ],
      "min": [
        -0.21,
        -0.045
      ]
    },
    {
      "bufferView": 4,
      "componentType": 5126,
      "count": 120,
      "type": "VEC3",
      "max": [
        0.045,
        1.901,
        0.045
      ],
      "min": [
        -0.045,
        0.1,
        -0.045
      ]
    },
    {
      "bufferView": 5,
      "componentType": 5126,
      "count": 120,
      "type": "VEC3",
      "max": [
        0.98768836,
        1.0,
        0.98768836
      ],
      "min": [
        -0.98768836,
        -1.0,
        -0.98768836
      ]
    },
    {
      "bufferView": 6,
      "componentType": 5123,
      "count": 228,
      "type": "SCALAR",
      "max": [
        119.0
      ],
      "min": [
        0.0
      ]
    },
    {
      "bufferView": 7,
      "componentType": 5126,
      "count": 120,
      "type": "VEC2",
      "max": [
        1.901,
        0.045
      ],
      "min": [
        -1.901,
        -0.045
      ]
    },
    {
      "bufferView": 8,
      "componentType": 5126,
      "count": 760,
      "type": "VEC3",
      "max": [
        0.045,
        0.045,
        0.209
      ],
      "min": [
        -0.045,
        -0.209,
        -0.045
      ]
    },
    {
      "bufferView": 9,
      "componentType": 5126,
      "count": 760,
      "type": "VEC3",
      "max": [
        0.98768836,
        1.0,
        1.0
      ],
      "min": [
        -0.98768836,
        -1.0,
        -1.0
      ]
    },
    {
      "bufferView": 10,
      "componentType": 5123,
      "count": 1524,
      "type": "SCALAR",
      "max": [
        759.0
      ],
      "min": [
        0.0
      ]
    },
    {
      "bufferView": 11,
      "componentType": 5126,
      "count": 760,
      "type": "VEC2",
      "max": [
        0.209,
        0.209
      ],
      "min": [
        -0.209,
        -0.045
      ]
    },
    {
      "bufferView": 12,
      "componentType": 5126,
      "count": 812,
      "type": "VEC3",
      "max": [
        0.045,
        0.045,
        0.15
      ],
      "min": [
        -0.045,
        -0.045,
        -0.15
      ]
    },
    {
      "bufferView": 13,
      "componentType": 5126,
      "count": 812,
      "type": "VEC3",
      "max": [
        0.98768836,
        0.98768836,
        1.0
      ],
      "min": [
        -0.98768836,
        -0.98768836,
        -1.0
      ]
    },
    {
      "bufferView": 14,
      "componentType": 5123,
      "count": 1683,
      "type": "SCALAR",
      "max": [
        811.0
      ],
      "min": [
        0.0
      ]
    },
    {
      "bufferView": 15,
      "componentType": 5126,
      "count": 812,
      "type": "VEC2",
      "max": [
        0.045,
        0.15
      ],
      "min": [
        -0.045,
        -0.15
      ]
    },
    {
      "bufferView": 16,
      "componentType": 5126,
      "count": 120,
      "type": "VEC3",
      "max": [
        0.035,
        2.045,
        2.0
      ],
      "min": [
        -0.035,
        1.975,
        0.179
      ]
    },
    {
      "bufferView": 17,
      "componentType": 5126,
      "count": 120,
      "type": "VEC3",
      "max": [
        0.98768836,
        0.98768836,
        1.0
      ],
      "min": [
        -0.98768836,
        -0.98768836,
        -1.0
      ]
    },
    {
      "bufferView": 18,
      "componentType": 5123,
      "count": 228,
      "type": "SCALAR",
      "max": [
        119.0
      ],
      "min": [
        0.0
      ]
    },
    {
      "bufferView": 19,
      "componentType": 5126,
      "count": 120,
      "type": "VEC2",
      "max": [
        1.9907287,
        2.045
      ],
      "min": [
        -1.9907287,
        0.179
      ]
    },
    {
      "bufferView": 20,
      "componentType": 5126,
      "count": 812,
      "type": "VEC3",
      "max": [
        0.045,
        0.035,
        0.15
      ],
      "min": [
        -0.045,
        -0.055,
        -0.15
      ]
    },
    {
      "bufferView": 21,
      "componentType": 5126,
      "count": 812,
      "type": "VEC3",
      "max": [
        0.98768836,
        0.98768836,
        1.0
      ],
      "min": [
        -0.98768836,
        -0.98768836,
        -1.0
      ]
    },
    {
      "bufferView": 22,
      "componentType": 5123,
      "count": 1683,
      "type": "SCALAR",
      "max": [
        811.0
      ],
      "min": [
        0.0
      ]
    },
    {
      "bufferView": 23,
      "componentType": 5126,
      "count": 812,
      "type": "VEC2",
      "max": [
        0.045,
        0.15
      ],
      "min": [
        -0.045,
        -0.15
      ]
    },
    {
      "bufferView": 24,
      "componentType": 5126,
      "count": 120,
      "type": "VEC3",
      "max": [
        0.045,
        2.045,
        2.901
      ],
      "min": [
        -0.045,
        1.955,
        2.08
      ]
    },
    {
      "bufferView": 25,
      "componentType": 5126,
      "count": 120,
      "type": "VEC3",
      "max": [
        0.98768836,
        0.98768836,
        1.0
      ],
      "min": [
        -0.98768836,
        -0.98768836,
        -1.0
      ]
    },
    {
      "bufferView": 26,
      "componentType": 5123,
      "count": 228,
      "type": "SCALAR",
      "max": [
        119.0
      ],
      "min": [
        0.0
      ]
    },
    {
      "bufferView": 27,
      "componentType": 5126,
      "count": 120,
      "type": "VEC2",
      "max": [
        1.9824163,
        2.901
      ],
      "min": [
        -1.9824163,
        1.955
      ]
    },
    {
      "bufferView": 28,
      "componentType": 5126,
      "count": 760,
      "type": "VEC3",
      "max": [
        0.045,
        0.209,
        0.045
      ],
      "min": [
        -0.045,
        -0.045,
        -0.209
      ]
    },
    {
      "bufferView": 29,
      "componentType": 5126,
      "count": 760,
      "type": "VEC3",
      "max": [
        0.98768836,
        1.0,
        1.0
      ],
      "min": [
        -0.98768836,
        -1.0,
        -1.0
      ]
    },
    {
      "bufferView": 30,
      "componentType": 5123,
      "count": 1524,
      "type": "SCALAR",
      "max": [
        759.0
      ],
      "min": [
        0.0
      ]
    },
    {
      "bufferView": 31,
      "componentType": 5126,
      "count": 760,
      "type": "VEC2",
      "max": [
        0.209,
        0.045
      ],
      "min": [
        -0.209,
        -0.209
      ]
    },
    {
      "bufferView": 32,
      "componentType": 5126,
      "count": 120,
      "type": "VEC3",
      "max": [
        0.045,
        3.9,
        3.045
      ],
      "min": [
        -0.045,
        2.099,
        2.955
      ]
    },
    {
      "bufferView": 33,
      "componentType": 5126,
      "count": 120,
      "type": "VEC3",
      "max": [
        0.98768836,
        1.0,
        0.98768836
      ],
      "min": [
        -0.98768836,
        -1.0,
        -0.98768836
      ]
    },
    {
      "bufferView": 34,
      "componentType": 5123,
      "count": 228,
      "type": "SCALAR",
      "max": [
        119.0
      ],
      "min": [
        0.0
      ]
    },
    {
      "bufferView": 35,
      "componentType": 5126,
      "count": 120,
      "type": "VEC2",
      "max": [
        3.9,
        3.045
      ],
      "min": [
        -3.9,
        0.46226385
      ]
    },
    {
      "bufferView": 36,
      "componentType": 5126,
      "count": 398,
      "type": "VEC3",
      "max": [
        0.045,
        1.7763568E-15,
        0.045
      ],
      "min": [
        -0.045,
        -0.21,
        -0.045
      ]
    },
    {
      "bufferView": 37,
      "componentType": 5126,
      "count": 398,
      "type": "VEC3",
      "max": [
        0.98768836,
        1.0,
        0.98768836
      ],
      "min": [
        -0.98768836,
        -1.0,
        -0.98768836
      ]
    },
    {
      "bufferView": 38,
      "componentType": 5123,
      "count": 816,
      "type": "SCALAR",
      "max": [
        397.0
      ],
      "min": [
        0.0
      ]
    },
    {
      "bufferView": 39,
      "componentType": 5126,
      "count": 398,
      "type": "VEC2",
      "max": [
        0.21,
        0.045
      ],
      "min": [
        -0.21,
        -0.045
      ]
    }
  ],
  "asset": {
    "generator": "hypar-gltf",
    "version": "2.0"
  },
  "buffers": [
    {
      "uri": "BuildLFittingTreeFromTree_0.bin",
      "byteLength": 159360
    }
  ],
  "bufferViews": [
    {
      "buffer": 0,
      "byteLength": 4776
    },
    {
      "buffer": 0,
      "byteOffset": 4776,
      "byteLength": 4776
    },
    {
      "buffer": 0,
      "byteOffset": 9552,
      "byteLength": 1632
    },
    {
      "buffer": 0,
      "byteOffset": 11184,
      "byteLength": 3184
    },
    {
      "buffer": 0,
      "byteOffset": 14368,
      "byteLength": 1440
    },
    {
      "buffer": 0,
      "byteOffset": 15808,
      "byteLength": 1440
    },
    {
      "buffer": 0,
      "byteOffset": 17248,
      "byteLength": 456
    },
    {
      "buffer": 0,
      "byteOffset": 17704,
      "byteLength": 960
    },
    {
      "buffer": 0,
      "byteOffset": 18664,
      "byteLength": 9120
    },
    {
      "buffer": 0,
      "byteOffset": 27784,
      "byteLength": 9120
    },
    {
      "buffer": 0,
      "byteOffset": 36904,
      "byteLength": 3048
    },
    {
      "buffer": 0,
      "byteOffset": 39952,
      "byteLength": 6080
    },
    {
      "buffer": 0,
      "byteOffset": 46032,
      "byteLength": 9744
    },
    {
      "buffer": 0,
      "byteOffset": 55776,
      "byteLength": 9744
    },
    {
      "buffer": 0,
      "byteOffset": 65520,
      "byteLength": 3366
    },
    {
      "buffer": 0,
      "byteOffset": 68888,
      "byteLength": 6496
    },
    {
      "buffer": 0,
      "byteOffset": 75384,
      "byteLength": 1440
    },
    {
      "buffer": 0,
      "byteOffset": 76824,
      "byteLength": 1440
    },
    {
      "buffer": 0,
      "byteOffset": 78264,
      "byteLength": 456
    },
    {
      "buffer": 0,
      "byteOffset": 78720,
      "byteLength": 960
    },
    {
      "buffer": 0,
      "byteOffset": 79680,
      "byteLength": 9744
    },
    {
      "buffer": 0,
      "byteOffset": 89424,
      "byteLength": 9744
    },
    {
      "buffer": 0,
      "byteOffset": 99168,
      "byteLength": 3366
    },
    {
      "buffer": 0,
      "byteOffset": 102536,
      "byteLength": 6496
    },
    {
      "buffer": 0,
      "byteOffset": 109032,
      "byteLength": 1440
    },
    {
      "buffer": 0,
      "byteOffset": 110472,
      "byteLength": 1440
    },
    {
      "buffer": 0,
      "byteOffset": 111912,
      "byteLength": 456
    },
    {
      "buffer": 0,
      "byteOffset": 112368,
      "byteLength": 960
    },
    {
      "buffer": 0,
      "byteOffset": 113328,
      "byteLength": 9120
    },
    {
      "buffer": 0,
      "byteOffset": 122448,
      "byteLength": 9120
    },
    {
      "buffer": 0,
      "byteOffset": 131568,
      "byteLength": 3048
    },
    {
      "buffer": 0,
      "byteOffset": 134616,
      "byteLength": 6080
    },
    {
      "buffer": 0,
      "byteOffset": 140696,
      "byteLength": 1440
    },
    {
      "buffer": 0,
      "byteOffset": 142136,
      "byteLength": 1440
    },
    {
      "buffer": 0,
      "byteOffset": 143576,
      "byteLength": 456
    },
    {
      "buffer": 0,
      "byteOffset": 144032,
      "byteLength": 960
    },
    {
      "buffer": 0,
      "byteOffset": 144992,
      "byteLength": 4776
    },
    {
      "buffer": 0,
      "byteOffset": 149768,
      "byteLength": 4776
    },
    {
      "buffer": 0,
      "byteOffset": 154544,
      "byteLength": 1632
    },
    {
      "buffer": 0,
      "byteOffset": 156176,
      "byteLength": 3184
    }
  ],
  "materials": [
    {
      "name": "7298d643-9049-4a2b-960d-ae775b50fd80",
      "extensions": {
        "KHR_materials_specular": {
          "specularFactor": 0.0,
          "specularColorFactor": [
            1.0,
            1.0,
            1.0
          ]
        },
        "KHR_materials_ior": {
          "ior": 1000
        }
      },
      "pbrMetallicRoughness": {
        "baseColorFactor": [
          0.0,
          0.0,
          0.0,
          1.0
        ],
        "metallicFactor": 0.0
      }
    },
    {
      "name": "e7aa235b-49e9-42d0-b5fb-884a54e90d07",
      "extensions": {
        "KHR_materials_specular": {
          "specularFactor": 1.0,
          "specularColorFactor": [
            1.0,
            1.0,
            1.0
          ]
        },
        "KHR_materials_ior": {
          "ior": 1000
        }
      },
      "pbrMetallicRoughness": {
        "baseColorFactor": [
          0.0,
          0.13286832,
          0.13286832,
          0.4
        ],
        "metallicFactor": 0.0,
        "roughnessFactor": 0.0
      },
      "alphaMode": "BLEND"
    }
  ],
  "meshes": [
    {
      "primitives": [
        {
          "attributes": {
            "POSITION": 0,
            "NORMAL": 1,
            "TEXCOORD_0": 3
          },
          "indices": 2,
          "material": 0
        }
      ],
      "name": "5b5d6373-a5bc-4759-bad7-bb66126bcbcf_mesh"
    },
    {
      "primitives": [
        {
          "attributes": {
            "POSITION": 4,
            "NORMAL": 5,
            "TEXCOORD_0": 7
          },
          "indices": 6,
          "material": 1
        }
      ],
      "name": "37e48d12-85e0-4c69-84fe-5710be2d67a1_mesh"
    },
    {
      "primitives": [
        {
          "attributes": {
            "POSITION": 8,
            "NORMAL": 9,
            "TEXCOORD_0": 11
          },
          "indices": 10,
          "material": 0
        }
      ],
      "name": "e8afdacb-8e2d-438b-8b4d-2741407872a9_mesh"
    },
    {
      "primitives": [
        {
          "attributes": {
            "POSITION": 12,
            "NORMAL": 13,
            "TEXCOORD_0": 15
          },
          "indices": 14,
          "material": 0
        }
      ],
      "name": "52f07adc-5001-4158-928f-89e0a69a44e2_mesh"
    },
    {
      "primitives": [
        {
          "attributes": {
            "POSITION": 16,
            "NORMAL": 17,
            "TEXCOORD_0": 19
          },
          "indices": 18,
          "material": 1
        }
      ],
      "name": "5a2093af-b056-4204-807f-ed7277ff0372_mesh"
    },
    {
      "primitives": [
        {
          "attributes": {
            "POSITION": 20,
            "NORMAL": 21,
            "TEXCOORD_0": 23
          },
          "indices": 22,
          "material": 0
        }
      ],
      "name": "2e411863-7ca5-4c75-b784-e2d92a35096c_mesh"
    },
    {
      "primitives": [
        {
          "attributes": {
            "POSITION": 24,
            "NORMAL": 25,
            "TEXCOORD_0": 27
          },
          "indices": 26,
          "material": 1
        }
      ],
      "name": "60c7209c-b5e9-4e09-8a38-d4c40c45a9e2_mesh"
    },
    {
      "primitives": [
        {
          "attributes": {
            "POSITION": 28,
            "NORMAL": 29,
            "TEXCOORD_0": 31
          },
          "indices": 30,
          "material": 0
        }
      ],
      "name": "338a6d4d-254c-4b68-b395-89ea13f0906f_mesh"
    },
    {
      "primitives": [
        {
          "attributes": {
            "POSITION": 32,
            "NORMAL": 33,
            "TEXCOORD_0": 35
          },
          "indices": 34,
          "material": 1
        }
      ],
      "name": "4b557881-3e9e-4449-88a2-fdfd96961ffb_mesh"
    },
    {
      "primitives": [
        {
          "attributes": {
            "POSITION": 36,
            "NORMAL": 37,
            "TEXCOORD_0": 39
          },
          "indices": 38,
          "material": 0
        }
      ],
      "name": "76d3d915-0c20-478e-a76b-3582758b6285_mesh"
    }
  ],
  "nodes": [
    {
      "children": [
        1,
        3,
        5,
        7,
        9,
        11,
        13,
        15,
        17,
        19
      ],
      "matrix": [
        1.0,
        0.0,
        0.0,
        0.0,
        0.0,
        6.123234E-17,
        -1.0,
        0.0,
        0.0,
        1.0,
        6.123234E-17,
        0.0,
        0.0,
        0.0,
        0.0,
        1.0
      ]
    },
    {
      "children": [
        2
      ],
      "extensions": {
        "HYPAR_info": {
          "id": "5b5d6373-a5bc-4759-bad7-bb66126bcbcf"
        }
      }
    },
    {
      "mesh": 0
    },
    {
      "children": [
        4
      ],
      "extensions": {
        "HYPAR_info": {
          "id": "37e48d12-85e0-4c69-84fe-5710be2d67a1"
        }
      }
    },
    {
      "mesh": 1
    },
    {
      "children": [
        6
      ],
      "matrix": [
        1.0,
        0.0,
        0.0,
        0.0,
        0.0,
        1.0,
        0.0,
        0.0,
        0.0,
        0.0,
        1.0,
        0.0,
        0.0,
        2.0,
        0.0,
        1.0
      ],
      "extensions": {
        "HYPAR_info": {
          "id": "e8afdacb-8e2d-438b-8b4d-2741407872a9"
        }
      }
    },
    {
      "mesh": 2
    },
    {
      "children": [
        8
      ],
      "matrix": [
        1.0,
        0.0,
        0.0,
        0.0,
        0.0,
        1.0,
        0.0,
        0.0,
        0.0,
        0.0,
        1.0,
        0.0,
        0.0,
        2.0,
        0.139,
        1.0
      ],
      "extensions": {
        "HYPAR_info": {
          "id": "52f07adc-5001-4158-928f-89e0a69a44e2"
        }
      }
    },
    {
      "mesh": 3
    },
    {
      "children": [
        10
      ],
      "extensions": {
        "HYPAR_info": {
          "id": "5a2093af-b056-4204-807f-ed7277ff0372"
        }
      }
    },
    {
      "mesh": 4
    },
    {
      "children": [
        12
      ],
      "matrix": [
        1.0,
        0.0,
        0.0,
        0.0,
        0.0,
        1.0,
        0.0,
        0.0,
        0.0,
        0.0,
        1.0,
        0.0,
        0.0,
        2.01,
        2.04,
        1.0
      ],
      "extensions": {
        "HYPAR_info": {
          "id": "2e411863-7ca5-4c75-b784-e2d92a35096c"
        }
      }
    },
    {
      "mesh": 5
    },
    {
      "children": [
        14
      ],
      "extensions": {
        "HYPAR_info": {
          "id": "60c7209c-b5e9-4e09-8a38-d4c40c45a9e2"
        }
      }
    },
    {
      "mesh": 6
    },
    {
      "children": [
        16
      ],
      "matrix": [
        1.0,
        0.0,
        0.0,
        0.0,
        0.0,
        1.0,
        0.0,
        0.0,
        0.0,
        0.0,
        1.0,
        0.0,
        0.0,
        2.0,
        3.0,
        1.0
      ],
      "extensions": {
        "HYPAR_info": {
          "id": "338a6d4d-254c-4b68-b395-89ea13f0906f"
        }
      }
    },
    {
      "mesh": 7
    },
    {
      "children": [
        18
      ],
      "extensions": {
        "HYPAR_info": {
          "id": "4b557881-3e9e-4449-88a2-fdfd96961ffb"
        }
      }
    },
    {
      "mesh": 8
    },
    {
      "children": [
        20
      ],
      "matrix": [
        1.0,
        0.0,
        0.0,
        0.0,
        0.0,
        1.0,
        0.0,
        0.0,
        0.0,
        0.0,
        1.0,
        0.0,
        0.0,
        4.0,
        3.0,
        1.0
      ],
      "extensions": {
        "HYPAR_info": {
          "id": "76d3d915-0c20-478e-a76b-3582758b6285"
        }
      }
    },
    {
      "mesh": 9
    }
  ],
  "scene": 0,
  "scenes": [
    {
      "nodes": [
        0
      ]
    }
  ]
}