{
  "extensionsUsed": [
    "KHR_materials_specular",
    "KHR_materials_ior",
    "KHR_materials_unlit",
    "HYPAR_info",
    "HYPAR_representation_info"
  ],
  "accessors": [
    {
      "bufferView": 0,
      "componentType": 5126,
      "count": 398,
      "type": "VEC3",
      "max": [
        0.23334524,
        0.23334524,
        0.025
      ],
      "min": [
        -0.01767767,
        -0.01767767,
        -0.025
      ]
    },
    {
      "bufferView": 1,
      "componentType": 5126,
      "count": 398,
      "type": "VEC3",
      "max": [
        0.70710677,
        0.70710677,
        0.98768836
      ],
      "min": [
        -0.70710677,
        -0.70710677,
        -0.98768836
      ]
    },
    {
      "bufferView": 2,
      "componentType": 5123,
      "count": 816,
      "type": "SCALAR",
      "max": [
        397.0
      ],
      "min": [
        0.0
      ]
    },
    {
      "bufferView": 3,
      "componentType": 5126,
      "count": 398,
      "type": "VEC2",
      "max": [
        0.31,
        0.025
      ],
      "min": [
        -0.31,
        -0.025
      ]
    },
    {
      "bufferView": 4,
      "componentType": 5126,
      "count": 120,
      "type": "VEC3",
      "max": [
        2.8196878,
        2.8196878,
        0.025
      ],
      "min": [
        0.12374368,
        0.12374368,
        -0.025
      ]
    },
    {
      "bufferView": 5,
      "componentType": 5126,
      "count": 120,
      "type": "VEC3",
      "max": [
        0.70710677,
        0.70710677,
        0.98768836
      ],
      "min": [
        -0.70710677,
        -0.70710677,
        -0.98768836
      ]
    },
    {
      "bufferView": 6,
      "componentType": 5123,
      "count": 228,
      "type": "SCALAR",
      "max": [
        119.0
      ],
      "min": [
        0.0
      ]
    },
    {
      "bufferView": 7,
      "componentType": 5126,
      "count": 120,
      "type": "VEC2",
      "max": [
        3.9626408,
        0.025
      ],
      "min": [
        -3.9626408,
        -0.025
      ]
    },
    {
      "bufferView": 8,
      "componentType": 5126,
      "count": 812,
      "type": "VEC3",
      "max": [
        0.12020815,
        0.12020815,
        0.025
      ],
      "min": [
        -0.12020815,
        -0.12020815,
        -0.055
      ]
    },
    {
      "bufferView": 9,
      "componentType": 5126,
      "count": 812,
      "type": "VEC3",
      "max": [
        0.70710677,
        0.70710677,
        0.98768836
      ],
      "min": [
        -0.70710677,
        -0.70710677,
        -0.98768836
      ]
    },
    {
      "bufferView": 10,
      "componentType": 5123,
      "count": 1686,
      "type": "SCALAR",
      "max": [
        811.0
      ],
      "min": [
        0.0
      ]
    },
    {
      "bufferView": 11,
      "componentType": 5126,
      "count": 812,
      "type": "VEC2",
      "max": [
        0.15,
        0.025
      ],
      "min": [
        -0.15,
        -0.055
      ]
    },
    {
      "bufferView": 12,
      "componentType": 5126,
      "count": 398,
      "type": "VEC3",
      "max": [
        0.02828427,
        0.02828427,
        0.04
      ],
      "min": [
        -0.23334524,
        -0.23334524,
        -0.04
      ]
    },
    {
      "bufferView": 13,
      "componentType": 5126,
      "count": 398,
      "type": "VEC3",
      "max": [
        0.70710677,
        0.70710677,
        0.98768836
      ],
      "min": [
        -0.70710677,
        -0.70710677,
        -0.98768836
      ]
    },
    {
      "bufferView": 14,
      "componentType": 5123,
      "count": 816,
      "type": "SCALAR",
      "max": [
        397.0
      ],
      "min": [
        0.0
      ]
    },
    {
      "bufferView": 15,
      "componentType": 5126,
      "count": 398,
      "type": "VEC2",
      "max": [
        0.31,
        0.04
      ],
      "min": [
        -0.31,
        -0.04
      ]
    }
  ],
  "asset": {
    "generator": "hypar-gltf",
    "version": "2.0"
  },
  "buffers": [
    {
      "uri": "HorizontalFittingTreeWithOneReducer_0.bin",
      "byteLength": 62388
    }
  ],
  "bufferViews": [
    {
      "buffer": 0,
      "byteLength": 4776
    },
    {
      "buffer": 0,
      "byteOffset": 4776,
      "byteLength": 4776
    },
    {
      "buffer": 0,
      "byteOffset": 9552,
      "byteLength": 1632
    },
    {
      "buffer": 0,
      "byteOffset": 11184,
      "byteLength": 3184
    },
    {
      "buffer": 0,
      "byteOffset": 14368,
      "byteLength": 1440
    },
    {
      "buffer": 0,
      "byteOffset": 15808,
      "byteLength": 1440
    },
    {
      "buffer": 0,
      "byteOffset": 17248,
      "byteLength": 456
    },
    {
      "buffer": 0,
      "byteOffset": 17704,
      "byteLength": 960
    },
    {
      "buffer": 0,
      "byteOffset": 18664,
      "byteLength": 9744
    },
    {
      "buffer": 0,
      "byteOffset": 28408,
      "byteLength": 9744
    },
    {
      "buffer": 0,
      "byteOffset": 38152,
      "byteLength": 3372
    },
    {
      "buffer": 0,
      "byteOffset": 41524,
      "byteLength": 6496
    },
    {
      "buffer": 0,
      "byteOffset": 48020,
      "byteLength": 4776
    },
    {
      "buffer": 0,
      "byteOffset": 52796,
      "byteLength": 4776
    },
    {
      "buffer": 0,
      "byteOffset": 57572,
      "byteLength": 1632
    },
    {
      "buffer": 0,
      "byteOffset": 59204,
      "byteLength": 3184
    }
  ],
  "materials": [
    {
      "name": "31c8c2b1-d61c-ac46-8666-d651f50f0313",
      "extensions": {
        "KHR_materials_unlit": {}
      },
      "pbrMetallicRoughness": {
        "baseColorFactor": [
          1.0,
          0.0,
          0.0,
          0.3
        ],
        "metallicFactor": 0.0,
        "roughnessFactor": 0.0
      },
      "alphaMode": "BLEND"
    },
    {
      "name": "e7aa235b-49e9-42d0-b5fb-884a54e90d07",
      "extensions": {
        "KHR_materials_specular": {
          "specularFactor": 1.0,
          "specularColorFactor": [
            1.0,
            1.0,
            1.0
          ]
        },
        "KHR_materials_ior": {
          "ior": 1000
        }
      },
      "pbrMetallicRoughness": {
        "baseColorFactor": [
          0.0,
          0.13286832,
          0.13286832,
          0.4
        ],
        "metallicFactor": 0.0,
        "roughnessFactor": 0.0
      },
      "alphaMode": "BLEND"
    },
    {
      "name": "7298d643-9049-4a2b-960d-ae775b50fd80",
      "extensions": {
        "KHR_materials_specular": {
          "specularFactor": 0.0,
          "specularColorFactor": [
            1.0,
            1.0,
            1.0
          ]
        },
        "KHR_materials_ior": {
          "ior": 1000
        }
      },
      "pbrMetallicRoughness": {
        "baseColorFactor": [
          0.0,
          0.0,
          0.0,
          1.0
        ],
        "metallicFactor": 0.0
      }
    }
  ],
  "meshes": [
    {
      "primitives": [
        {
          "attributes": {
            "POSITION": 0,
            "NORMAL": 1,
            "TEXCOORD_0": 3
          },
          "indices": 2,
          "material": 0
        }
      ],
      "name": "3153936f-5bed-447a-984f-1ffb5623848c_mesh"
    },
    {
      "primitives": [
        {
          "attributes": {
            "POSITION": 4,
            "NORMAL": 5,
            "TEXCOORD_0": 7
          },
          "indices": 6,
          "material": 1
        }
      ],
      "name": "77fde7d7-f431-4b9b-9214-53cd03ad5a18_mesh"
    },
    {
      "primitives": [
        {
          "attributes": {
            "POSITION": 8,
            "NORMAL": 9,
            "TEXCOORD_0": 11
          },
          "indices": 10,
          "material": 2
        }
      ],
      "name": "052fcb53-1692-4a66-8c25-2f7396cbe7a5_mesh"
    },
    {
      "primitives": [
        {
          "attributes": {
            "POSITION": 12,
            "NORMAL": 13,
            "TEXCOORD_0": 15
          },
          "indices": 14,
          "material": 0
        }
      ],
      "name": "534f0cdf-d871-4912-a478-5a472a5f2af3_mesh"
    }
  ],
  "nodes": [
    {
      "children": [
        1,
        3,
        5,
        7
      ],
      "matrix": [
        1.0,
        0.0,
        0.0,
        0.0,
        0.0,
        6.123234E-17,
        -1.0,
        0.0,
        0.0,
        1.0,
        6.123234E-17,
        0.0,
        0.0,
        0.0,
        0.0,
        1.0
      ]
    },
    {
      "children": [
        2
      ],
      "extensions": {
        "HYPAR_info": {
          "id": "3153936f-5bed-447a-984f-1ffb5623848c"
        }
      }
    },
    {
      "mesh": 0
    },
    {
      "children": [
        4
      ],
      "extensions": {
        "HYPAR_info": {
          "id": "77fde7d7-f431-4b9b-9214-53cd03ad5a18"
        }
      }
    },
    {
      "mesh": 1
    },
    {
      "children": [
        6
      ],
      "matrix": [
        1.0,
        0.0,
        0.0,
        0.0,
        0.0,
        1.0,
        0.0,
        0.0,
        0.0,
        0.0,
        1.0,
        0.0,
        2.8302944,
        2.8302944,
        0.0,
        1.0
      ],
      "extensions": {
        "HYPAR_info": {
          "id": "052fcb53-1692-4a66-8c25-2f7396cbe7a5"
        }
      }
    },
    {
      "mesh": 2
    },
    {
      "children": [
        8
      ],
      "matrix": [
        1.0,
        0.0,
        0.0,
        0.0,
        0.0,
        1.0,
        0.0,
        0.0,
        0.0,
        0.0,
        1.0,
        0.0,
        3.0,
        3.0,
        -0.015,
        1.0
      ],
      "extensions": {
        "HYPAR_info": {
          "id": "534f0cdf-d871-4912-a478-5a472a5f2af3"
        }
      }
    },
    {
      "mesh": 3
    }
  ],
  "scene": 0,
  "scenes": [
    {
      "nodes": [
        0
      ]
    }
  ]
}