{
  "extensionsUsed": [
    "KHR_materials_specular",
    "KHR_materials_ior",
    "KHR_materials_unlit",
    "HYPAR_info"
  ],
  "accessors": [
    {
      "bufferView": 0,
      "componentType": 5126,
      "count": 398,
      "type": "VEC3",
      "max": [
        0.075,
        0.31,
        0.075
      ],
      "min": [
        -0.075,
        -0.0,
        -0.075
      ]
    },
    {
      "bufferView": 1,
      "componentType": 5126,
      "count": 398,
      "type": "VEC3",
      "max": [
        0.98768836,
        1.0,
        0.98768836
      ],
      "min": [
        -0.98768836,
        -1.0,
        -0.98768836
      ]
    },
    {
      "bufferView": 2,
      "componentType": 5123,
      "count": 816,
      "type": "SCALAR",
      "max": [
        397.0
      ],
      "min": [
        0.0
      ]
    },
    {
      "bufferView": 3,
      "componentType": 5126,
      "count": 398,
      "type": "VEC2",
      "max": [
        0.31,
        0.075
      ],
      "min": [
        -0.31,
        -0.075
      ]
    },
    {
      "bufferView": 4,
      "componentType": 5126,
      "count": 812,
      "type": "VEC3",
      "max": [
        0.075,
        0.15,
        0.075
      ],
      "min": [
        -0.075,
        -0.15,
        -0.075
      ]
    },
    {
      "bufferView": 5,
      "componentType": 5126,
      "count": 812,
      "type": "VEC3",
      "max": [
        0.98768836,
        1.0,
        0.98768836
      ],
      "min": [
        -0.98768836,
        -1.0,
        -0.98768836
      ]
    },
    {
      "bufferView": 6,
      "componentType": 5123,
      "count": 1683,
      "type": "SCALAR",
      "max": [
        811.0
      ],
      "min": [
        0.0
      ]
    },
    {
      "bufferView": 7,
      "componentType": 5126,
      "count": 812,
      "type": "VEC2",
      "max": [
        0.15,
        0.075
      ],
      "min": [
        -0.15,
        -0.075
      ]
    },
    {
      "bufferView": 8,
      "componentType": 5126,
      "count": 120,
      "type": "VEC3",
      "max": [
        0.045,
        1.28,
        0.075
      ],
      "min": [
        -0.045,
        0.28,
        -0.015
      ]
    },
    {
      "bufferView": 9,
      "componentType": 5126,
      "count": 120,
      "type": "VEC3",
      "max": [
        0.98768836,
        1.0,
        0.98768836
      ],
      "min": [
        -0.98768836,
        -1.0,
        -0.98768836
      ]
    },
    {
      "bufferView": 10,
      "componentType": 5123,
      "count": 228,
      "type": "SCALAR",
      "max": [
        119.0
      ],
      "min": [
        0.0
      ]
    },
    {
      "bufferView": 11,
      "componentType": 5126,
      "count": 120,
      "type": "VEC2",
      "max": [
        1.28,
        0.075
      ],
      "min": [
        -1.28,
        -0.015
      ]
    },
    {
      "bufferView": 12,
      "componentType": 5126,
      "count": 812,
      "type": "VEC3",
      "max": [
        0.05,
        0.15,
        0.045
      ],
      "min": [
        -0.05,
        -0.15,
        -0.055
      ]
    },
    {
      "bufferView": 13,
      "componentType": 5126,
      "count": 812,
      "type": "VEC3",
      "max": [
        0.98768836,
        1.0,
        0.98768836
      ],
      "min": [
        -0.98768836,
        -1.0,
        -0.98768836
      ]
    },
    {
      "bufferView": 14,
      "componentType": 5123,
      "count": 1683,
      "type": "SCALAR",
      "max": [
        811.0
      ],
      "min": [
        0.0
      ]
    },
    {
      "bufferView": 15,
      "componentType": 5126,
      "count": 812,
      "type": "VEC2",
      "max": [
        0.15,
        0.045
      ],
      "min": [
        -0.15,
        -0.055
      ]
    },
    {
      "bufferView": 16,
      "componentType": 5126,
      "count": 120,
      "type": "VEC3",
      "max": [
        0.05,
        1.72,
        0.075
      ],
      "min": [
        -0.05,
        1.36,
        -0.025
      ]
    },
    {
      "bufferView": 17,
      "componentType": 5126,
      "count": 120,
      "type": "VEC3",
      "max": [
        0.98768836,
        1.0,
        0.98768836
      ],
      "min": [
        -0.98768836,
        -1.0,
        -0.98768836
      ]
    },
    {
      "bufferView": 18,
      "componentType": 5123,
      "count": 228,
      "type": "SCALAR",
      "max": [
        119.0
      ],
      "min": [
        0.0
      ]
    },
    {
      "bufferView": 19,
      "componentType": 5126,
      "count": 120,
      "type": "VEC2",
      "max": [
        1.72,
        0.075
      ],
      "min": [
        -1.72,
        -0.025
      ]
    },
    {
      "bufferView": 20,
      "componentType": 5126,
      "count": 680,
      "type": "VEC3",
      "max": [
        0.05,
        0.15,
        0.05
      ],
      "min": [
        -0.05,
        -0.15,
        -0.05
      ]
    },
    {
      "bufferView": 21,
      "componentType": 5126,
      "count": 680,
      "type": "VEC3",
      "max": [
        0.98768836,
        1.0,
        0.98768836
      ],
      "min": [
        -0.98768836,
        -1.0,
        -0.98768836
      ]
    },
    {
      "bufferView": 22,
      "componentType": 5123,
      "count": 1404,
      "type": "SCALAR",
      "max": [
        679.0
      ],
      "min": [
        0.0
      ]
    },
    {
      "bufferView": 23,
      "componentType": 5126,
      "count": 680,
      "type": "VEC2",
      "max": [
        0.15,
        0.05
      ],
      "min": [
        -0.15,
        -0.05
      ]
    },
    {
      "bufferView": 24,
      "componentType": 5126,
      "count": 120,
      "type": "VEC3",
      "max": [
        0.05,
        2.8,
        0.075
      ],
      "min": [
        -0.05,
        1.8,
        -0.025
      ]
    },
    {
      "bufferView": 25,
      "componentType": 5126,
      "count": 120,
      "type": "VEC3",
      "max": [
        0.98768836,
        1.0,
        0.98768836
      ],
      "min": [
        -0.98768836,
        -1.0,
        -0.98768836
      ]
    },
    {
      "bufferView": 26,
      "componentType": 5123,
      "count": 228,
      "type": "SCALAR",
      "max": [
        119.0
      ],
      "min": [
        0.0
      ]
    },
    {
      "bufferView": 27,
      "componentType": 5126,
      "count": 120,
      "type": "VEC2",
      "max": [
        2.8,
        0.075
      ],
      "min": [
        -2.8,
        -0.025
      ]
    },
    {
      "bufferView": 28,
      "componentType": 5126,
      "count": 398,
      "type": "VEC3",
      "max": [
        0.05,
        1.7763568E-15,
        0.05
      ],
      "min": [
        -0.05,
        -0.31,
        -0.05
      ]
    },
    {
      "bufferView": 29,
      "componentType": 5126,
      "count": 398,
      "type": "VEC3",
      "max": [
        0.98768836,
        1.0,
        0.98768836
      ],
      "min": [
        -0.98768836,
        -1.0,
        -0.98768836
      ]
    },
    {
      "bufferView": 30,
      "componentType": 5123,
      "count": 816,
      "type": "SCALAR",
      "max": [
        397.0
      ],
      "min": [
        0.0
      ]
    },
    {
      "bufferView": 31,
      "componentType": 5126,
      "count": 398,
      "type": "VEC2",
      "max": [
        0.31,
        0.05
      ],
      "min": [
        -0.31,
        -0.05
      ]
    }
  ],
  "asset": {
    "generator": "hypar-gltf",
    "version": "2.0"
  },
  "buffers": [
    {
      "uri": "HorizontalFittingTreeSplitTwiceAndResizePipeParts_first_0.bin",
      "byteLength": 124896
    }
  ],
  "bufferViews": [
    {
      "buffer": 0,
      "byteLength": 4776
    },
    {
      "buffer": 0,
      "byteOffset": 4776,
      "byteLength": 4776
    },
    {
      "buffer": 0,
      "byteOffset": 9552,
      "byteLength": 1632
    },
    {
      "buffer": 0,
      "byteOffset": 11184,
      "byteLength": 3184
    },
    {
      "buffer": 0,
      "byteOffset": 14368,
      "byteLength": 9744
    },
    {
      "buffer": 0,
      "byteOffset": 24112,
      "byteLength": 9744
    },
    {
      "buffer": 0,
      "byteOffset": 33856,
      "byteLength": 3366
    },
    {
      "buffer": 0,
      "byteOffset": 37224,
      "byteLength": 6496
    },
    {
      "buffer": 0,
      "byteOffset": 43720,
      "byteLength": 1440
    },
    {
      "buffer": 0,
      "byteOffset": 45160,
      "byteLength": 1440
    },
    {
      "buffer": 0,
      "byteOffset": 46600,
      "byteLength": 456
    },
    {
      "buffer": 0,
      "byteOffset": 47056,
      "byteLength": 960
    },
    {
      "buffer": 0,
      "byteOffset": 48016,
      "byteLength": 9744
    },
    {
      "buffer": 0,
      "byteOffset": 57760,
      "byteLength": 9744
    },
    {
      "buffer": 0,
      "byteOffset": 67504,
      "byteLength": 3366
    },
    {
      "buffer": 0,
      "byteOffset": 70872,
      "byteLength": 6496
    },
    {
      "buffer": 0,
      "byteOffset": 77368,
      "byteLength": 1440
    },
    {
      "buffer": 0,
      "byteOffset": 78808,
      "byteLength": 1440
    },
    {
      "buffer": 0,
      "byteOffset": 80248,
      "byteLength": 456
    },
    {
      "buffer": 0,
      "byteOffset": 80704,
      "byteLength": 960
    },
    {
      "buffer": 0,
      "byteOffset": 81664,
      "byteLength": 8160
    },
    {
      "buffer": 0,
      "byteOffset": 89824,
      "byteLength": 8160
    },
    {
      "buffer": 0,
      "byteOffset": 97984,
      "byteLength": 2808
    },
    {
      "buffer": 0,
      "byteOffset": 100792,
      "byteLength": 5440
    },
    {
      "buffer": 0,
      "byteOffset": 106232,
      "byteLength": 1440
    },
    {
      "buffer": 0,
      "byteOffset": 107672,
      "byteLength": 1440
    },
    {
      "buffer": 0,
      "byteOffset": 109112,
      "byteLength": 456
    },
    {
      "buffer": 0,
      "byteOffset": 109568,
      "byteLength": 960
    },
    {
      "buffer": 0,
      "byteOffset": 110528,
      "byteLength": 4776
    },
    {
      "buffer": 0,
      "byteOffset": 115304,
      "byteLength": 4776
    },
    {
      "buffer": 0,
      "byteOffset": 120080,
      "byteLength": 1632
    },
    {
      "buffer": 0,
      "byteOffset": 121712,
      "byteLength": 3184
    }
  ],
  "materials": [
    {
      "name": "31c8c2b1-d61c-ac46-8666-d651f50f0313",
      "extensions": {
        "KHR_materials_unlit": {}
      },
      "pbrMetallicRoughness": {
        "baseColorFactor": [
          1.0,
          0.0,
          0.0,
          0.3
        ],
        "metallicFactor": 0.0,
        "roughnessFactor": 0.0
      },
      "alphaMode": "BLEND"
    },
    {
      "name": "7298d643-9049-4a2b-960d-ae775b50fd80",
      "extensions": {
        "KHR_materials_specular": {
          "specularFactor": 0.0,
          "specularColorFactor": [
            1.0,
            1.0,
            1.0
          ]
        },
        "KHR_materials_ior": {
          "ior": 1000
        }
      },
      "pbrMetallicRoughness": {
        "baseColorFactor": [
          0.0,
          0.0,
          0.0,
          1.0
        ],
        "metallicFactor": 0.0
      }
    },
    {
      "name": "ac4653cf-2215-4377-887c-57383fd4bb4b",
      "extensions": {
        "KHR_materials_specular": {
          "specularFactor": 1.0,
          "specularColorFactor": [
            1.0,
            1.0,
            1.0
          ]
        },
        "KHR_materials_ior": {
          "ior": 1000
        }
      },
      "pbrMetallicRoughness": {
        "baseColorFactor": [
          0.0,
          0.13286832,
          0.13286832,
          0.4
        ],
        "metallicFactor": 0.0,
        "roughnessFactor": 0.0
      },
      "alphaMode": "BLEND"
    }
  ],
  "meshes": [
    {
      "primitives": [
        {
          "attributes": {
            "NORMAL": 1,
            "POSITION": 0,
            "TEXCOORD_0": 3
          },
          "indices": 2,
          "material": 0
        }
      ],
      "name": "dd10ac6b-cdec-4b06-8d38-6a5bf21d60f7_mesh"
    },
    {
      "primitives": [
        {
          "attributes": {
            "NORMAL": 5,
            "POSITION": 4,
            "TEXCOORD_0": 7
          },
          "indices": 6,
          "material": 1
        }
      ],
      "name": "be090b04-c125-48d2-983a-903f4fa138ba_mesh"
    },
    {
      "primitives": [
        {
          "attributes": {
            "NORMAL": 9,
            "POSITION": 8,
            "TEXCOORD_0": 11
          },
          "indices": 10,
          "material": 2
        }
      ],
      "name": "f6fa03b5-f141-4df5-9abd-417c33ba4368_mesh"
    },
    {
      "primitives": [
        {
          "attributes": {
            "NORMAL": 13,
            "POSITION": 12,
            "TEXCOORD_0": 15
          },
          "indices": 14,
          "material": 1
        }
      ],
      "name": "55f60812-6e67-4625-bba8-817a1c73cd5b_mesh"
    },
    {
      "primitives": [
        {
          "attributes": {
            "NORMAL": 17,
            "POSITION": 16,
            "TEXCOORD_0": 19
          },
          "indices": 18,
          "material": 2
        }
      ],
      "name": "4ef985d8-d3f9-4fec-bed8-fa89702616b0_mesh"
    },
    {
      "primitives": [
        {
          "attributes": {
            "NORMAL": 21,
            "POSITION": 20,
            "TEXCOORD_0": 23
          },
          "indices": 22,
          "material": 1
        }
      ],
      "name": "e733fc3c-f5b4-4e84-afee-e74ddbefaa12_mesh"
    },
    {
      "primitives": [
        {
          "attributes": {
            "NORMAL": 25,
            "POSITION": 24,
            "TEXCOORD_0": 27
          },
          "indices": 26,
          "material": 2
        }
      ],
      "name": "ddc228f0-cf79-4209-be76-87cf01addb86_mesh"
    },
    {
      "primitives": [
        {
          "attributes": {
            "NORMAL": 29,
            "POSITION": 28,
            "TEXCOORD_0": 31
          },
          "indices": 30,
          "material": 0
        }
      ],
      "name": "6158e72d-0b74-446e-bec2-77b1f97b8a13_mesh"
    }
  ],
  "nodes": [
    {
      "children": [
        1,
        3,
        5,
        7,
        9,
        11,
        13,
        15
      ],
      "matrix": [
        1.0,
        0.0,
        0.0,
        0.0,
        0.0,
        6.123234E-17,
        -1.0,
        0.0,
        0.0,
        1.0,
        6.123234E-17,
        0.0,
        0.0,
        0.0,
        0.0,
        1.0
      ]
    },
    {
      "children": [
        2
      ],
      "extensions": {
        "HYPAR_info": {
          "id": "dd10ac6b-cdec-4b06-8d38-6a5bf21d60f7"
        }
      }
    },
    {
      "mesh": 0
    },
    {
      "children": [
        4
      ],
      "matrix": [
        1.0,
        0.0,
        0.0,
        0.0,
        0.0,
        1.0,
        0.0,
        0.0,
        0.0,
        0.0,
        1.0,
        0.0,
        0.0,
        0.24,
        0.0,
        1.0
      ],
      "extensions": {
        "HYPAR_info": {
          "id": "be090b04-c125-48d2-983a-903f4fa138ba"
        }
      }
    },
    {
      "mesh": 1
    },
    {
      "children": [
        6
      ],
      "extensions": {
        "HYPAR_info": {
          "id": "f6fa03b5-f141-4df5-9abd-417c33ba4368"
        }
      }
    },
    {
      "mesh": 2
    },
    {
      "children": [
        8
      ],
      "matrix": [
        1.0,
        0.0,
        0.0,
        0.0,
        0.0,
        1.0,
        0.0,
        0.0,
        0.0,
        0.0,
        1.0,
        0.0,
        0.0,
        1.32,
        0.03,
        1.0
      ],
      "extensions": {
        "HYPAR_info": {
          "id": "55f60812-6e67-4625-bba8-817a1c73cd5b"
        }
      }
    },
    {
      "mesh": 3
    },
    {
      "children": [
        10
      ],
      "extensions": {
        "HYPAR_info": {
          "id": "4ef985d8-d3f9-4fec-bed8-fa89702616b0"
        }
      }
    },
    {
      "mesh": 4
    },
    {
      "children": [
        12
      ],
      "matrix": [
        1.0,
        0.0,
        0.0,
        0.0,
        0.0,
        1.0,
        0.0,
        0.0,
        0.0,
        0.0,
        1.0,
        0.0,
        0.0,
        1.76,
        0.025,
        1.0
      ],
      "extensions": {
        "HYPAR_info": {
          "id": "e733fc3c-f5b4-4e84-afee-e74ddbefaa12"
        }
      }
    },
    {
      "mesh": 5
    },
    {
      "children": [
        14
      ],
      "extensions": {
        "HYPAR_info": {
          "id": "ddc228f0-cf79-4209-be76-87cf01addb86"
        }
      }
    },
    {
      "mesh": 6
    },
    {
      "children": [
        16
      ],
      "matrix": [
        1.0,
        0.0,
        0.0,
        0.0,
        0.0,
        1.0,
        0.0,
        0.0,
        0.0,
        0.0,
        1.0,
        0.0,
        0.0,
        3.0,
        0.025,
        1.0
      ],
      "extensions": {
        "HYPAR_info": {
          "id": "6158e72d-0b74-446e-bec2-77b1f97b8a13"
        }
      }
    },
    {
      "mesh": 7
    }
  ],
  "scene": 0,
  "scenes": [
    {
      "nodes": [
        0
      ]
    }
  ]
}