{
  "extensionsUsed": [
    "KHR_materials_specular",
    "KHR_materials_ior",
    "KHR_materials_unlit",
    "HYPAR_info",
    "HYPAR_representation_info"
  ],
  "accessors": [
    {
      "bufferView": 0,
      "componentType": 5126,
      "count": 398,
      "type": "VEC3",
      "max": [
        0.075,
        0.31,
        0.075
      ],
      "min": [
        -0.075,
        -0.0,
        -0.075
      ]
    },
    {
      "bufferView": 1,
      "componentType": 5126,
      "count": 398,
      "type": "VEC3",
      "max": [
        0.98768836,
        1.0,
        0.98768836
      ],
      "min": [
        -0.98768836,
        -1.0,
        -0.98768836
      ]
    },
    {
      "bufferView": 2,
      "componentType": 5123,
      "count": 816,
      "type": "SCALAR",
      "max": [
        397.0
      ],
      "min": [
        0.0
      ]
    },
    {
      "bufferView": 3,
      "componentType": 5126,
      "count": 398,
      "type": "VEC2",
      "max": [
        0.31,
        0.075
      ],
      "min": [
        -0.31,
        -0.075
      ]
    },
    {
      "bufferView": 4,
      "componentType": 5126,
      "count": 812,
      "type": "VEC3",
      "max": [
        0.075,
        0.15,
        0.075
      ],
      "min": [
        -0.075,
        -0.15,
        -0.075
      ]
    },
    {
      "bufferView": 5,
      "componentType": 5126,
      "count": 812,
      "type": "VEC3",
      "max": [
        0.98768836,
        1.0,
        0.98768836
      ],
      "min": [
        -0.98768836,
        -1.0,
        -0.98768836
      ]
    },
    {
      "bufferView": 6,
      "componentType": 5123,
      "count": 1683,
      "type": "SCALAR",
      "max": [
        811.0
      ],
      "min": [
        0.0
      ]
    },
    {
      "bufferView": 7,
      "componentType": 5126,
      "count": 812,
      "type": "VEC2",
      "max": [
        0.15,
        0.075
      ],
      "min": [
        -0.15,
        -0.075
      ]
    },
    {
      "bufferView": 8,
      "componentType": 5126,
      "count": 120,
      "type": "VEC3",
      "max": [
        0.045,
        1.28,
        0.075
      ],
      "min": [
        -0.045,
        0.28,
        -0.015
      ]
    },
    {
      "bufferView": 9,
      "componentType": 5126,
      "count": 120,
      "type": "VEC3",
      "max": [
        0.98768836,
        1.0,
        0.98768836
      ],
      "min": [
        -0.98768836,
        -1.0,
        -0.98768836
      ]
    },
    {
      "bufferView": 10,
      "componentType": 5123,
      "count": 228,
      "type": "SCALAR",
      "max": [
        119.0
      ],
      "min": [
        0.0
      ]
    },
    {
      "bufferView": 11,
      "componentType": 5126,
      "count": 120,
      "type": "VEC2",
      "max": [
        1.28,
        0.075
      ],
      "min": [
        -1.28,
        -0.015
      ]
    },
    {
      "bufferView": 12,
      "componentType": 5126,
      "count": 812,
      "type": "VEC3",
      "max": [
        0.045,
        0.15,
        0.045
      ],
      "min": [
        -0.045,
        -0.15,
        -0.045
      ]
    },
    {
      "bufferView": 13,
      "componentType": 5126,
      "count": 812,
      "type": "VEC3",
      "max": [
        0.98768836,
        1.0,
        0.98768836
      ],
      "min": [
        -0.98768836,
        -1.0,
        -0.98768836
      ]
    },
    {
      "bufferView": 14,
      "componentType": 5123,
      "count": 1683,
      "type": "SCALAR",
      "max": [
        811.0
      ],
      "min": [
        0.0
      ]
    },
    {
      "bufferView": 15,
      "componentType": 5126,
      "count": 812,
      "type": "VEC2",
      "max": [
        0.15,
        0.045
      ],
      "min": [
        -0.15,
        -0.045
      ]
    },
    {
      "bufferView": 16,
      "componentType": 5126,
      "count": 120,
      "type": "VEC3",
      "max": [
        0.04,
        1.72,
        0.075
      ],
      "min": [
        -0.04,
        1.36,
        -0.005
      ]
    },
    {
      "bufferView": 17,
      "componentType": 5126,
      "count": 120,
      "type": "VEC3",
      "max": [
        0.98768836,
        1.0,
        0.98768836
      ],
      "min": [
        -0.98768836,
        -1.0,
        -0.98768836
      ]
    },
    {
      "bufferView": 18,
      "componentType": 5123,
      "count": 228,
      "type": "SCALAR",
      "max": [
        119.0
      ],
      "min": [
        0.0
      ]
    },
    {
      "bufferView": 19,
      "componentType": 5126,
      "count": 120,
      "type": "VEC2",
      "max": [
        1.72,
        0.075
      ],
      "min": [
        -1.72,
        -0.005
      ]
    },
    {
      "bufferView": 20,
      "componentType": 5126,
      "count": 812,
      "type": "VEC3",
      "max": [
        0.05,
        0.15,
        0.04
      ],
      "min": [
        -0.05,
        -0.15,
        -0.06
      ]
    },
    {
      "bufferView": 21,
      "componentType": 5126,
      "count": 812,
      "type": "VEC3",
      "max": [
        0.98768836,
        1.0,
        0.98768836
      ],
      "min": [
        -0.98768836,
        -1.0,
        -0.98768836
      ]
    },
    {
      "bufferView": 22,
      "componentType": 5123,
      "count": 1683,
      "type": "SCALAR",
      "max": [
        811.0
      ],
      "min": [
        0.0
      ]
    },
    {
      "bufferView": 23,
      "componentType": 5126,
      "count": 812,
      "type": "VEC2",
      "max": [
        0.15,
        0.04
      ],
      "min": [
        -0.15,
        -0.06
      ]
    },
    {
      "bufferView": 24,
      "componentType": 5126,
      "count": 120,
      "type": "VEC3",
      "max": [
        0.05,
        2.8,
        0.075
      ],
      "min": [
        -0.05,
        1.8,
        -0.025
      ]
    },
    {
      "bufferView": 25,
      "componentType": 5126,
      "count": 120,
      "type": "VEC3",
      "max": [
        0.98768836,
        1.0,
        0.98768836
      ],
      "min": [
        -0.98768836,
        -1.0,
        -0.98768836
      ]
    },
    {
      "bufferView": 26,
      "componentType": 5123,
      "count": 228,
      "type": "SCALAR",
      "max": [
        119.0
      ],
      "min": [
        0.0
      ]
    },
    {
      "bufferView": 27,
      "componentType": 5126,
      "count": 120,
      "type": "VEC2",
      "max": [
        2.8,
        0.075
      ],
      "min": [
        -2.8,
        -0.025
      ]
    },
    {
      "bufferView": 28,
      "componentType": 5126,
      "count": 398,
      "type": "VEC3",
      "max": [
        0.05,
        1.7763568E-15,
        0.05
      ],
      "min": [
        -0.05,
        -0.31,
        -0.05
      ]
    },
    {
      "bufferView": 29,
      "componentType": 5126,
      "count": 398,
      "type": "VEC3",
      "max": [
        0.98768836,
        1.0,
        0.98768836
      ],
      "min": [
        -0.98768836,
        -1.0,
        -0.98768836
      ]
    },
    {
      "bufferView": 30,
      "componentType": 5123,
      "count": 816,
      "type": "SCALAR",
      "max": [
        397.0
      ],
      "min": [
        0.0
      ]
    },
    {
      "bufferView": 31,
      "componentType": 5126,
      "count": 398,
      "type": "VEC2",
      "max": [
        0.31,
        0.05
      ],
      "min": [
        -0.31,
        -0.05
      ]
    }
  ],
  "asset": {
    "generator": "hypar-gltf",
    "version": "2.0"
  },
  "buffers": [
    {
      "uri": "HorizontalFittingTreeSplitTwiceAndResizePipeParts_second_0.bin",
      "byteLength": 129680
    }
  ],
  "bufferViews": [
    {
      "buffer": 0,
      "byteLength": 4776
    },
    {
      "buffer": 0,
      "byteOffset": 4776,
      "byteLength": 4776
    },
    {
      "buffer": 0,
      "byteOffset": 9552,
      "byteLength": 1632
    },
    {
      "buffer": 0,
      "byteOffset": 11184,
      "byteLength": 3184
    },
    {
      "buffer": 0,
      "byteOffset": 14368,
      "byteLength": 9744
    },
    {
      "buffer": 0,
      "byteOffset": 24112,
      "byteLength": 9744
    },
    {
      "buffer": 0,
      "byteOffset": 33856,
      "byteLength": 3366
    },
    {
      "buffer": 0,
      "byteOffset": 37224,
      "byteLength": 6496
    },
    {
      "buffer": 0,
      "byteOffset": 43720,
      "byteLength": 1440
    },
    {
      "buffer": 0,
      "byteOffset": 45160,
      "byteLength": 1440
    },
    {
      "buffer": 0,
      "byteOffset": 46600,
      "byteLength": 456
    },
    {
      "buffer": 0,
      "byteOffset": 47056,
      "byteLength": 960
    },
    {
      "buffer": 0,
      "byteOffset": 48016,
      "byteLength": 9744
    },
    {
      "buffer": 0,
      "byteOffset": 57760,
      "byteLength": 9744
    },
    {
      "buffer": 0,
      "byteOffset": 67504,
      "byteLength": 3366
    },
    {
      "buffer": 0,
      "byteOffset": 70872,
      "byteLength": 6496
    },
    {
      "buffer": 0,
      "byteOffset": 77368,
      "byteLength": 1440
    },
    {
      "buffer": 0,
      "byteOffset": 78808,
      "byteLength": 1440
    },
    {
      "buffer": 0,
      "byteOffset": 80248,
      "byteLength": 456
    },
    {
      "buffer": 0,
      "byteOffset": 80704,
      "byteLength": 960
    },
    {
      "buffer": 0,
      "byteOffset": 81664,
      "byteLength": 9744
    },
    {
      "buffer": 0,
      "byteOffset": 91408,
      "byteLength": 9744
    },
    {
      "buffer": 0,
      "byteOffset": 101152,
      "byteLength": 3366
    },
    {
      "buffer": 0,
      "byteOffset": 104520,
      "byteLength": 6496
    },
    {
      "buffer": 0,
      "byteOffset": 111016,
      "byteLength": 1440
    },
    {
      "buffer": 0,
      "byteOffset": 112456,
      "byteLength": 1440
    },
    {
      "buffer": 0,
      "byteOffset": 113896,
      "byteLength": 456
    },
    {
      "buffer": 0,
      "byteOffset": 114352,
      "byteLength": 960
    },
    {
      "buffer": 0,
      "byteOffset": 115312,
      "byteLength": 4776
    },
    {
      "buffer": 0,
      "byteOffset": 120088,
      "byteLength": 4776
    },
    {
      "buffer": 0,
      "byteOffset": 124864,
      "byteLength": 1632
    },
    {
      "buffer": 0,
      "byteOffset": 126496,
      "byteLength": 3184
    }
  ],
  "materials": [
    {
      "name": "31c8c2b1-d61c-ac46-8666-d651f50f0313",
      "extensions": {
        "KHR_materials_unlit": {}
      },
      "pbrMetallicRoughness": {
        "baseColorFactor": [
          1.0,
          0.0,
          0.0,
          0.3
        ],
        "metallicFactor": 0.0,
        "roughnessFactor": 0.0
      },
      "alphaMode": "BLEND"
    },
    {
      "name": "7298d643-9049-4a2b-960d-ae775b50fd80",
      "extensions": {
        "KHR_materials_specular": {
          "specularFactor": 0.0,
          "specularColorFactor": [
            1.0,
            1.0,
            1.0
          ]
        },
        "KHR_materials_ior": {
          "ior": 1000
        }
      },
      "pbrMetallicRoughness": {
        "baseColorFactor": [
          0.0,
          0.0,
          0.0,
          1.0
        ],
        "metallicFactor": 0.0
      }
    },
    {
      "name": "e7aa235b-49e9-42d0-b5fb-884a54e90d07",
      "extensions": {
        "KHR_materials_specular": {
          "specularFactor": 1.0,
          "specularColorFactor": [
            1.0,
            1.0,
            1.0
          ]
        },
        "KHR_materials_ior": {
          "ior": 1000
        }
      },
      "pbrMetallicRoughness": {
        "baseColorFactor": [
          0.0,
          0.13286832,
          0.13286832,
          0.4
        ],
        "metallicFactor": 0.0,
        "roughnessFactor": 0.0
      },
      "alphaMode": "BLEND"
    }
  ],
  "meshes": [
    {
      "primitives": [
        {
          "attributes": {
            "POSITION": 0,
            "NORMAL": 1,
            "TEXCOORD_0": 3
          },
          "indices": 2,
          "material": 0
        }
      ],
      "name": "f70ce58b-2960-4343-9bae-35b8938fb6f4_mesh"
    },
    {
      "primitives": [
        {
          "attributes": {
            "POSITION": 4,
            "NORMAL": 5,
            "TEXCOORD_0": 7
          },
          "indices": 6,
          "material": 1
        }
      ],
      "name": "8c556fc7-9a8d-4e9e-996f-05a509913751_mesh"
    },
    {
      "primitives": [
        {
          "attributes": {
            "POSITION": 8,
            "NORMAL": 9,
            "TEXCOORD_0": 11
          },
          "indices": 10,
          "material": 2
        }
      ],
      "name": "20c480cd-5e0d-4fee-8a01-9e9d3c4814d5_mesh"
    },
    {
      "primitives": [
        {
          "attributes": {
            "POSITION": 12,
            "NORMAL": 13,
            "TEXCOORD_0": 15
          },
          "indices": 14,
          "material": 1
        }
      ],
      "name": "2105deed-4c7b-4586-9fc2-106c7755d695_mesh"
    },
    {
      "primitives": [
        {
          "attributes": {
            "POSITION": 16,
            "NORMAL": 17,
            "TEXCOORD_0": 19
          },
          "indices": 18,
          "material": 2
        }
      ],
      "name": "8f398980-f831-4874-b279-cb77d5f84767_mesh"
    },
    {
      "primitives": [
        {
          "attributes": {
            "POSITION": 20,
            "NORMAL": 21,
            "TEXCOORD_0": 23
          },
          "indices": 22,
          "material": 1
        }
      ],
      "name": "5118e1b7-58be-48da-99c1-2b3e8d2ad8c3_mesh"
    },
    {
      "primitives": [
        {
          "attributes": {
            "POSITION": 24,
            "NORMAL": 25,
            "TEXCOORD_0": 27
          },
          "indices": 26,
          "material": 2
        }
      ],
      "name": "0c1020ea-d16b-42d9-9f40-a078e8fadbe9_mesh"
    },
    {
      "primitives": [
        {
          "attributes": {
            "POSITION": 28,
            "NORMAL": 29,
            "TEXCOORD_0": 31
          },
          "indices": 30,
          "material": 0
        }
      ],
      "name": "c95d3347-67fe-48f9-9a54-6476712097ae_mesh"
    }
  ],
  "nodes": [
    {
      "children": [
        1,
        3,
        5,
        7,
        9,
        11,
        13,
        15
      ],
      "matrix": [
        1.0,
        0.0,
        0.0,
        0.0,
        0.0,
        6.123234E-17,
        -1.0,
        0.0,
        0.0,
        1.0,
        6.123234E-17,
        0.0,
        0.0,
        0.0,
        0.0,
        1.0
      ]
    },
    {
      "children": [
        2
      ],
      "extensions": {
        "HYPAR_info": {
          "id": "f70ce58b-2960-4343-9bae-35b8938fb6f4"
        }
      }
    },
    {
      "mesh": 0
    },
    {
      "children": [
        4
      ],
      "matrix": [
        1.0,
        0.0,
        0.0,
        0.0,
        0.0,
        1.0,
        0.0,
        0.0,
        0.0,
        0.0,
        1.0,
        0.0,
        0.0,
        0.24,
        0.0,
        1.0
      ],
      "extensions": {
        "HYPAR_info": {
          "id": "8c556fc7-9a8d-4e9e-996f-05a509913751"
        }
      }
    },
    {
      "mesh": 1
    },
    {
      "children": [
        6
      ],
      "extensions": {
        "HYPAR_info": {
          "id": "20c480cd-5e0d-4fee-8a01-9e9d3c4814d5"
        }
      }
    },
    {
      "mesh": 2
    },
    {
      "children": [
        8
      ],
      "matrix": [
        1.0,
        0.0,
        0.0,
        0.0,
        0.0,
        1.0,
        0.0,
        0.0,
        0.0,
        0.0,
        1.0,
        0.0,
        0.0,
        1.32,
        0.03,
        1.0
      ],
      "extensions": {
        "HYPAR_info": {
          "id": "2105deed-4c7b-4586-9fc2-106c7755d695"
        }
      }
    },
    {
      "mesh": 3
    },
    {
      "children": [
        10
      ],
      "extensions": {
        "HYPAR_info": {
          "id": "8f398980-f831-4874-b279-cb77d5f84767"
        }
      }
    },
    {
      "mesh": 4
    },
    {
      "children": [
        12
      ],
      "matrix": [
        1.0,
        0.0,
        0.0,
        0.0,
        0.0,
        1.0,
        0.0,
        0.0,
        0.0,
        0.0,
        1.0,
        0.0,
        0.0,
        1.76,
        0.035,
        1.0
      ],
      "extensions": {
        "HYPAR_info": {
          "id": "5118e1b7-58be-48da-99c1-2b3e8d2ad8c3"
        }
      }
    },
    {
      "mesh": 5
    },
    {
      "children": [
        14
      ],
      "extensions": {
        "HYPAR_info": {
          "id": "0c1020ea-d16b-42d9-9f40-a078e8fadbe9"
        }
      }
    },
    {
      "mesh": 6
    },
    {
      "children": [
        16
      ],
      "matrix": [
        1.0,
        0.0,
        0.0,
        0.0,
        0.0,
        1.0,
        0.0,
        0.0,
        0.0,
        0.0,
        1.0,
        0.0,
        0.0,
        3.0,
        0.025,
        1.0
      ],
      "extensions": {
        "HYPAR_info": {
          "id": "c95d3347-67fe-48f9-9a54-6476712097ae"
        }
      }
    },
    {
      "mesh": 7
    }
  ],
  "scene": 0,
  "scenes": [
    {
      "nodes": [
        0
      ]
    }
  ]
}