{
  "extensionsUsed": [
    "KHR_materials_specular",
    "KHR_materials_ior",
    "KHR_materials_unlit",
    "HYPAR_info",
    "HYPAR_representation_info"
  ],
  "accessors": [
    {
      "bufferView": 0,
      "componentType": 5126,
      "count": 398,
      "type": "VEC3",
      "max": [
        0.075,
        0.31,
        0.075
      ],
      "min": [
        -0.075,
        -0.0,
        -0.075
      ]
    },
    {
      "bufferView": 1,
      "componentType": 5126,
      "count": 398,
      "type": "VEC3",
      "max": [
        0.98768836,
        1.0,
        0.98768836
      ],
      "min": [
        -0.98768836,
        -1.0,
        -0.98768836
      ]
    },
    {
      "bufferView": 2,
      "componentType": 5123,
      "count": 816,
      "type": "SCALAR",
      "max": [
        397.0
      ],
      "min": [
        0.0
      ]
    },
    {
      "bufferView": 3,
      "componentType": 5126,
      "count": 398,
      "type": "VEC2",
      "max": [
        0.31,
        0.075
      ],
      "min": [
        -0.31,
        -0.075
      ]
    },
    {
      "bufferView": 4,
      "componentType": 5126,
      "count": 812,
      "type": "VEC3",
      "max": [
        0.075,
        0.15,
        0.075
      ],
      "min": [
        -0.075,
        -0.15,
        -0.075
      ]
    },
    {
      "bufferView": 5,
      "componentType": 5126,
      "count": 812,
      "type": "VEC3",
      "max": [
        0.98768836,
        1.0,
        0.98768836
      ],
      "min": [
        -0.98768836,
        -1.0,
        -0.98768836
      ]
    },
    {
      "bufferView": 6,
      "componentType": 5123,
      "count": 1683,
      "type": "SCALAR",
      "max": [
        811.0
      ],
      "min": [
        0.0
      ]
    },
    {
      "bufferView": 7,
      "componentType": 5126,
      "count": 812,
      "type": "VEC2",
      "max": [
        0.15,
        0.075
      ],
      "min": [
        -0.15,
        -0.075
      ]
    },
    {
      "bufferView": 8,
      "componentType": 5126,
      "count": 120,
      "type": "VEC3",
      "max": [
        0.04,
        2.72,
        0.075
      ],
      "min": [
        -0.04,
        0.28,
        -0.005
      ]
    },
    {
      "bufferView": 9,
      "componentType": 5126,
      "count": 120,
      "type": "VEC3",
      "max": [
        0.98768836,
        1.0,
        0.98768836
      ],
      "min": [
        -0.98768836,
        -1.0,
        -0.98768836
      ]
    },
    {
      "bufferView": 10,
      "componentType": 5123,
      "count": 228,
      "type": "SCALAR",
      "max": [
        119.0
      ],
      "min": [
        0.0
      ]
    },
    {
      "bufferView": 11,
      "componentType": 5126,
      "count": 120,
      "type": "VEC2",
      "max": [
        2.72,
        0.075
      ],
      "min": [
        -2.72,
        -0.005
      ]
    },
    {
      "bufferView": 12,
      "componentType": 5126,
      "count": 812,
      "type": "VEC3",
      "max": [
        0.075,
        0.15,
        0.04
      ],
      "min": [
        -0.075,
        -0.15,
        -0.11
      ]
    },
    {
      "bufferView": 13,
      "componentType": 5126,
      "count": 812,
      "type": "VEC3",
      "max": [
        0.98768836,
        1.0,
        0.98768836
      ],
      "min": [
        -0.98768836,
        -1.0,
        -0.98768836
      ]
    },
    {
      "bufferView": 14,
      "componentType": 5123,
      "count": 1683,
      "type": "SCALAR",
      "max": [
        811.0
      ],
      "min": [
        0.0
      ]
    },
    {
      "bufferView": 15,
      "componentType": 5126,
      "count": 812,
      "type": "VEC2",
      "max": [
        0.15,
        0.04
      ],
      "min": [
        -0.15,
        -0.11
      ]
    },
    {
      "bufferView": 16,
      "componentType": 5126,
      "count": 398,
      "type": "VEC3",
      "max": [
        0.075,
        1.7763568E-15,
        0.075
      ],
      "min": [
        -0.075,
        -0.31,
        -0.075
      ]
    },
    {
      "bufferView": 17,
      "componentType": 5126,
      "count": 398,
      "type": "VEC3",
      "max": [
        0.98768836,
        1.0,
        0.98768836
      ],
      "min": [
        -0.98768836,
        -1.0,
        -0.98768836
      ]
    },
    {
      "bufferView": 18,
      "componentType": 5123,
      "count": 816,
      "type": "SCALAR",
      "max": [
        397.0
      ],
      "min": [
        0.0
      ]
    },
    {
      "bufferView": 19,
      "componentType": 5126,
      "count": 398,
      "type": "VEC2",
      "max": [
        0.31,
        0.075
      ],
      "min": [
        -0.31,
        -0.075
      ]
    }
  ],
  "asset": {
    "generator": "hypar-gltf",
    "version": "2.0"
  },
  "buffers": [
    {
      "uri": "HorizontalFittingTreeResize_0.bin",
      "byteLength": 91736
    }
  ],
  "bufferViews": [
    {
      "buffer": 0,
      "byteLength": 4776
    },
    {
      "buffer": 0,
      "byteOffset": 4776,
      "byteLength": 4776
    },
    {
      "buffer": 0,
      "byteOffset": 9552,
      "byteLength": 1632
    },
    {
      "buffer": 0,
      "byteOffset": 11184,
      "byteLength": 3184
    },
    {
      "buffer": 0,
      "byteOffset": 14368,
      "byteLength": 9744
    },
    {
      "buffer": 0,
      "byteOffset": 24112,
      "byteLength": 9744
    },
    {
      "buffer": 0,
      "byteOffset": 33856,
      "byteLength": 3366
    },
    {
      "buffer": 0,
      "byteOffset": 37224,
      "byteLength": 6496
    },
    {
      "buffer": 0,
      "byteOffset": 43720,
      "byteLength": 1440
    },
    {
      "buffer": 0,
      "byteOffset": 45160,
      "byteLength": 1440
    },
    {
      "buffer": 0,
      "byteOffset": 46600,
      "byteLength": 456
    },
    {
      "buffer": 0,
      "byteOffset": 47056,
      "byteLength": 960
    },
    {
      "buffer": 0,
      "byteOffset": 48016,
      "byteLength": 9744
    },
    {
      "buffer": 0,
      "byteOffset": 57760,
      "byteLength": 9744
    },
    {
      "buffer": 0,
      "byteOffset": 67504,
      "byteLength": 3366
    },
    {
      "buffer": 0,
      "byteOffset": 70872,
      "byteLength": 6496
    },
    {
      "buffer": 0,
      "byteOffset": 77368,
      "byteLength": 4776
    },
    {
      "buffer": 0,
      "byteOffset": 82144,
      "byteLength": 4776
    },
    {
      "buffer": 0,
      "byteOffset": 86920,
      "byteLength": 1632
    },
    {
      "buffer": 0,
      "byteOffset": 88552,
      "byteLength": 3184
    }
  ],
  "materials": [
    {
      "name": "31c8c2b1-d61c-ac46-8666-d651f50f0313",
      "extensions": {
        "KHR_materials_unlit": {}
      },
      "pbrMetallicRoughness": {
        "baseColorFactor": [
          1.0,
          0.0,
          0.0,
          0.3
        ],
        "metallicFactor": 0.0,
        "roughnessFactor": 0.0
      },
      "alphaMode": "BLEND"
    },
    {
      "name": "7298d643-9049-4a2b-960d-ae775b50fd80",
      "extensions": {
        "KHR_materials_specular": {
          "specularFactor": 0.0,
          "specularColorFactor": [
            1.0,
            1.0,
            1.0
          ]
        },
        "KHR_materials_ior": {
          "ior": 1000
        }
      },
      "pbrMetallicRoughness": {
        "baseColorFactor": [
          0.0,
          0.0,
          0.0,
          1.0
        ],
        "metallicFactor": 0.0
      }
    },
    {
      "name": "e7aa235b-49e9-42d0-b5fb-884a54e90d07",
      "extensions": {
        "KHR_materials_specular": {
          "specularFactor": 1.0,
          "specularColorFactor": [
            1.0,
            1.0,
            1.0
          ]
        },
        "KHR_materials_ior": {
          "ior": 1000
        }
      },
      "pbrMetallicRoughness": {
        "baseColorFactor": [
          0.0,
          0.13286832,
          0.13286832,
          0.4
        ],
        "metallicFactor": 0.0,
        "roughnessFactor": 0.0
      },
      "alphaMode": "BLEND"
    }
  ],
  "meshes": [
    {
      "primitives": [
        {
          "attributes": {
            "POSITION": 0,
            "NORMAL": 1,
            "TEXCOORD_0": 3
          },
          "indices": 2,
          "material": 0
        }
      ],
      "name": "6693bfec-9116-431d-9bce-90755d47bc6b_mesh"
    },
    {
      "primitives": [
        {
          "attributes": {
            "POSITION": 4,
            "NORMAL": 5,
            "TEXCOORD_0": 7
          },
          "indices": 6,
          "material": 1
        }
      ],
      "name": "d047258b-4f0b-41ad-8323-efc7bcc3bf6d_mesh"
    },
    {
      "primitives": [
        {
          "attributes": {
            "POSITION": 8,
            "NORMAL": 9,
            "TEXCOORD_0": 11
          },
          "indices": 10,
          "material": 2
        }
      ],
      "name": "0d5b9d8b-2ce3-4547-98a6-512015940d2e_mesh"
    },
    {
      "primitives": [
        {
          "attributes": {
            "POSITION": 12,
            "NORMAL": 13,
            "TEXCOORD_0": 15
          },
          "indices": 14,
          "material": 1
        }
      ],
      "name": "42bcde25-7626-4e83-b39f-0e7cb85997cf_mesh"
    },
    {
      "primitives": [
        {
          "attributes": {
            "POSITION": 16,
            "NORMAL": 17,
            "TEXCOORD_0": 19
          },
          "indices": 18,
          "material": 0
        }
      ],
      "name": "9dc26361-7d61-4b57-914e-a08d00c64921_mesh"
    }
  ],
  "nodes": [
    {
      "children": [
        1,
        3,
        5,
        7,
        9
      ],
      "matrix": [
        1.0,
        0.0,
        0.0,
        0.0,
        0.0,
        6.123234E-17,
        -1.0,
        0.0,
        0.0,
        1.0,
        6.123234E-17,
        0.0,
        0.0,
        0.0,
        0.0,
        1.0
      ]
    },
    {
      "children": [
        2
      ],
      "extensions": {
        "HYPAR_info": {
          "id": "6693bfec-9116-431d-9bce-90755d47bc6b"
        }
      }
    },
    {
      "mesh": 0
    },
    {
      "children": [
        4
      ],
      "matrix": [
        1.0,
        0.0,
        0.0,
        0.0,
        0.0,
        1.0,
        0.0,
        0.0,
        0.0,
        0.0,
        1.0,
        0.0,
        0.0,
        0.24,
        0.0,
        1.0
      ],
      "extensions": {
        "HYPAR_info": {
          "id": "d047258b-4f0b-41ad-8323-efc7bcc3bf6d"
        }
      }
    },
    {
      "mesh": 1
    },
    {
      "children": [
        6
      ],
      "extensions": {
        "HYPAR_info": {
          "id": "0d5b9d8b-2ce3-4547-98a6-512015940d2e"
        }
      }
    },
    {
      "mesh": 2
    },
    {
      "children": [
        8
      ],
      "matrix": [
        1.0,
        0.0,
        0.0,
        0.0,
        0.0,
        1.0,
        0.0,
        0.0,
        0.0,
        0.0,
        1.0,
        0.0,
        0.0,
        2.76,
        0.035,
        1.0
      ],
      "extensions": {
        "HYPAR_info": {
          "id": "42bcde25-7626-4e83-b39f-0e7cb85997cf"
        }
      }
    },
    {
      "mesh": 3
    },
    {
      "children": [
        10
      ],
      "matrix": [
        1.0,
        0.0,
        0.0,
        0.0,
        0.0,
        1.0,
        0.0,
        0.0,
        0.0,
        0.0,
        1.0,
        0.0,
        0.0,
        3.0,
        0.0,
        1.0
      ],
      "extensions": {
        "HYPAR_info": {
          "id": "9dc26361-7d61-4b57-914e-a08d00c64921"
        }
      }
    },
    {
      "mesh": 4
    }
  ],
  "scene": 0,
  "scenes": [
    {
      "nodes": [
        0
      ]
    }
  ]
}