{
  "extensionsUsed": [
    "KHR_materials_specular",
    "KHR_materials_ior",
    "KHR_materials_unlit",
    "HYPAR_info",
    "HYPAR_representation_info"
  ],
  "accessors": [
    {
      "bufferView": 0,
      "componentType": 5126,
      "count": 398,
      "type": "VEC3",
      "max": [
        0.31,
        0.075,
        0.075
      ],
      "min": [
        0.0,
        -0.075,
        -0.075
      ]
    },
    {
      "bufferView": 1,
      "componentType": 5126,
      "count": 398,
      "type": "VEC3",
      "max": [
        1.0,
        0.98768836,
        0.98768836
      ],
      "min": [
        -1.0,
        -0.98768836,
        -0.98768836
      ]
    },
    {
      "bufferView": 2,
      "componentType": 5123,
      "count": 816,
      "type": "SCALAR",
      "max": [
        397.0
      ],
      "min": [
        0.0
      ]
    },
    {
      "bufferView": 3,
      "componentType": 5126,
      "count": 398,
      "type": "VEC2",
      "max": [
        0.31,
        0.075
      ],
      "min": [
        -0.31,
        -0.075
      ]
    },
    {
      "bufferView": 4,
      "componentType": 5126,
      "count": 809,
      "type": "VEC3",
      "max": [
        0.15,
        0.075,
        0.075
      ],
      "min": [
        -0.15,
        -0.075,
        -0.075
      ]
    },
    {
      "bufferView": 5,
      "componentType": 5126,
      "count": 809,
      "type": "VEC3",
      "max": [
        1.0,
        0.98768836,
        0.98768836
      ],
      "min": [
        -1.0,
        -0.98768836,
        -0.98768836
      ]
    },
    {
      "bufferView": 6,
      "componentType": 5123,
      "count": 1677,
      "type": "SCALAR",
      "max": [
        808.0
      ],
      "min": [
        0.0
      ]
    },
    {
      "bufferView": 7,
      "componentType": 5126,
      "count": 809,
      "type": "VEC2",
      "max": [
        0.15,
        0.075
      ],
      "min": [
        -0.15,
        -0.075
      ]
    },
    {
      "bufferView": 8,
      "componentType": 5126,
      "count": 120,
      "type": "VEC3",
      "max": [
        1.22,
        0.0375,
        0.075
      ],
      "min": [
        0.28,
        -0.0375,
        0.0
      ]
    },
    {
      "bufferView": 9,
      "componentType": 5126,
      "count": 120,
      "type": "VEC3",
      "max": [
        1.0,
        0.98768836,
        0.98768836
      ],
      "min": [
        -1.0,
        -0.98768836,
        -0.98768836
      ]
    },
    {
      "bufferView": 10,
      "componentType": 5123,
      "count": 228,
      "type": "SCALAR",
      "max": [
        119.0
      ],
      "min": [
        0.0
      ]
    },
    {
      "bufferView": 11,
      "componentType": 5126,
      "count": 120,
      "type": "VEC2",
      "max": [
        1.22,
        0.075
      ],
      "min": [
        -1.22,
        -1.3877788E-17
      ]
    },
    {
      "bufferView": 12,
      "componentType": 5126,
      "count": 812,
      "type": "VEC3",
      "max": [
        0.15,
        0.04,
        0.0375
      ],
      "min": [
        -0.15,
        -0.04,
        -0.0425
      ]
    },
    {
      "bufferView": 13,
      "componentType": 5126,
      "count": 812,
      "type": "VEC3",
      "max": [
        1.0,
        0.98768836,
        0.98768836
      ],
      "min": [
        -1.0,
        -0.98768836,
        -0.98768836
      ]
    },
    {
      "bufferView": 14,
      "componentType": 5123,
      "count": 1683,
      "type": "SCALAR",
      "max": [
        811.0
      ],
      "min": [
        0.0
      ]
    },
    {
      "bufferView": 15,
      "componentType": 5126,
      "count": 812,
      "type": "VEC2",
      "max": [
        0.15,
        0.0375
      ],
      "min": [
        -0.15,
        -0.0425
      ]
    },
    {
      "bufferView": 16,
      "componentType": 5126,
      "count": 754,
      "type": "VEC3",
      "max": [
        0.04,
        0.31,
        0.04
      ],
      "min": [
        -0.31,
        -0.04,
        -0.04
      ]
    },
    {
      "bufferView": 17,
      "componentType": 5126,
      "count": 754,
      "type": "VEC3",
      "max": [
        1.0,
        1.0,
        0.98768836
      ],
      "min": [
        -1.0,
        -1.0,
        -0.98768836
      ]
    },
    {
      "bufferView": 18,
      "componentType": 5123,
      "count": 1524,
      "type": "SCALAR",
      "max": [
        753.0
      ],
      "min": [
        0.0
      ]
    },
    {
      "bufferView": 19,
      "componentType": 5126,
      "count": 754,
      "type": "VEC2",
      "max": [
        0.31,
        0.04
      ],
      "min": [
        -0.31,
        -0.04
      ]
    },
    {
      "bufferView": 20,
      "componentType": 5126,
      "count": 120,
      "type": "VEC3",
      "max": [
        1.54,
        0.72,
        0.075
      ],
      "min": [
        1.46,
        0.2,
        -0.005
      ]
    },
    {
      "bufferView": 21,
      "componentType": 5126,
      "count": 120,
      "type": "VEC3",
      "max": [
        0.98768836,
        1.0,
        0.98768836
      ],
      "min": [
        -0.98768836,
        -1.0,
        -0.98768836
      ]
    },
    {
      "bufferView": 22,
      "componentType": 5123,
      "count": 228,
      "type": "SCALAR",
      "max": [
        119.0
      ],
      "min": [
        0.0
      ]
    },
    {
      "bufferView": 23,
      "componentType": 5126,
      "count": 120,
      "type": "VEC2",
      "max": [
        1.54,
        1.4932652
      ],
      "min": [
        -1.54,
        -1.4823147
      ]
    },
    {
      "bufferView": 24,
      "componentType": 5126,
      "count": 810,
      "type": "VEC3",
      "max": [
        0.08,
        0.15,
        0.04
      ],
      "min": [
        -0.08,
        -0.15,
        -0.12
      ]
    },
    {
      "bufferView": 25,
      "componentType": 5126,
      "count": 810,
      "type": "VEC3",
      "max": [
        0.98768836,
        1.0,
        0.98768836
      ],
      "min": [
        -0.98768836,
        -1.0,
        -0.98768836
      ]
    },
    {
      "bufferView": 26,
      "componentType": 5123,
      "count": 1677,
      "type": "SCALAR",
      "max": [
        809.0
      ],
      "min": [
        0.0
      ]
    },
    {
      "bufferView": 27,
      "componentType": 5126,
      "count": 810,
      "type": "VEC2",
      "max": [
        0.15,
        0.04
      ],
      "min": [
        -0.15,
        -0.12
      ]
    },
    {
      "bufferView": 28,
      "componentType": 5126,
      "count": 398,
      "type": "VEC3",
      "max": [
        0.08,
        4.440892E-16,
        0.08
      ],
      "min": [
        -0.08,
        -0.31,
        -0.08
      ]
    },
    {
      "bufferView": 29,
      "componentType": 5126,
      "count": 398,
      "type": "VEC3",
      "max": [
        0.98768836,
        1.0,
        0.98768836
      ],
      "min": [
        -0.98768836,
        -1.0,
        -0.98768836
      ]
    },
    {
      "bufferView": 30,
      "componentType": 5123,
      "count": 816,
      "type": "SCALAR",
      "max": [
        397.0
      ],
      "min": [
        0.0
      ]
    },
    {
      "bufferView": 31,
      "componentType": 5126,
      "count": 398,
      "type": "VEC2",
      "max": [
        0.31,
        0.08
      ],
      "min": [
        -0.31,
        -0.08
      ]
    }
  ],
  "asset": {
    "generator": "hypar-gltf",
    "version": "2.0"
  },
  "buffers": [
    {
      "uri": "HorizontalLshapedFittingTreeResizeTwice_0.bin",
      "byteLength": 152376
    }
  ],
  "bufferViews": [
    {
      "buffer": 0,
      "byteLength": 4776
    },
    {
      "buffer": 0,
      "byteOffset": 4776,
      "byteLength": 4776
    },
    {
      "buffer": 0,
      "byteOffset": 9552,
      "byteLength": 1632
    },
    {
      "buffer": 0,
      "byteOffset": 11184,
      "byteLength": 3184
    },
    {
      "buffer": 0,
      "byteOffset": 14368,
      "byteLength": 9708
    },
    {
      "buffer": 0,
      "byteOffset": 24076,
      "byteLength": 9708
    },
    {
      "buffer": 0,
      "byteOffset": 33784,
      "byteLength": 3354
    },
    {
      "buffer": 0,
      "byteOffset": 37140,
      "byteLength": 6472
    },
    {
      "buffer": 0,
      "byteOffset": 43612,
      "byteLength": 1440
    },
    {
      "buffer": 0,
      "byteOffset": 45052,
      "byteLength": 1440
    },
    {
      "buffer": 0,
      "byteOffset": 46492,
      "byteLength": 456
    },
    {
      "buffer": 0,
      "byteOffset": 46948,
      "byteLength": 960
    },
    {
      "buffer": 0,
      "byteOffset": 47908,
      "byteLength": 9744
    },
    {
      "buffer": 0,
      "byteOffset": 57652,
      "byteLength": 9744
    },
    {
      "buffer": 0,
      "byteOffset": 67396,
      "byteLength": 3366
    },
    {
      "buffer": 0,
      "byteOffset": 70764,
      "byteLength": 6496
    },
    {
      "buffer": 0,
      "byteOffset": 77260,
      "byteLength": 9048
    },
    {
      "buffer": 0,
      "byteOffset": 86308,
      "byteLength": 9048
    },
    {
      "buffer": 0,
      "byteOffset": 95356,
      "byteLength": 3048
    },
    {
      "buffer": 0,
      "byteOffset": 98404,
      "byteLength": 6032
    },
    {
      "buffer": 0,
      "byteOffset": 104436,
      "byteLength": 1440
    },
    {
      "buffer": 0,
      "byteOffset": 105876,
      "byteLength": 1440
    },
    {
      "buffer": 0,
      "byteOffset": 107316,
      "byteLength": 456
    },
    {
      "buffer": 0,
      "byteOffset": 107772,
      "byteLength": 960
    },
    {
      "buffer": 0,
      "byteOffset": 108732,
      "byteLength": 9720
    },
    {
      "buffer": 0,
      "byteOffset": 118452,
      "byteLength": 9720
    },
    {
      "buffer": 0,
      "byteOffset": 128172,
      "byteLength": 3354
    },
    {
      "buffer": 0,
      "byteOffset": 131528,
      "byteLength": 6480
    },
    {
      "buffer": 0,
      "byteOffset": 138008,
      "byteLength": 4776
    },
    {
      "buffer": 0,
      "byteOffset": 142784,
      "byteLength": 4776
    },
    {
      "buffer": 0,
      "byteOffset": 147560,
      "byteLength": 1632
    },
    {
      "buffer": 0,
      "byteOffset": 149192,
      "byteLength": 3184
    }
  ],
  "materials": [
    {
      "name": "31c8c2b1-d61c-ac46-8666-d651f50f0313",
      "extensions": {
        "KHR_materials_unlit": {}
      },
      "pbrMetallicRoughness": {
        "baseColorFactor": [
          1.0,
          0.0,
          0.0,
          0.3
        ],
        "metallicFactor": 0.0,
        "roughnessFactor": 0.0
      },
      "alphaMode": "BLEND"
    },
    {
      "name": "7298d643-9049-4a2b-960d-ae775b50fd80",
      "extensions": {
        "KHR_materials_specular": {
          "specularFactor": 0.0,
          "specularColorFactor": [
            1.0,
            1.0,
            1.0
          ]
        },
        "KHR_materials_ior": {
          "ior": 1000
        }
      },
      "pbrMetallicRoughness": {
        "baseColorFactor": [
          0.0,
          0.0,
          0.0,
          1.0
        ],
        "metallicFactor": 0.0
      }
    },
    {
      "name": "e7aa235b-49e9-42d0-b5fb-884a54e90d07",
      "extensions": {
        "KHR_materials_specular": {
          "specularFactor": 1.0,
          "specularColorFactor": [
            1.0,
            1.0,
            1.0
          ]
        },
        "KHR_materials_ior": {
          "ior": 1000
        }
      },
      "pbrMetallicRoughness": {
        "baseColorFactor": [
          0.0,
          0.13286832,
          0.13286832,
          0.4
        ],
        "metallicFactor": 0.0,
        "roughnessFactor": 0.0
      },
      "alphaMode": "BLEND"
    }
  ],
  "meshes": [
    {
      "primitives": [
        {
          "attributes": {
            "POSITION": 0,
            "NORMAL": 1,
            "TEXCOORD_0": 3
          },
          "indices": 2,
          "material": 0
        }
      ],
      "name": "66b85d3d-87b2-4c94-9bc3-12192df622c1_mesh"
    },
    {
      "primitives": [
        {
          "attributes": {
            "POSITION": 4,
            "NORMAL": 5,
            "TEXCOORD_0": 7
          },
          "indices": 6,
          "material": 1
        }
      ],
      "name": "25462782-0f3f-4d21-a3c8-a77a33e525d5_mesh"
    },
    {
      "primitives": [
        {
          "attributes": {
            "POSITION": 8,
            "NORMAL": 9,
            "TEXCOORD_0": 11
          },
          "indices": 10,
          "material": 2
        }
      ],
      "name": "41b30edd-2c4c-4216-9901-8ecb43dffbf6_mesh"
    },
    {
      "primitives": [
        {
          "attributes": {
            "POSITION": 12,
            "NORMAL": 13,
            "TEXCOORD_0": 15
          },
          "indices": 14,
          "material": 1
        }
      ],
      "name": "3fa783ab-077d-4a26-9300-676af3c2e033_mesh"
    },
    {
      "primitives": [
        {
          "attributes": {
            "POSITION": 16,
            "NORMAL": 17,
            "TEXCOORD_0": 19
          },
          "indices": 18,
          "material": 1
        }
      ],
      "name": "0a6d95dc-d301-441b-8a52-0b5d2b8b7929_mesh"
    },
    {
      "primitives": [
        {
          "attributes": {
            "POSITION": 20,
            "NORMAL": 21,
            "TEXCOORD_0": 23
          },
          "indices": 22,
          "material": 2
        }
      ],
      "name": "013db08b-3bee-49a3-8df3-eaa22ed5e120_mesh"
    },
    {
      "primitives": [
        {
          "attributes": {
            "POSITION": 24,
            "NORMAL": 25,
            "TEXCOORD_0": 27
          },
          "indices": 26,
          "material": 1
        }
      ],
      "name": "f055cbd1-a821-4533-8c8c-3d3cd053ffe9_mesh"
    },
    {
      "primitives": [
        {
          "attributes": {
            "POSITION": 28,
            "NORMAL": 29,
            "TEXCOORD_0": 31
          },
          "indices": 30,
          "material": 0
        }
      ],
      "name": "dfeedece-65a3-46ad-986d-7c1c50d2ad69_mesh"
    }
  ],
  "nodes": [
    {
      "children": [
        1,
        3,
        5,
        7,
        9,
        11,
        13,
        15
      ],
      "matrix": [
        1.0,
        0.0,
        0.0,
        0.0,
        0.0,
        6.123234E-17,
        -1.0,
        0.0,
        0.0,
        1.0,
        6.123234E-17,
        0.0,
        0.0,
        0.0,
        0.0,
        1.0
      ]
    },
    {
      "children": [
        2
      ],
      "extensions": {
        "HYPAR_info": {
          "id": "66b85d3d-87b2-4c94-9bc3-12192df622c1"
        }
      }
    },
    {
      "mesh": 0
    },
    {
      "children": [
        4
      ],
      "matrix": [
        1.0,
        0.0,
        0.0,
        0.0,
        0.0,
        1.0,
        0.0,
        0.0,
        0.0,
        0.0,
        1.0,
        0.0,
        0.24,
        0.0,
        0.0,
        1.0
      ],
      "extensions": {
        "HYPAR_info": {
          "id": "25462782-0f3f-4d21-a3c8-a77a33e525d5"
        }
      }
    },
    {
      "mesh": 1
    },
    {
      "children": [
        6
      ],
      "extensions": {
        "HYPAR_info": {
          "id": "41b30edd-2c4c-4216-9901-8ecb43dffbf6"
        }
      }
    },
    {
      "mesh": 2
    },
    {
      "children": [
        8
      ],
      "matrix": [
        1.0,
        0.0,
        0.0,
        0.0,
        0.0,
        1.0,
        0.0,
        0.0,
        0.0,
        0.0,
        1.0,
        0.0,
        1.26,
        0.0,
        0.0375,
        1.0
      ],
      "extensions": {
        "HYPAR_info": {
          "id": "3fa783ab-077d-4a26-9300-676af3c2e033"
        }
      }
    },
    {
      "mesh": 3
    },
    {
      "children": [
        10
      ],
      "matrix": [
        1.0,
        0.0,
        0.0,
        0.0,
        0.0,
        1.0,
        0.0,
        0.0,
        0.0,
        0.0,
        1.0,
        0.0,
        1.5,
        0.0,
        0.035,
        1.0
      ],
      "extensions": {
        "HYPAR_info": {
          "id": "0a6d95dc-d301-441b-8a52-0b5d2b8b7929"
        }
      }
    },
    {
      "mesh": 4
    },
    {
      "children": [
        12
      ],
      "extensions": {
        "HYPAR_info": {
          "id": "013db08b-3bee-49a3-8df3-eaa22ed5e120"
        }
      }
    },
    {
      "mesh": 5
    },
    {
      "children": [
        14
      ],
      "matrix": [
        1.0,
        0.0,
        0.0,
        0.0,
        0.0,
        1.0,
        0.0,
        0.0,
        0.0,
        0.0,
        1.0,
        0.0,
        1.5,
        0.76,
        0.035,
        1.0
      ],
      "extensions": {
        "HYPAR_info": {
          "id": "f055cbd1-a821-4533-8c8c-3d3cd053ffe9"
        }
      }
    },
    {
      "mesh": 6
    },
    {
      "children": [
        16
      ],
      "matrix": [
        1.0,
        0.0,
        0.0,
        0.0,
        0.0,
        1.0,
        0.0,
        0.0,
        0.0,
        0.0,
        1.0,
        0.0,
        1.5,
        1.0,
        -0.005,
        1.0
      ],
      "extensions": {
        "HYPAR_info": {
          "id": "dfeedece-65a3-46ad-986d-7c1c50d2ad69"
        }
      }
    },
    {
      "mesh": 7
    }
  ],
  "scene": 0,
  "scenes": [
    {
      "nodes": [
        0
      ]
    }
  ]
}