{
  "extensionsUsed": [
    "KHR_materials_specular",
    "KHR_materials_ior",
    "KHR_materials_unlit",
    "HYPAR_info"
  ],
  "accessors": [
    {
      "bufferView": 0,
      "componentType": 5126,
      "count": 398,
      "type": "VEC3",
      "max": [
        0.23334524,
        0.23334524,
        0.075
      ],
      "min": [
        -0.05303301,
        -0.05303301,
        -0.075
      ]
    },
    {
      "bufferView": 1,
      "componentType": 5126,
      "count": 398,
      "type": "VEC3",
      "max": [
        0.70710677,
        0.70710677,
        0.98768836
      ],
      "min": [
        -0.70710677,
        -0.70710677,
        -0.98768836
      ]
    },
    {
      "bufferView": 2,
      "componentType": 5123,
      "count": 816,
      "type": "SCALAR",
      "max": [
        397.0
      ],
      "min": [
        0.0
      ]
    },
    {
      "bufferView": 3,
      "componentType": 5126,
      "count": 398,
      "type": "VEC2",
      "max": [
        0.31,
        0.075
      ],
      "min": [
        -0.31,
        -0.075
      ]
    },
    {
      "bufferView": 4,
      "componentType": 5126,
      "count": 812,
      "type": "VEC3",
      "max": [
        0.12020815,
        0.12020815,
        0.075
      ],
      "min": [
        -0.12020815,
        -0.12020815,
        -0.075
      ]
    },
    {
      "bufferView": 5,
      "componentType": 5126,
      "count": 812,
      "type": "VEC3",
      "max": [
        0.70710677,
        0.70710677,
        0.98768836
      ],
      "min": [
        -0.70710677,
        -0.70710677,
        -0.98768836
      ]
    },
    {
      "bufferView": 6,
      "componentType": 5123,
      "count": 1686,
      "type": "SCALAR",
      "max": [
        811.0
      ],
      "min": [
        0.0
      ]
    },
    {
      "bufferView": 7,
      "componentType": 5126,
      "count": 812,
      "type": "VEC2",
      "max": [
        0.15,
        0.075
      ],
      "min": [
        -0.15,
        -0.075
      ]
    },
    {
      "bufferView": 8,
      "componentType": 5126,
      "count": 120,
      "type": "VEC3",
      "max": [
        2.886863,
        2.886863,
        0.075
      ],
      "min": [
        0.16970563,
        0.16970563,
        -0.005
      ]
    },
    {
      "bufferView": 9,
      "componentType": 5126,
      "count": 120,
      "type": "VEC3",
      "max": [
        0.70710677,
        0.70710677,
        0.98768836
      ],
      "min": [
        -0.70710677,
        -0.70710677,
        -0.98768836
      ]
    },
    {
      "bufferView": 10,
      "componentType": 5123,
      "count": 228,
      "type": "SCALAR",
      "max": [
        119.0
      ],
      "min": [
        0.0
      ]
    },
    {
      "bufferView": 11,
      "componentType": 5126,
      "count": 120,
      "type": "VEC2",
      "max": [
        4.0426407,
        0.075
      ],
      "min": [
        -4.0426407,
        -0.005
      ]
    },
    {
      "bufferView": 12,
      "componentType": 5126,
      "count": 762,
      "type": "VEC3",
      "max": [
        0.039507534,
        0.039507534,
        0.31
      ],
      "min": [
        -0.2655635,
        -0.2655635,
        -0.04
      ]
    },
    {
      "bufferView": 13,
      "componentType": 5126,
      "count": 762,
      "type": "VEC3",
      "max": [
        1.0,
        1.0,
        1.0
      ],
      "min": [
        -1.0,
        -1.0,
        -1.0
      ]
    },
    {
      "bufferView": 14,
      "componentType": 5123,
      "count": 1530,
      "type": "SCALAR",
      "max": [
        761.0
      ],
      "min": [
        0.0
      ]
    },
    {
      "bufferView": 15,
      "componentType": 5126,
      "count": 762,
      "type": "VEC2",
      "max": [
        0.3555635,
        0.31
      ],
      "min": [
        -0.3555635,
        -0.04
      ]
    },
    {
      "bufferView": 16,
      "componentType": 5126,
      "count": 120,
      "type": "VEC3",
      "max": [
        3.04,
        3.0499418,
        0.42215902
      ],
      "min": [
        2.96,
        2.9600582,
        0.23284099
      ]
    },
    {
      "bufferView": 17,
      "componentType": 5126,
      "count": 120,
      "type": "VEC3",
      "max": [
        0.98768836,
        0.98624855,
        0.99854225
      ],
      "min": [
        -0.98768836,
        -0.98624855,
        -0.99854225
      ]
    },
    {
      "bufferView": 18,
      "componentType": 5123,
      "count": 228,
      "type": "SCALAR",
      "max": [
        119.0
      ],
      "min": [
        0.0
      ]
    },
    {
      "bufferView": 19,
      "componentType": 5126,
      "count": 120,
      "type": "VEC2",
      "max": [
        4.2559686,
        0.6141851
      ],
      "min": [
        -4.2559686,
        -3.0229425
      ]
    },
    {
      "bufferView": 20,
      "componentType": 5126,
      "count": 812,
      "type": "VEC3",
      "max": [
        0.05,
        0.05,
        0.15
      ],
      "min": [
        -0.05,
        -0.05,
        -0.15
      ]
    },
    {
      "bufferView": 21,
      "componentType": 5126,
      "count": 812,
      "type": "VEC3",
      "max": [
        0.98768836,
        0.98768836,
        1.0
      ],
      "min": [
        -0.98768836,
        -0.98768836,
        -1.0
      ]
    },
    {
      "bufferView": 22,
      "componentType": 5123,
      "count": 1683,
      "type": "SCALAR",
      "max": [
        811.0
      ],
      "min": [
        0.0
      ]
    },
    {
      "bufferView": 23,
      "componentType": 5126,
      "count": 812,
      "type": "VEC2",
      "max": [
        0.05,
        0.15
      ],
      "min": [
        -0.05,
        -0.15
      ]
    },
    {
      "bufferView": 24,
      "componentType": 5126,
      "count": 400,
      "type": "VEC3",
      "max": [
        0.08,
        0.08,
        4.440892E-16
      ],
      "min": [
        -0.08,
        -0.08,
        -0.31
      ]
    },
    {
      "bufferView": 25,
      "componentType": 5126,
      "count": 400,
      "type": "VEC3",
      "max": [
        0.98768836,
        0.98768836,
        1.0
      ],
      "min": [
        -0.98768836,
        -0.98768836,
        -1.0
      ]
    },
    {
      "bufferView": 26,
      "componentType": 5123,
      "count": 816,
      "type": "SCALAR",
      "max": [
        399.0
      ],
      "min": [
        0.0
      ]
    },
    {
      "bufferView": 27,
      "componentType": 5126,
      "count": 400,
      "type": "VEC2",
      "max": [
        0.08,
        0.08
      ],
      "min": [
        -0.08,
        -0.31
      ]
    }
  ],
  "asset": {
    "generator": "hypar-gltf",
    "version": "2.0"
  },
  "buffers": [
    {
      "uri": "LshapedFittingTreeTwoReducersAndReducerInVertical_0.bin",
      "byteLength": 123544
    }
  ],
  "bufferViews": [
    {
      "buffer": 0,
      "byteLength": 4776
    },
    {
      "buffer": 0,
      "byteOffset": 4776,
      "byteLength": 4776
    },
    {
      "buffer": 0,
      "byteOffset": 9552,
      "byteLength": 1632
    },
    {
      "buffer": 0,
      "byteOffset": 11184,
      "byteLength": 3184
    },
    {
      "buffer": 0,
      "byteOffset": 14368,
      "byteLength": 9744
    },
    {
      "buffer": 0,
      "byteOffset": 24112,
      "byteLength": 9744
    },
    {
      "buffer": 0,
      "byteOffset": 33856,
      "byteLength": 3372
    },
    {
      "buffer": 0,
      "byteOffset": 37228,
      "byteLength": 6496
    },
    {
      "buffer": 0,
      "byteOffset": 43724,
      "byteLength": 1440
    },
    {
      "buffer": 0,
      "byteOffset": 45164,
      "byteLength": 1440
    },
    {
      "buffer": 0,
      "byteOffset": 46604,
      "byteLength": 456
    },
    {
      "buffer": 0,
      "byteOffset": 47060,
      "byteLength": 960
    },
    {
      "buffer": 0,
      "byteOffset": 48020,
      "byteLength": 9144
    },
    {
      "buffer": 0,
      "byteOffset": 57164,
      "byteLength": 9144
    },
    {
      "buffer": 0,
      "byteOffset": 66308,
      "byteLength": 3060
    },
    {
      "buffer": 0,
      "byteOffset": 69368,
      "byteLength": 6096
    },
    {
      "buffer": 0,
      "byteOffset": 75464,
      "byteLength": 1440
    },
    {
      "buffer": 0,
      "byteOffset": 76904,
      "byteLength": 1440
    },
    {
      "buffer": 0,
      "byteOffset": 78344,
      "byteLength": 456
    },
    {
      "buffer": 0,
      "byteOffset": 78800,
      "byteLength": 960
    },
    {
      "buffer": 0,
      "byteOffset": 79760,
      "byteLength": 9744
    },
    {
      "buffer": 0,
      "byteOffset": 89504,
      "byteLength": 9744
    },
    {
      "buffer": 0,
      "byteOffset": 99248,
      "byteLength": 3366
    },
    {
      "buffer": 0,
      "byteOffset": 102616,
      "byteLength": 6496
    },
    {
      "buffer": 0,
      "byteOffset": 109112,
      "byteLength": 4800
    },
    {
      "buffer": 0,
      "byteOffset": 113912,
      "byteLength": 4800
    },
    {
      "buffer": 0,
      "byteOffset": 118712,
      "byteLength": 1632
    },
    {
      "buffer": 0,
      "byteOffset": 120344,
      "byteLength": 3200
    }
  ],
  "materials": [
    {
      "name": "31c8c2b1-d61c-ac46-8666-d651f50f0313",
      "extensions": {
        "KHR_materials_unlit": {}
      },
      "pbrMetallicRoughness": {
        "baseColorFactor": [
          1.0,
          0.0,
          0.0,
          0.3
        ],
        "metallicFactor": 0.0,
        "roughnessFactor": 0.0
      },
      "alphaMode": "BLEND"
    },
    {
      "name": "7298d643-9049-4a2b-960d-ae775b50fd80",
      "extensions": {
        "KHR_materials_specular": {
          "specularFactor": 0.0,
          "specularColorFactor": [
            1.0,
            1.0,
            1.0
          ]
        },
        "KHR_materials_ior": {
          "ior": 1000
        }
      },
      "pbrMetallicRoughness": {
        "baseColorFactor": [
          0.0,
          0.0,
          0.0,
          1.0
        ],
        "metallicFactor": 0.0
      }
    },
    {
      "name": "ac4653cf-2215-4377-887c-57383fd4bb4b",
      "extensions": {
        "KHR_materials_specular": {
          "specularFactor": 1.0,
          "specularColorFactor": [
            1.0,
            1.0,
            1.0
          ]
        },
        "KHR_materials_ior": {
          "ior": 1000
        }
      },
      "pbrMetallicRoughness": {
        "baseColorFactor": [
          0.0,
          0.13286832,
          0.13286832,
          0.4
        ],
        "metallicFactor": 0.0,
        "roughnessFactor": 0.0
      },
      "alphaMode": "BLEND"
    }
  ],
  "meshes": [
    {
      "primitives": [
        {
          "attributes": {
            "NORMAL": 1,
            "POSITION": 0,
            "TEXCOORD_0": 3
          },
          "indices": 2,
          "material": 0
        }
      ],
      "name": "8707e89f-7368-4c24-8e83-2ad144ca3ce6_mesh"
    },
    {
      "primitives": [
        {
          "attributes": {
            "NORMAL": 5,
            "POSITION": 4,
            "TEXCOORD_0": 7
          },
          "indices": 6,
          "material": 1
        }
      ],
      "name": "83ed6bee-d660-4c4d-ba98-c1953fa2c1aa_mesh"
    },
    {
      "primitives": [
        {
          "attributes": {
            "NORMAL": 9,
            "POSITION": 8,
            "TEXCOORD_0": 11
          },
          "indices": 10,
          "material": 2
        }
      ],
      "name": "2e8f7e4f-4213-4fc9-b64d-0bca85d64e65_mesh"
    },
    {
      "primitives": [
        {
          "attributes": {
            "NORMAL": 13,
            "POSITION": 12,
            "TEXCOORD_0": 15
          },
          "indices": 14,
          "material": 1
        }
      ],
      "name": "a0b532c1-99f5-4a6b-9d53-08541ae2beae_mesh"
    },
    {
      "primitives": [
        {
          "attributes": {
            "NORMAL": 17,
            "POSITION": 16,
            "TEXCOORD_0": 19
          },
          "indices": 18,
          "material": 2
        }
      ],
      "name": "46edfba1-8669-4ad8-ba84-43fdf10cb19b_mesh"
    },
    {
      "primitives": [
        {
          "attributes": {
            "NORMAL": 21,
            "POSITION": 20,
            "TEXCOORD_0": 23
          },
          "indices": 22,
          "material": 0
        }
      ],
      "name": "d9458393-e91d-4dbe-8f54-326051301e02_mesh"
    },
    {
      "primitives": [
        {
          "attributes": {
            "NORMAL": 25,
            "POSITION": 24,
            "TEXCOORD_0": 27
          },
          "indices": 26,
          "material": 0
        }
      ],
      "name": "eebe13d9-5db6-48b9-b567-8beaba722855_mesh"
    }
  ],
  "nodes": [
    {
      "children": [
        1,
        3,
        5,
        7,
        9,
        11,
        13
      ],
      "matrix": [
        1.0,
        0.0,
        0.0,
        0.0,
        0.0,
        6.123234E-17,
        -1.0,
        0.0,
        0.0,
        1.0,
        6.123234E-17,
        0.0,
        0.0,
        0.0,
        0.0,
        1.0
      ]
    },
    {
      "children": [
        2
      ],
      "extensions": {
        "HYPAR_info": {
          "id": "8707e89f-7368-4c24-8e83-2ad144ca3ce6"
        }
      }
    },
    {
      "mesh": 0
    },
    {
      "children": [
        4
      ],
      "matrix": [
        1.0,
        0.0,
        0.0,
        0.0,
        0.0,
        1.0,
        0.0,
        0.0,
        0.0,
        0.0,
        1.0,
        0.0,
        0.16970563,
        0.16970563,
        0.0,
        1.0
      ],
      "extensions": {
        "HYPAR_info": {
          "id": "83ed6bee-d660-4c4d-ba98-c1953fa2c1aa"
        }
      }
    },
    {
      "mesh": 1
    },
    {
      "children": [
        6
      ],
      "extensions": {
        "HYPAR_info": {
          "id": "2e8f7e4f-4213-4fc9-b64d-0bca85d64e65"
        }
      }
    },
    {
      "mesh": 2
    },
    {
      "children": [
        8
      ],
      "matrix": [
        1.0,
        0.0,
        0.0,
        0.0,
        0.0,
        1.0,
        0.0,
        0.0,
        0.0,
        0.0,
        1.0,
        0.0,
        3.0,
        3.0,
        0.035,
        1.0
      ],
      "extensions": {
        "HYPAR_info": {
          "id": "a0b532c1-99f5-4a6b-9d53-08541ae2beae"
        }
      }
    },
    {
      "mesh": 3
    },
    {
      "children": [
        10
      ],
      "extensions": {
        "HYPAR_info": {
          "id": "46edfba1-8669-4ad8-ba84-43fdf10cb19b"
        }
      }
    },
    {
      "mesh": 4
    },
    {
      "children": [
        12
      ],
      "matrix": [
        1.0,
        0.0,
        0.0,
        0.0,
        0.0,
        1.0,
        0.0,
        0.0,
        0.0,
        0.0,
        1.0,
        0.0,
        3.0,
        3.0,
        0.46,
        1.0
      ],
      "extensions": {
        "HYPAR_info": {
          "id": "d9458393-e91d-4dbe-8f54-326051301e02"
        }
      }
    },
    {
      "mesh": 5
    },
    {
      "children": [
        14
      ],
      "matrix": [
        1.0,
        0.0,
        0.0,
        0.0,
        0.0,
        1.0,
        0.0,
        0.0,
        0.0,
        0.0,
        1.0,
        0.0,
        3.0,
        3.0,
        1.0,
        1.0
      ],
      "extensions": {
        "HYPAR_info": {
          "id": "eebe13d9-5db6-48b9-b567-8beaba722855"
        }
      }
    },
    {
      "mesh": 6
    }
  ],
  "scene": 0,
  "scenes": [
    {
      "nodes": [
        0
      ]
    }
  ]
}