{
  "extensionsUsed": [
    "KHR_materials_specular",
    "KHR_materials_ior",
    "KHR_materials_unlit",
    "HYPAR_info",
    "HYPAR_representation_info"
  ],
  "accessors": [
    {
      "bufferView": 0,
      "componentType": 5126,
      "count": 400,
      "type": "VEC3",
      "max": [
        0.075,
        0.075,
        0.31
      ],
      "min": [
        -0.075,
        -0.075,
        0.0
      ]
    },
    {
      "bufferView": 1,
      "componentType": 5126,
      "count": 400,
      "type": "VEC3",
      "max": [
        0.98768836,
        0.98768836,
        1.0
      ],
      "min": [
        -0.98768836,
        -0.98768836,
        -1.0
      ]
    },
    {
      "bufferView": 2,
      "componentType": 5123,
      "count": 816,
      "type": "SCALAR",
      "max": [
        399.0
      ],
      "min": [
        0.0
      ]
    },
    {
      "bufferView": 3,
      "componentType": 5126,
      "count": 400,
      "type": "VEC2",
      "max": [
        0.075,
        0.31
      ],
      "min": [
        -0.075,
        -0.075
      ]
    },
    {
      "bufferView": 4,
      "componentType": 5126,
      "count": 120,
      "type": "VEC3",
      "max": [
        0.075,
        0.075,
        1.76
      ],
      "min": [
        -0.075,
        -0.075,
        0.2
      ]
    },
    {
      "bufferView": 5,
      "componentType": 5126,
      "count": 120,
      "type": "VEC3",
      "max": [
        0.98768836,
        0.98768836,
        1.0
      ],
      "min": [
        -0.98768836,
        -0.98768836,
        -1.0
      ]
    },
    {
      "bufferView": 6,
      "componentType": 5123,
      "count": 228,
      "type": "SCALAR",
      "max": [
        119.0
      ],
      "min": [
        0.0
      ]
    },
    {
      "bufferView": 7,
      "componentType": 5126,
      "count": 120,
      "type": "VEC2",
      "max": [
        0.075,
        1.76
      ],
      "min": [
        -0.075,
        -0.075
      ]
    },
    {
      "bufferView": 8,
      "componentType": 5126,
      "count": 680,
      "type": "VEC3",
      "max": [
        0.075,
        0.075,
        0.15
      ],
      "min": [
        -0.075,
        -0.075,
        -0.15
      ]
    },
    {
      "bufferView": 9,
      "componentType": 5126,
      "count": 680,
      "type": "VEC3",
      "max": [
        0.98768836,
        0.98768836,
        1.0
      ],
      "min": [
        -0.98768836,
        -0.98768836,
        -1.0
      ]
    },
    {
      "bufferView": 10,
      "componentType": 5123,
      "count": 1404,
      "type": "SCALAR",
      "max": [
        679.0
      ],
      "min": [
        0.0
      ]
    },
    {
      "bufferView": 11,
      "componentType": 5126,
      "count": 680,
      "type": "VEC2",
      "max": [
        0.075,
        0.15
      ],
      "min": [
        -0.075,
        -0.15
      ]
    },
    {
      "bufferView": 12,
      "componentType": 5126,
      "count": 120,
      "type": "VEC3",
      "max": [
        0.075,
        0.075,
        2.8
      ],
      "min": [
        -0.075,
        -0.075,
        1.84
      ]
    },
    {
      "bufferView": 13,
      "componentType": 5126,
      "count": 120,
      "type": "VEC3",
      "max": [
        0.98768836,
        0.98768836,
        1.0
      ],
      "min": [
        -0.98768836,
        -0.98768836,
        -1.0
      ]
    },
    {
      "bufferView": 14,
      "componentType": 5123,
      "count": 228,
      "type": "SCALAR",
      "max": [
        119.0
      ],
      "min": [
        0.0
      ]
    },
    {
      "bufferView": 15,
      "componentType": 5126,
      "count": 120,
      "type": "VEC2",
      "max": [
        0.075,
        2.8
      ],
      "min": [
        -0.075,
        -0.075
      ]
    },
    {
      "bufferView": 16,
      "componentType": 5126,
      "count": 400,
      "type": "VEC3",
      "max": [
        0.075,
        0.075,
        1.7763568E-15
      ],
      "min": [
        -0.075,
        -0.075,
        -0.31
      ]
    },
    {
      "bufferView": 17,
      "componentType": 5126,
      "count": 400,
      "type": "VEC3",
      "max": [
        0.98768836,
        0.98768836,
        1.0
      ],
      "min": [
        -0.98768836,
        -0.98768836,
        -1.0
      ]
    },
    {
      "bufferView": 18,
      "componentType": 5123,
      "count": 816,
      "type": "SCALAR",
      "max": [
        399.0
      ],
      "min": [
        0.0
      ]
    },
    {
      "bufferView": 19,
      "componentType": 5126,
      "count": 400,
      "type": "VEC2",
      "max": [
        0.075,
        0.075
      ],
      "min": [
        -0.075,
        -0.31
      ]
    }
  ],
  "asset": {
    "generator": "hypar-gltf",
    "version": "2.0"
  },
  "buffers": [
    {
      "uri": "VerticalFittingTreeSplit_0.bin",
      "byteLength": 62024
    }
  ],
  "bufferViews": [
    {
      "buffer": 0,
      "byteLength": 4800
    },
    {
      "buffer": 0,
      "byteOffset": 4800,
      "byteLength": 4800
    },
    {
      "buffer": 0,
      "byteOffset": 9600,
      "byteLength": 1632
    },
    {
      "buffer": 0,
      "byteOffset": 11232,
      "byteLength": 3200
    },
    {
      "buffer": 0,
      "byteOffset": 14432,
      "byteLength": 1440
    },
    {
      "buffer": 0,
      "byteOffset": 15872,
      "byteLength": 1440
    },
    {
      "buffer": 0,
      "byteOffset": 17312,
      "byteLength": 456
    },
    {
      "buffer": 0,
      "byteOffset": 17768,
      "byteLength": 960
    },
    {
      "buffer": 0,
      "byteOffset": 18728,
      "byteLength": 8160
    },
    {
      "buffer": 0,
      "byteOffset": 26888,
      "byteLength": 8160
    },
    {
      "buffer": 0,
      "byteOffset": 35048,
      "byteLength": 2808
    },
    {
      "buffer": 0,
      "byteOffset": 37856,
      "byteLength": 5440
    },
    {
      "buffer": 0,
      "byteOffset": 43296,
      "byteLength": 1440
    },
    {
      "buffer": 0,
      "byteOffset": 44736,
      "byteLength": 1440
    },
    {
      "buffer": 0,
      "byteOffset": 46176,
      "byteLength": 456
    },
    {
      "buffer": 0,
      "byteOffset": 46632,
      "byteLength": 960
    },
    {
      "buffer": 0,
      "byteOffset": 47592,
      "byteLength": 4800
    },
    {
      "buffer": 0,
      "byteOffset": 52392,
      "byteLength": 4800
    },
    {
      "buffer": 0,
      "byteOffset": 57192,
      "byteLength": 1632
    },
    {
      "buffer": 0,
      "byteOffset": 58824,
      "byteLength": 3200
    }
  ],
  "materials": [
    {
      "name": "31c8c2b1-d61c-ac46-8666-d651f50f0313",
      "extensions": {
        "KHR_materials_unlit": {}
      },
      "pbrMetallicRoughness": {
        "baseColorFactor": [
          1.0,
          0.0,
          0.0,
          0.3
        ],
        "metallicFactor": 0.0,
        "roughnessFactor": 0.0
      },
      "alphaMode": "BLEND"
    },
    {
      "name": "e7aa235b-49e9-42d0-b5fb-884a54e90d07",
      "extensions": {
        "KHR_materials_specular": {
          "specularFactor": 1.0,
          "specularColorFactor": [
            1.0,
            1.0,
            1.0
          ]
        },
        "KHR_materials_ior": {
          "ior": 1000
        }
      },
      "pbrMetallicRoughness": {
        "baseColorFactor": [
          0.0,
          0.13286832,
          0.13286832,
          0.4
        ],
        "metallicFactor": 0.0,
        "roughnessFactor": 0.0
      },
      "alphaMode": "BLEND"
    },
    {
      "name": "7298d643-9049-4a2b-960d-ae775b50fd80",
      "extensions": {
        "KHR_materials_specular": {
          "specularFactor": 0.0,
          "specularColorFactor": [
            1.0,
            1.0,
            1.0
          ]
        },
        "KHR_materials_ior": {
          "ior": 1000
        }
      },
      "pbrMetallicRoughness": {
        "baseColorFactor": [
          0.0,
          0.0,
          0.0,
          1.0
        ],
        "metallicFactor": 0.0
      }
    }
  ],
  "meshes": [
    {
      "primitives": [
        {
          "attributes": {
            "POSITION": 0,
            "NORMAL": 1,
            "TEXCOORD_0": 3
          },
          "indices": 2,
          "material": 0
        }
      ],
      "name": "975469a6-711c-435f-b407-a26cadf64d05_mesh"
    },
    {
      "primitives": [
        {
          "attributes": {
            "POSITION": 4,
            "NORMAL": 5,
            "TEXCOORD_0": 7
          },
          "indices": 6,
          "material": 1
        }
      ],
      "name": "b7a9eec5-e3be-4964-b997-7e20859da659_mesh"
    },
    {
      "primitives": [
        {
          "attributes": {
            "POSITION": 8,
            "NORMAL": 9,
            "TEXCOORD_0": 11
          },
          "indices": 10,
          "material": 2
        }
      ],
      "name": "f523bbce-377e-4458-980c-2f541453db90_mesh"
    },
    {
      "primitives": [
        {
          "attributes": {
            "POSITION": 12,
            "NORMAL": 13,
            "TEXCOORD_0": 15
          },
          "indices": 14,
          "material": 1
        }
      ],
      "name": "cca34bb5-4312-432d-b527-7a043826a66f_mesh"
    },
    {
      "primitives": [
        {
          "attributes": {
            "POSITION": 16,
            "NORMAL": 17,
            "TEXCOORD_0": 19
          },
          "indices": 18,
          "material": 0
        }
      ],
      "name": "708883d8-f5a5-48f6-83d6-ec4074c7b886_mesh"
    }
  ],
  "nodes": [
    {
      "children": [
        1,
        3,
        5,
        7,
        9
      ],
      "matrix": [
        1.0,
        0.0,
        0.0,
        0.0,
        0.0,
        6.123234E-17,
        -1.0,
        0.0,
        0.0,
        1.0,
        6.123234E-17,
        0.0,
        0.0,
        0.0,
        0.0,
        1.0
      ]
    },
    {
      "children": [
        2
      ],
      "extensions": {
        "HYPAR_info": {
          "id": "975469a6-711c-435f-b407-a26cadf64d05"
        }
      }
    },
    {
      "mesh": 0
    },
    {
      "children": [
        4
      ],
      "extensions": {
        "HYPAR_info": {
          "id": "b7a9eec5-e3be-4964-b997-7e20859da659"
        }
      }
    },
    {
      "mesh": 1
    },
    {
      "children": [
        6
      ],
      "matrix": [
        1.0,
        0.0,
        0.0,
        0.0,
        0.0,
        1.0,
        0.0,
        0.0,
        0.0,
        0.0,
        1.0,
        0.0,
        0.0,
        0.0,
        1.8,
        1.0
      ],
      "extensions": {
        "HYPAR_info": {
          "id": "f523bbce-377e-4458-980c-2f541453db90"
        }
      }
    },
    {
      "mesh": 2
    },
    {
      "children": [
        8
      ],
      "extensions": {
        "HYPAR_info": {
          "id": "cca34bb5-4312-432d-b527-7a043826a66f"
        }
      }
    },
    {
      "mesh": 3
    },
    {
      "children": [
        10
      ],
      "matrix": [
        1.0,
        0.0,
        0.0,
        0.0,
        0.0,
        1.0,
        0.0,
        0.0,
        0.0,
        0.0,
        1.0,
        0.0,
        0.0,
        0.0,
        3.0,
        1.0
      ],
      "extensions": {
        "HYPAR_info": {
          "id": "708883d8-f5a5-48f6-83d6-ec4074c7b886"
        }
      }
    },
    {
      "mesh": 4
    }
  ],
  "scene": 0,
  "scenes": [
    {
      "nodes": [
        0
      ]
    }
  ]
}