{
  "extensionsUsed": [
    "KHR_materials_specular",
    "KHR_materials_ior",
    "KHR_materials_unlit",
    "HYPAR_info",
    "HYPAR_representation_info"
  ],
  "accessors": [
    {
      "bufferView": 0,
      "componentType": 5126,
      "count": 400,
      "type": "VEC3",
      "max": [
        0.05,
        0.05,
        0.21
      ],
      "min": [
        -0.05,
        -0.05,
        0.0
      ]
    },
    {
      "bufferView": 1,
      "componentType": 5126,
      "count": 400,
      "type": "VEC3",
      "max": [
        0.98768836,
        0.98768836,
        1.0
      ],
      "min": [
        -0.98768836,
        -0.98768836,
        -1.0
      ]
    },
    {
      "bufferView": 2,
      "componentType": 5123,
      "count": 816,
      "type": "SCALAR",
      "max": [
        399.0
      ],
      "min": [
        0.0
      ]
    },
    {
      "bufferView": 3,
      "componentType": 5126,
      "count": 400,
      "type": "VEC2",
      "max": [
        0.05,
        0.21
      ],
      "min": [
        -0.05,
        -0.05
      ]
    },
    {
      "bufferView": 4,
      "componentType": 5126,
      "count": 120,
      "type": "VEC3",
      "max": [
        0.05,
        0.05,
        1.0
      ],
      "min": [
        -0.05,
        -0.05,
        0.1
      ]
    },
    {
      "bufferView": 5,
      "componentType": 5126,
      "count": 120,
      "type": "VEC3",
      "max": [
        0.98768836,
        0.98768836,
        1.0
      ],
      "min": [
        -0.98768836,
        -0.98768836,
        -1.0
      ]
    },
    {
      "bufferView": 6,
      "componentType": 5123,
      "count": 228,
      "type": "SCALAR",
      "max": [
        119.0
      ],
      "min": [
        0.0
      ]
    },
    {
      "bufferView": 7,
      "componentType": 5126,
      "count": 120,
      "type": "VEC2",
      "max": [
        0.05,
        1.0
      ],
      "min": [
        -0.05,
        -0.05
      ]
    },
    {
      "bufferView": 8,
      "componentType": 5126,
      "count": 812,
      "type": "VEC3",
      "max": [
        0.1,
        0.05,
        0.15
      ],
      "min": [
        -0.1,
        -0.15,
        -0.15
      ]
    },
    {
      "bufferView": 9,
      "componentType": 5126,
      "count": 812,
      "type": "VEC3",
      "max": [
        0.98768836,
        0.98768836,
        1.0
      ],
      "min": [
        -0.98768836,
        -0.98768836,
        -1.0
      ]
    },
    {
      "bufferView": 10,
      "componentType": 5123,
      "count": 1677,
      "type": "SCALAR",
      "max": [
        811.0
      ],
      "min": [
        0.0
      ]
    },
    {
      "bufferView": 11,
      "componentType": 5126,
      "count": 812,
      "type": "VEC2",
      "max": [
        0.1,
        0.15
      ],
      "min": [
        -0.1,
        -0.15
      ]
    },
    {
      "bufferView": 12,
      "componentType": 5126,
      "count": 120,
      "type": "VEC3",
      "max": [
        0.1,
        0.05,
        2.82
      ],
      "min": [
        -0.1,
        -0.15,
        1.08
      ]
    },
    {
      "bufferView": 13,
      "componentType": 5126,
      "count": 120,
      "type": "VEC3",
      "max": [
        0.98768836,
        0.98768836,
        1.0
      ],
      "min": [
        -0.98768836,
        -0.98768836,
        -1.0
      ]
    },
    {
      "bufferView": 14,
      "componentType": 5123,
      "count": 228,
      "type": "SCALAR",
      "max": [
        119.0
      ],
      "min": [
        0.0
      ]
    },
    {
      "bufferView": 15,
      "componentType": 5126,
      "count": 120,
      "type": "VEC2",
      "max": [
        0.1,
        2.82
      ],
      "min": [
        -0.1,
        -0.15
      ]
    },
    {
      "bufferView": 16,
      "componentType": 5126,
      "count": 814,
      "type": "VEC3",
      "max": [
        0.125,
        0.1,
        0.15
      ],
      "min": [
        -0.125,
        -0.15,
        -0.15
      ]
    },
    {
      "bufferView": 17,
      "componentType": 5126,
      "count": 814,
      "type": "VEC3",
      "max": [
        0.98768836,
        0.98768836,
        1.0
      ],
      "min": [
        -0.98768836,
        -0.98768836,
        -1.0
      ]
    },
    {
      "bufferView": 18,
      "componentType": 5123,
      "count": 1683,
      "type": "SCALAR",
      "max": [
        813.0
      ],
      "min": [
        0.0
      ]
    },
    {
      "bufferView": 19,
      "componentType": 5126,
      "count": 814,
      "type": "VEC2",
      "max": [
        0.125,
        0.15
      ],
      "min": [
        -0.125,
        -0.15
      ]
    },
    {
      "bufferView": 20,
      "componentType": 5126,
      "count": 400,
      "type": "VEC3",
      "max": [
        0.125,
        0.125,
        1.7763568E-15
      ],
      "min": [
        -0.125,
        -0.125,
        -0.21
      ]
    },
    {
      "bufferView": 21,
      "componentType": 5126,
      "count": 400,
      "type": "VEC3",
      "max": [
        0.98768836,
        0.98768836,
        1.0
      ],
      "min": [
        -0.98768836,
        -0.98768836,
        -1.0
      ]
    },
    {
      "bufferView": 22,
      "componentType": 5123,
      "count": 816,
      "type": "SCALAR",
      "max": [
        399.0
      ],
      "min": [
        0.0
      ]
    },
    {
      "bufferView": 23,
      "componentType": 5126,
      "count": 400,
      "type": "VEC2",
      "max": [
        0.125,
        0.125
      ],
      "min": [
        -0.125,
        -0.21
      ]
    }
  ],
  "asset": {
    "generator": "hypar-gltf",
    "version": "2.0"
  },
  "buffers": [
    {
      "uri": "VerticalFittingTreeCreation_0.bin",
      "byteLength": 96212
    }
  ],
  "bufferViews": [
    {
      "buffer": 0,
      "byteLength": 4800
    },
    {
      "buffer": 0,
      "byteOffset": 4800,
      "byteLength": 4800
    },
    {
      "buffer": 0,
      "byteOffset": 9600,
      "byteLength": 1632
    },
    {
      "buffer": 0,
      "byteOffset": 11232,
      "byteLength": 3200
    },
    {
      "buffer": 0,
      "byteOffset": 14432,
      "byteLength": 1440
    },
    {
      "buffer": 0,
      "byteOffset": 15872,
      "byteLength": 1440
    },
    {
      "buffer": 0,
      "byteOffset": 17312,
      "byteLength": 456
    },
    {
      "buffer": 0,
      "byteOffset": 17768,
      "byteLength": 960
    },
    {
      "buffer": 0,
      "byteOffset": 18728,
      "byteLength": 9744
    },
    {
      "buffer": 0,
      "byteOffset": 28472,
      "byteLength": 9744
    },
    {
      "buffer": 0,
      "byteOffset": 38216,
      "byteLength": 3354
    },
    {
      "buffer": 0,
      "byteOffset": 41572,
      "byteLength": 6496
    },
    {
      "buffer": 0,
      "byteOffset": 48068,
      "byteLength": 1440
    },
    {
      "buffer": 0,
      "byteOffset": 49508,
      "byteLength": 1440
    },
    {
      "buffer": 0,
      "byteOffset": 50948,
      "byteLength": 456
    },
    {
      "buffer": 0,
      "byteOffset": 51404,
      "byteLength": 960
    },
    {
      "buffer": 0,
      "byteOffset": 52364,
      "byteLength": 9768
    },
    {
      "buffer": 0,
      "byteOffset": 62132,
      "byteLength": 9768
    },
    {
      "buffer": 0,
      "byteOffset": 71900,
      "byteLength": 3366
    },
    {
      "buffer": 0,
      "byteOffset": 75268,
      "byteLength": 6512
    },
    {
      "buffer": 0,
      "byteOffset": 81780,
      "byteLength": 4800
    },
    {
      "buffer": 0,
      "byteOffset": 86580,
      "byteLength": 4800
    },
    {
      "buffer": 0,
      "byteOffset": 91380,
      "byteLength": 1632
    },
    {
      "buffer": 0,
      "byteOffset": 93012,
      "byteLength": 3200
    }
  ],
  "materials": [
    {
      "name": "7298d643-9049-4a2b-960d-ae775b50fd80",
      "extensions": {
        "KHR_materials_specular": {
          "specularFactor": 0.0,
          "specularColorFactor": [
            1.0,
            1.0,
            1.0
          ]
        },
        "KHR_materials_ior": {
          "ior": 1000
        }
      },
      "pbrMetallicRoughness": {
        "baseColorFactor": [
          0.0,
          0.0,
          0.0,
          1.0
        ],
        "metallicFactor": 0.0
      }
    },
    {
      "name": "e7aa235b-49e9-42d0-b5fb-884a54e90d07",
      "extensions": {
        "KHR_materials_specular": {
          "specularFactor": 1.0,
          "specularColorFactor": [
            1.0,
            1.0,
            1.0
          ]
        },
        "KHR_materials_ior": {
          "ior": 1000
        }
      },
      "pbrMetallicRoughness": {
        "baseColorFactor": [
          0.0,
          0.13286832,
          0.13286832,
          0.4
        ],
        "metallicFactor": 0.0,
        "roughnessFactor": 0.0
      },
      "alphaMode": "BLEND"
    }
  ],
  "meshes": [
    {
      "primitives": [
        {
          "attributes": {
            "POSITION": 0,
            "NORMAL": 1,
            "TEXCOORD_0": 3
          },
          "indices": 2,
          "material": 0
        }
      ],
      "name": "717ba780-9008-48fb-a9cf-00c4ecd86d99_mesh"
    },
    {
      "primitives": [
        {
          "attributes": {
            "POSITION": 4,
            "NORMAL": 5,
            "TEXCOORD_0": 7
          },
          "indices": 6,
          "material": 1
        }
      ],
      "name": "335626f8-fe38-49ec-80ff-3b942137cfb9_mesh"
    },
    {
      "primitives": [
        {
          "attributes": {
            "POSITION": 8,
            "NORMAL": 9,
            "TEXCOORD_0": 11
          },
          "indices": 10,
          "material": 0
        }
      ],
      "name": "561e5d7d-d585-497f-8371-5491c32202db_mesh"
    },
    {
      "primitives": [
        {
          "attributes": {
            "POSITION": 12,
            "NORMAL": 13,
            "TEXCOORD_0": 15
          },
          "indices": 14,
          "material": 1
        }
      ],
      "name": "08b38e05-bc18-4a6d-b474-548ac1d230b4_mesh"
    },
    {
      "primitives": [
        {
          "attributes": {
            "POSITION": 16,
            "NORMAL": 17,
            "TEXCOORD_0": 19
          },
          "indices": 18,
          "material": 0
        }
      ],
      "name": "1f7906a5-e3b7-4abd-a82e-9885c477bdac_mesh"
    },
    {
      "primitives": [
        {
          "attributes": {
            "POSITION": 20,
            "NORMAL": 21,
            "TEXCOORD_0": 23
          },
          "indices": 22,
          "material": 0
        }
      ],
      "name": "6d957816-aec7-418b-ba62-d88d767f2439_mesh"
    }
  ],
  "nodes": [
    {
      "children": [
        1,
        3,
        5,
        7,
        9,
        11
      ],
      "matrix": [
        1.0,
        0.0,
        0.0,
        0.0,
        0.0,
        6.123234E-17,
        -1.0,
        0.0,
        0.0,
        1.0,
        6.123234E-17,
        0.0,
        0.0,
        0.0,
        0.0,
        1.0
      ]
    },
    {
      "children": [
        2
      ],
      "extensions": {
        "HYPAR_info": {
          "id": "717ba780-9008-48fb-a9cf-00c4ecd86d99"
        }
      }
    },
    {
      "mesh": 0
    },
    {
      "children": [
        4
      ],
      "extensions": {
        "HYPAR_info": {
          "id": "335626f8-fe38-49ec-80ff-3b942137cfb9"
        }
      }
    },
    {
      "mesh": 1
    },
    {
      "children": [
        6
      ],
      "matrix": [
        1.0,
        0.0,
        0.0,
        0.0,
        0.0,
        1.0,
        0.0,
        0.0,
        0.0,
        0.0,
        1.0,
        0.0,
        0.0,
        0.0,
        1.04,
        1.0
      ],
      "extensions": {
        "HYPAR_info": {
          "id": "561e5d7d-d585-497f-8371-5491c32202db"
        }
      }
    },
    {
      "mesh": 2
    },
    {
      "children": [
        8
      ],
      "extensions": {
        "HYPAR_info": {
          "id": "08b38e05-bc18-4a6d-b474-548ac1d230b4"
        }
      }
    },
    {
      "mesh": 3
    },
    {
      "children": [
        10
      ],
      "matrix": [
        1.0,
        0.0,
        0.0,
        0.0,
        0.0,
        1.0,
        0.0,
        0.0,
        0.0,
        0.0,
        1.0,
        0.0,
        0.0,
        -0.05,
        2.86,
        1.0
      ],
      "extensions": {
        "HYPAR_info": {
          "id": "1f7906a5-e3b7-4abd-a82e-9885c477bdac"
        }
      }
    },
    {
      "mesh": 4
    },
    {
      "children": [
        12
      ],
      "matrix": [
        1.0,
        0.0,
        0.0,
        0.0,
        0.0,
        1.0,
        0.0,
        0.0,
        0.0,
        0.0,
        1.0,
        0.0,
        0.0,
        -0.075,
        3.0,
        1.0
      ],
      "extensions": {
        "HYPAR_info": {
          "id": "6d957816-aec7-418b-ba62-d88d767f2439"
        }
      }
    },
    {
      "mesh": 5
    }
  ],
  "scene": 0,
  "scenes": [
    {
      "nodes": [
        0
      ]
    }
  ]
}