{
    "extensionsUsed": [
        "KHR_materials_pbrSpecularGlossiness",
        "KHR_materials_unlit",
        "KHR_lights_punctual"
    ],
    "accessors": [
        {
            "bufferView": 0,
            "componentType": 5126,
            "count": 24,
            "type": "VEC3",
            "max": [
                1.0,
                2.0,
                3.0
            ],
            "min": [
                0.0,
                0.0,
                0.0
            ]
        },
        {
            "bufferView": 1,
            "componentType": 5126,
            "count": 24,
            "type": "VEC3",
            "max": [
                1.0,
                1.0,
                1.0
            ],
            "min": [
                -1.0,
                -1.0,
                -1.0
            ]
        },
        {
            "bufferView": 2,
            "componentType": 5123,
            "count": 36,
            "type": "SCALAR",
            "max": [
                23.0
            ],
            "min": [
                0.0
            ]
        },
        {
            "bufferView": 3,
            "componentType": 5126,
            "count": 24,
            "type": "VEC2",
            "max": [
                0.0,
                0.0
            ],
            "min": [
                0.0,
                0.0
            ]
        },
        {
            "bufferView": 4,
            "componentType": 5123,
            "count": 12636,
            "type": "SCALAR",
            "max": [
                2398.0
            ],
            "min": [
                0.0
            ]
        },
        {
            "bufferView": 5,
            "componentType": 5126,
            "count": 2399,
            "type": "VEC3",
            "max": [
                0.999599,
                0.999581,
                0.998436
            ],
            "min": [
                -0.999084,
                -1.0,
                -0.999832
            ]
        },
        {
            "bufferView": 5,
            "byteOffset": 28788,
            "componentType": 5126,
            "count": 2399,
            "type": "VEC3",
            "max": [
                96.1799,
                163.97,
                53.925198
            ],
            "min": [
                -69.2985,
                9.92937,
                -61.328197
            ]
        },
        {
            "bufferView": 6,
            "componentType": 5126,
            "count": 2399,
            "type": "VEC2",
            "max": [
                0.983346,
                0.980037
            ],
            "min": [
                0.026409,
                0.019963026
            ]
        }
    ],
    "asset": {
        "generator": "hypar-gltf",
        "version": "2.0"
    },
    "buffers": [
        {
            "uri": "GltfTestResult_0.bin",
            "byteLength": 840
        },
        {
            "uri": "GltfTestResult_1.bin",
            "byteLength": 118342
        }
    ],
    "bufferViews": [
        {
            "buffer": 0,
            "byteLength": 288
        },
        {
            "buffer": 0,
            "byteOffset": 288,
            "byteLength": 288
        },
        {
            "buffer": 0,
            "byteOffset": 576,
            "byteLength": 72
        },
        {
            "buffer": 0,
            "byteOffset": 648,
            "byteLength": 192
        },
        {
            "buffer": 1,
            "byteOffset": 76768,
            "byteLength": 25272,
            "target": 34963
        },
        {
            "buffer": 1,
            "byteLength": 57576,
            "byteStride": 12,
            "target": 34962
        },
        {
            "buffer": 1,
            "byteOffset": 57576,
            "byteLength": 19192,
            "byteStride": 8,
            "target": 34962
        },
        {
            "buffer": 1,
            "byteOffset": 102040,
            "byteLength": 16302
        }
    ],
    "materials": [
        {
            "name": "default",
            "extensions": {
                "KHR_materials_pbrSpecularGlossiness": {
                    "diffuseFactor": [
                        1.0,
                        1.0,
                        1.0,
                        1.0
                    ],
                    "specularFactor": [
                        0.0,
                        0.0,
                        0.0
                    ],
                    "glossinessFactor": 0.0
                }
            },
            "pbrMetallicRoughness": {}
        }
    ],
    "meshes": [
        {
            "primitives": [
                {
                    "attributes": {
                        "NORMAL": 1,
                        "POSITION": 0,
                        "TEXCOORD_0": 3
                    },
                    "indices": 2,
                    "material": 0
                }
            ],
            "name": "04cbd3e5-ba76-40c0-bdf7-8248397f724a_mesh"
        },
        {
            "primitives": [
                {
                    "attributes": {
                        "NORMAL": 5,
                        "POSITION": 6,
                        "TEXCOORD_0": 7
                    },
                    "indices": 4,
                    "material": 0
                }
            ],
            "name": "LOD3spShape"
        }
    ],
    "nodes": [
        {
            "children": [
                1,
                2
            ],
            "matrix": [
                1.0,
                0.0,
                0.0,
                0.0,
                0.0,
                6.123234E-17,
                -1.0,
                0.0,
                0.0,
                1.0,
                6.123234E-17,
                0.0,
                0.0,
                0.0,
                0.0,
                1.0
            ]
        },
        {
            "mesh": 0
        },
        {
            "children": [
                3
            ],
            "matrix": [
                0.01,
                0.0,
                0.0,
                0.0,
                0.0,
                0.0,
                0.01,
                0.0,
                -0.0,
                -0.01,
                -0.0,
                0.0,
                0.0,
                0.0,
                0.0,
                1.0
            ]
        },
        {
            "mesh": 1
        }
    ],
    "scene": 0,
    "scenes": [
        {
            "nodes": [
                0
            ]
        }
    ],
    "extensions": {
        "KHR_lights_punctual": {
            "lights": []
        }
    }
}