{
  "extensionsUsed": [
    "KHR_materials_specular",
    "KHR_materials_ior",
    "KHR_materials_unlit",
    "HYPAR_info",
    "HYPAR_representation_info"
  ],
  "accessors": [
    {
      "bufferView": 0,
      "componentType": 5126,
      "count": 398,
      "type": "VEC3",
      "max": [
        0.23334524,
        0.23334524,
        0.025
      ],
      "min": [
        -0.01767767,
        -0.01767767,
        -0.025
      ]
    },
    {
      "bufferView": 1,
      "componentType": 5126,
      "count": 398,
      "type": "VEC3",
      "max": [
        0.70710677,
        0.70710677,
        0.98768836
      ],
      "min": [
        -0.70710677,
        -0.70710677,
        -0.98768836
      ]
    },
    {
      "bufferView": 2,
      "componentType": 5123,
      "count": 816,
      "type": "SCALAR",
      "max": [
        397.0
      ],
      "min": [
        0.0
      ]
    },
    {
      "bufferView": 3,
      "componentType": 5126,
      "count": 398,
      "type": "VEC2",
      "max": [
        0.31,
        0.025
      ],
      "min": [
        -0.31,
        -0.025
      ]
    },
    {
      "bufferView": 4,
      "componentType": 5126,
      "count": 813,
      "type": "VEC3",
      "max": [
        0.12020815,
        0.12020815,
        0.025
      ],
      "min": [
        -0.12020815,
        -0.12020815,
        -0.075
      ]
    },
    {
      "bufferView": 5,
      "componentType": 5126,
      "count": 813,
      "type": "VEC3",
      "max": [
        0.70710677,
        0.70710677,
        0.98768836
      ],
      "min": [
        -0.70710677,
        -0.70710677,
        -0.98768836
      ]
    },
    {
      "bufferView": 6,
      "componentType": 5123,
      "count": 1686,
      "type": "SCALAR",
      "max": [
        812.0
      ],
      "min": [
        0.0
      ]
    },
    {
      "bufferView": 7,
      "componentType": 5126,
      "count": 813,
      "type": "VEC2",
      "max": [
        0.15,
        0.025
      ],
      "min": [
        -0.15,
        -0.075
      ]
    },
    {
      "bufferView": 8,
      "componentType": 5126,
      "count": 120,
      "type": "VEC3",
      "max": [
        2.8373654,
        2.8373654,
        0.025
      ],
      "min": [
        0.16263457,
        0.16263457,
        -0.075
      ]
    },
    {
      "bufferView": 9,
      "componentType": 5126,
      "count": 120,
      "type": "VEC3",
      "max": [
        0.70710677,
        0.70710677,
        0.98768836
      ],
      "min": [
        -0.70710677,
        -0.70710677,
        -0.98768836
      ]
    },
    {
      "bufferView": 10,
      "componentType": 5123,
      "count": 228,
      "type": "SCALAR",
      "max": [
        119.0
      ],
      "min": [
        0.0
      ]
    },
    {
      "bufferView": 11,
      "componentType": 5126,
      "count": 120,
      "type": "VEC2",
      "max": [
        3.9626408,
        0.025
      ],
      "min": [
        -3.9626408,
        -0.075
      ]
    },
    {
      "bufferView": 12,
      "componentType": 5126,
      "count": 812,
      "type": "VEC3",
      "max": [
        0.12020815,
        0.12020815,
        0.05
      ],
      "min": [
        -0.12020815,
        -0.12020815,
        -0.05
      ]
    },
    {
      "bufferView": 13,
      "componentType": 5126,
      "count": 812,
      "type": "VEC3",
      "max": [
        0.70710677,
        0.70710677,
        0.98768836
      ],
      "min": [
        -0.70710677,
        -0.70710677,
        -0.98768836
      ]
    },
    {
      "bufferView": 14,
      "componentType": 5123,
      "count": 1686,
      "type": "SCALAR",
      "max": [
        811.0
      ],
      "min": [
        0.0
      ]
    },
    {
      "bufferView": 15,
      "componentType": 5126,
      "count": 812,
      "type": "VEC2",
      "max": [
        0.15,
        0.05
      ],
      "min": [
        -0.15,
        -0.05
      ]
    },
    {
      "bufferView": 16,
      "componentType": 5126,
      "count": 398,
      "type": "VEC3",
      "max": [
        0.01767767,
        0.01767767,
        0.025
      ],
      "min": [
        -0.23334524,
        -0.23334524,
        -0.025
      ]
    },
    {
      "bufferView": 17,
      "componentType": 5126,
      "count": 398,
      "type": "VEC3",
      "max": [
        0.70710677,
        0.70710677,
        0.98768836
      ],
      "min": [
        -0.70710677,
        -0.70710677,
        -0.98768836
      ]
    },
    {
      "bufferView": 18,
      "componentType": 5123,
      "count": 816,
      "type": "SCALAR",
      "max": [
        397.0
      ],
      "min": [
        0.0
      ]
    },
    {
      "bufferView": 19,
      "componentType": 5126,
      "count": 398,
      "type": "VEC2",
      "max": [
        0.31,
        0.025
      ],
      "min": [
        -0.31,
        -0.025
      ]
    }
  ],
  "asset": {
    "generator": "hypar-gltf",
    "version": "2.0"
  },
  "buffers": [
    {
      "uri": "RemoveReducerBefore_0.bin",
      "byteLength": 91776
    }
  ],
  "bufferViews": [
    {
      "buffer": 0,
      "byteLength": 4776
    },
    {
      "buffer": 0,
      "byteOffset": 4776,
      "byteLength": 4776
    },
    {
      "buffer": 0,
      "byteOffset": 9552,
      "byteLength": 1632
    },
    {
      "buffer": 0,
      "byteOffset": 11184,
      "byteLength": 3184
    },
    {
      "buffer": 0,
      "byteOffset": 14368,
      "byteLength": 9756
    },
    {
      "buffer": 0,
      "byteOffset": 24124,
      "byteLength": 9756
    },
    {
      "buffer": 0,
      "byteOffset": 33880,
      "byteLength": 3372
    },
    {
      "buffer": 0,
      "byteOffset": 37252,
      "byteLength": 6504
    },
    {
      "buffer": 0,
      "byteOffset": 43756,
      "byteLength": 1440
    },
    {
      "buffer": 0,
      "byteOffset": 45196,
      "byteLength": 1440
    },
    {
      "buffer": 0,
      "byteOffset": 46636,
      "byteLength": 456
    },
    {
      "buffer": 0,
      "byteOffset": 47092,
      "byteLength": 960
    },
    {
      "buffer": 0,
      "byteOffset": 48052,
      "byteLength": 9744
    },
    {
      "buffer": 0,
      "byteOffset": 57796,
      "byteLength": 9744
    },
    {
      "buffer": 0,
      "byteOffset": 67540,
      "byteLength": 3372
    },
    {
      "buffer": 0,
      "byteOffset": 70912,
      "byteLength": 6496
    },
    {
      "buffer": 0,
      "byteOffset": 77408,
      "byteLength": 4776
    },
    {
      "buffer": 0,
      "byteOffset": 82184,
      "byteLength": 4776
    },
    {
      "buffer": 0,
      "byteOffset": 86960,
      "byteLength": 1632
    },
    {
      "buffer": 0,
      "byteOffset": 88592,
      "byteLength": 3184
    }
  ],
  "materials": [
    {
      "name": "31c8c2b1-d61c-ac46-8666-d651f50f0313",
      "extensions": {
        "KHR_materials_unlit": {}
      },
      "pbrMetallicRoughness": {
        "baseColorFactor": [
          1.0,
          0.0,
          0.0,
          0.3
        ],
        "metallicFactor": 0.0,
        "roughnessFactor": 0.0
      },
      "alphaMode": "BLEND"
    },
    {
      "name": "7298d643-9049-4a2b-960d-ae775b50fd80",
      "extensions": {
        "KHR_materials_specular": {
          "specularFactor": 0.0,
          "specularColorFactor": [
            1.0,
            1.0,
            1.0
          ]
        },
        "KHR_materials_ior": {
          "ior": 1000
        }
      },
      "pbrMetallicRoughness": {
        "baseColorFactor": [
          0.0,
          0.0,
          0.0,
          1.0
        ],
        "metallicFactor": 0.0
      }
    },
    {
      "name": "e7aa235b-49e9-42d0-b5fb-884a54e90d07",
      "extensions": {
        "KHR_materials_specular": {
          "specularFactor": 1.0,
          "specularColorFactor": [
            1.0,
            1.0,
            1.0
          ]
        },
        "KHR_materials_ior": {
          "ior": 1000
        }
      },
      "pbrMetallicRoughness": {
        "baseColorFactor": [
          0.0,
          0.13286832,
          0.13286832,
          0.4
        ],
        "metallicFactor": 0.0,
        "roughnessFactor": 0.0
      },
      "alphaMode": "BLEND"
    }
  ],
  "meshes": [
    {
      "primitives": [
        {
          "attributes": {
            "POSITION": 0,
            "NORMAL": 1,
            "TEXCOORD_0": 3
          },
          "indices": 2,
          "material": 0
        }
      ],
      "name": "87ca7578-b601-4e96-8bdd-b38b2450bcd5_mesh"
    },
    {
      "primitives": [
        {
          "attributes": {
            "POSITION": 4,
            "NORMAL": 5,
            "TEXCOORD_0": 7
          },
          "indices": 6,
          "material": 1
        }
      ],
      "name": "adf9b2a2-4571-4fa9-9292-e3c96ad2dd92_mesh"
    },
    {
      "primitives": [
        {
          "attributes": {
            "POSITION": 8,
            "NORMAL": 9,
            "TEXCOORD_0": 11
          },
          "indices": 10,
          "material": 2
        }
      ],
      "name": "ace18f28-e5d4-4a9e-8980-6c2851c2e879_mesh"
    },
    {
      "primitives": [
        {
          "attributes": {
            "POSITION": 12,
            "NORMAL": 13,
            "TEXCOORD_0": 15
          },
          "indices": 14,
          "material": 1
        }
      ],
      "name": "a02ef8b0-8d7c-4982-b601-9673d13a6c03_mesh"
    },
    {
      "primitives": [
        {
          "attributes": {
            "POSITION": 16,
            "NORMAL": 17,
            "TEXCOORD_0": 19
          },
          "indices": 18,
          "material": 0
        }
      ],
      "name": "9133a12b-7f37-4d53-b22b-0121bdcffa40_mesh"
    }
  ],
  "nodes": [
    {
      "children": [
        1,
        3,
        5,
        7,
        9
      ],
      "matrix": [
        1.0,
        0.0,
        0.0,
        0.0,
        0.0,
        6.123234E-17,
        -1.0,
        0.0,
        0.0,
        1.0,
        6.123234E-17,
        0.0,
        0.0,
        0.0,
        0.0,
        1.0
      ]
    },
    {
      "children": [
        2
      ],
      "extensions": {
        "HYPAR_info": {
          "id": "87ca7578-b601-4e96-8bdd-b38b2450bcd5"
        }
      }
    },
    {
      "mesh": 0
    },
    {
      "children": [
        4
      ],
      "matrix": [
        1.0,
        0.0,
        0.0,
        0.0,
        0.0,
        1.0,
        0.0,
        0.0,
        0.0,
        0.0,
        1.0,
        0.0,
        0.16970563,
        0.16970563,
        0.0,
        1.0
      ],
      "extensions": {
        "HYPAR_info": {
          "id": "adf9b2a2-4571-4fa9-9292-e3c96ad2dd92"
        }
      }
    },
    {
      "mesh": 1
    },
    {
      "children": [
        6
      ],
      "extensions": {
        "HYPAR_info": {
          "id": "ace18f28-e5d4-4a9e-8980-6c2851c2e879"
        }
      }
    },
    {
      "mesh": 2
    },
    {
      "children": [
        8
      ],
      "matrix": [
        1.0,
        0.0,
        0.0,
        0.0,
        0.0,
        1.0,
        0.0,
        0.0,
        0.0,
        0.0,
        1.0,
        0.0,
        2.8302944,
        2.8302944,
        -0.025,
        1.0
      ],
      "extensions": {
        "HYPAR_info": {
          "id": "a02ef8b0-8d7c-4982-b601-9673d13a6c03"
        }
      }
    },
    {
      "mesh": 3
    },
    {
      "children": [
        10
      ],
      "matrix": [
        1.0,
        0.0,
        0.0,
        0.0,
        0.0,
        1.0,
        0.0,
        0.0,
        0.0,
        0.0,
        1.0,
        0.0,
        3.0,
        3.0,
        0.0,
        1.0
      ],
      "extensions": {
        "HYPAR_info": {
          "id": "9133a12b-7f37-4d53-b22b-0121bdcffa40"
        }
      }
    },
    {
      "mesh": 4
    }
  ],
  "scene": 0,
  "scenes": [
    {
      "nodes": [
        0
      ]
    }
  ]
}