{
  "extensionsUsed": [
    "KHR_materials_specular",
    "KHR_materials_ior",
    "KHR_materials_unlit",
    "HYPAR_info",
    "HYPAR_representation_info"
  ],
  "accessors": [
    {
      "bufferView": 0,
      "componentType": 5126,
      "count": 120,
      "type": "VEC3",
      "max": [
        0.15909903,
        0.15909903,
        0.025
      ],
      "min": [
        -0.01767767,
        -0.01767767,
        -0.025
      ]
    },
    {
      "bufferView": 1,
      "componentType": 5126,
      "count": 120,
      "type": "VEC3",
      "max": [
        0.70710677,
        0.70710677,
        0.98768836
      ],
      "min": [
        -0.70710677,
        -0.70710677,
        -0.98768836
      ]
    },
    {
      "bufferView": 2,
      "componentType": 5123,
      "count": 228,
      "type": "SCALAR",
      "max": [
        119.0
      ],
      "min": [
        0.0
      ]
    },
    {
      "bufferView": 3,
      "componentType": 5126,
      "count": 120,
      "type": "VEC2",
      "max": [
        0.2,
        0.025
      ],
      "min": [
        -0.2,
        -0.025
      ]
    },
    {
      "bufferView": 4,
      "componentType": 5126,
      "count": 120,
      "type": "VEC3",
      "max": [
        2.8762562,
        2.8762562,
        0.025
      ],
      "min": [
        0.12374368,
        0.12374368,
        -0.025
      ]
    },
    {
      "bufferView": 5,
      "componentType": 5126,
      "count": 120,
      "type": "VEC3",
      "max": [
        0.70710677,
        0.70710677,
        0.98768836
      ],
      "min": [
        -0.70710677,
        -0.70710677,
        -0.98768836
      ]
    },
    {
      "bufferView": 6,
      "componentType": 5123,
      "count": 228,
      "type": "SCALAR",
      "max": [
        119.0
      ],
      "min": [
        0.0
      ]
    },
    {
      "bufferView": 7,
      "componentType": 5126,
      "count": 120,
      "type": "VEC2",
      "max": [
        4.0426407,
        0.025
      ],
      "min": [
        -4.0426407,
        -0.025
      ]
    },
    {
      "bufferView": 8,
      "componentType": 5126,
      "count": 120,
      "type": "VEC3",
      "max": [
        0.01767767,
        0.01767767,
        0.025
      ],
      "min": [
        -0.15909903,
        -0.15909903,
        -0.025
      ]
    },
    {
      "bufferView": 9,
      "componentType": 5126,
      "count": 120,
      "type": "VEC3",
      "max": [
        0.70710677,
        0.70710677,
        0.98768836
      ],
      "min": [
        -0.70710677,
        -0.70710677,
        -0.98768836
      ]
    },
    {
      "bufferView": 10,
      "componentType": 5123,
      "count": 228,
      "type": "SCALAR",
      "max": [
        119.0
      ],
      "min": [
        0.0
      ]
    },
    {
      "bufferView": 11,
      "componentType": 5126,
      "count": 120,
      "type": "VEC2",
      "max": [
        0.2,
        0.025
      ],
      "min": [
        -0.2,
        -0.025
      ]
    }
  ],
  "asset": {
    "generator": "hypar-gltf",
    "version": "2.0"
  },
  "buffers": [
    {
      "uri": "RemoveSplit_0.bin",
      "byteLength": 12888
    }
  ],
  "bufferViews": [
    {
      "buffer": 0,
      "byteLength": 1440
    },
    {
      "buffer": 0,
      "byteOffset": 1440,
      "byteLength": 1440
    },
    {
      "buffer": 0,
      "byteOffset": 2880,
      "byteLength": 456
    },
    {
      "buffer": 0,
      "byteOffset": 3336,
      "byteLength": 960
    },
    {
      "buffer": 0,
      "byteOffset": 4296,
      "byteLength": 1440
    },
    {
      "buffer": 0,
      "byteOffset": 5736,
      "byteLength": 1440
    },
    {
      "buffer": 0,
      "byteOffset": 7176,
      "byteLength": 456
    },
    {
      "buffer": 0,
      "byteOffset": 7632,
      "byteLength": 960
    },
    {
      "buffer": 0,
      "byteOffset": 8592,
      "byteLength": 1440
    },
    {
      "buffer": 0,
      "byteOffset": 10032,
      "byteLength": 1440
    },
    {
      "buffer": 0,
      "byteOffset": 11472,
      "byteLength": 456
    },
    {
      "buffer": 0,
      "byteOffset": 11928,
      "byteLength": 960
    }
  ],
  "materials": [
    {
      "name": "31c8c2b1-d61c-ac46-8666-d651f50f0313",
      "extensions": {
        "KHR_materials_unlit": {}
      },
      "pbrMetallicRoughness": {
        "baseColorFactor": [
          1.0,
          0.0,
          0.0,
          0.3
        ],
        "metallicFactor": 0.0,
        "roughnessFactor": 0.0
      },
      "alphaMode": "BLEND"
    },
    {
      "name": "e7aa235b-49e9-42d0-b5fb-884a54e90d07",
      "extensions": {
        "KHR_materials_specular": {
          "specularFactor": 1.0,
          "specularColorFactor": [
            1.0,
            1.0,
            1.0
          ]
        },
        "KHR_materials_ior": {
          "ior": 1000
        }
      },
      "pbrMetallicRoughness": {
        "baseColorFactor": [
          0.0,
          0.13286832,
          0.13286832,
          0.4
        ],
        "metallicFactor": 0.0,
        "roughnessFactor": 0.0
      },
      "alphaMode": "BLEND"
    }
  ],
  "meshes": [
    {
      "primitives": [
        {
          "attributes": {
            "POSITION": 0,
            "NORMAL": 1,
            "TEXCOORD_0": 3
          },
          "indices": 2,
          "material": 0
        }
      ],
      "name": "e2631c59-4160-4ff7-88d9-8214aef6d28d_mesh"
    },
    {
      "primitives": [
        {
          "attributes": {
            "POSITION": 4,
            "NORMAL": 5,
            "TEXCOORD_0": 7
          },
          "indices": 6,
          "material": 1
        }
      ],
      "name": "d6925b58-ed95-424e-9467-7c37e3976652_mesh"
    },
    {
      "primitives": [
        {
          "attributes": {
            "POSITION": 8,
            "NORMAL": 9,
            "TEXCOORD_0": 11
          },
          "indices": 10,
          "material": 0
        }
      ],
      "name": "d9626023-b7e7-43f4-afb3-b724fb8e71e3_mesh"
    }
  ],
  "nodes": [
    {
      "children": [
        1,
        3,
        5
      ],
      "matrix": [
        1.0,
        0.0,
        0.0,
        0.0,
        0.0,
        6.123234E-17,
        -1.0,
        0.0,
        0.0,
        1.0,
        6.123234E-17,
        0.0,
        0.0,
        0.0,
        0.0,
        1.0
      ]
    },
    {
      "children": [
        2
      ],
      "extensions": {
        "HYPAR_info": {
          "id": "e2631c59-4160-4ff7-88d9-8214aef6d28d"
        }
      }
    },
    {
      "mesh": 0
    },
    {
      "children": [
        4
      ],
      "extensions": {
        "HYPAR_info": {
          "id": "d6925b58-ed95-424e-9467-7c37e3976652"
        }
      }
    },
    {
      "mesh": 1
    },
    {
      "children": [
        6
      ],
      "matrix": [
        1.0,
        0.0,
        0.0,
        0.0,
        0.0,
        1.0,
        0.0,
        0.0,
        0.0,
        0.0,
        1.0,
        0.0,
        3.0,
        3.0,
        0.0,
        1.0
      ],
      "extensions": {
        "HYPAR_info": {
          "id": "d9626023-b7e7-43f4-afb3-b724fb8e71e3"
        }
      }
    },
    {
      "mesh": 2
    }
  ],
  "scene": 0,
  "scenes": [
    {
      "nodes": [
        0
      ]
    }
  ]
}