{
  "extensionsUsed": [
    "KHR_materials_specular",
    "KHR_materials_ior",
    "KHR_materials_unlit",
    "HYPAR_info"
  ],
  "accessors": [
    {
      "bufferView": 0,
      "componentType": 5126,
      "count": 754,
      "type": "VEC3",
      "max": [
        0.31,
        0.31,
        0.05
      ],
      "min": [
        -0.05,
        -0.05,
        -0.05
      ]
    },
    {
      "bufferView": 1,
      "componentType": 5126,
      "count": 754,
      "type": "VEC3",
      "max": [
        1.0,
        1.0,
        0.98768836
      ],
      "min": [
        -1.0,
        -1.0,
        -0.98768836
      ]
    },
    {
      "bufferView": 2,
      "componentType": 5123,
      "count": 1524,
      "type": "SCALAR",
      "max": [
        753.0
      ],
      "min": [
        0.0
      ]
    },
    {
      "bufferView": 3,
      "componentType": 5126,
      "count": 754,
      "type": "VEC2",
      "max": [
        0.31,
        0.05
      ],
      "min": [
        -0.31,
        -0.05
      ]
    }
  ],
  "asset": {
    "generator": "hypar-gltf",
    "version": "2.0"
  },
  "buffers": [
    {
      "uri": "MakeElbowWithZeroBendRadius_0.bin",
      "byteLength": 27176
    }
  ],
  "bufferViews": [
    {
      "buffer": 0,
      "byteLength": 9048
    },
    {
      "buffer": 0,
      "byteOffset": 9048,
      "byteLength": 9048
    },
    {
      "buffer": 0,
      "byteOffset": 18096,
      "byteLength": 3048
    },
    {
      "buffer": 0,
      "byteOffset": 21144,
      "byteLength": 6032
    }
  ],
  "materials": [
    {
      "name": "7298d643-9049-4a2b-960d-ae775b50fd80",
      "extensions": {
        "KHR_materials_specular": {
          "specularFactor": 0.0,
          "specularColorFactor": [
            1.0,
            1.0,
            1.0
          ]
        },
        "KHR_materials_ior": {
          "ior": 1000
        }
      },
      "pbrMetallicRoughness": {
        "baseColorFactor": [
          0.0,
          0.0,
          0.0,
          1.0
        ],
        "metallicFactor": 0.0
      }
    }
  ],
  "meshes": [
    {
      "primitives": [
        {
          "attributes": {
            "NORMAL": 1,
            "POSITION": 0,
            "TEXCOORD_0": 3
          },
          "indices": 2,
          "material": 0
        }
      ],
      "name": "45840c05-5db0-40bf-9cee-a4aa0df279f4_mesh"
    }
  ],
  "nodes": [
    {
      "children": [
        1
      ],
      "matrix": [
        1.0,
        0.0,
        0.0,
        0.0,
        0.0,
        6.123234E-17,
        -1.0,
        0.0,
        0.0,
        1.0,
        6.123234E-17,
        0.0,
        0.0,
        0.0,
        0.0,
        1.0
      ]
    },
    {
      "children": [
        2
      ],
      "matrix": [
        1.0,
        0.0,
        0.0,
        0.0,
        0.0,
        1.0,
        0.0,
        0.0,
        0.0,
        0.0,
        1.0,
        0.0,
        1.0,
        0.0,
        1.0,
        1.0
      ],
      "extensions": {
        "HYPAR_info": {
          "id": "45840c05-5db0-40bf-9cee-a4aa0df279f4"
        }
      }
    },
    {
      "mesh": 0
    }
  ],
  "scene": 0,
  "scenes": [
    {
      "nodes": [
        0
      ]
    }
  ]
}