{
  "extensionsUsed": [
    "KHR_materials_specular",
    "KHR_materials_ior",
    "KHR_materials_unlit",
    "HYPAR_info",
    "HYPAR_representation_info"
  ],
  "accessors": [
    {
      "bufferView": 0,
      "componentType": 5126,
      "count": 120,
      "type": "VEC3",
      "max": [
        0.01,
        10.0,
        2.01
      ],
      "min": [
        -0.01,
        8.5,
        1.99
      ]
    },
    {
      "bufferView": 1,
      "componentType": 5126,
      "count": 120,
      "type": "VEC3",
      "max": [
        0.98768836,
        1.0,
        0.98768836
      ],
      "min": [
        -0.98768836,
        -1.0,
        -0.98768836
      ]
    },
    {
      "bufferView": 2,
      "componentType": 5123,
      "count": 228,
      "type": "SCALAR",
      "max": [
        119.0
      ],
      "min": [
        0.0
      ]
    },
    {
      "bufferView": 3,
      "componentType": 5126,
      "count": 120,
      "type": "VEC2",
      "max": [
        10.0,
        2.01
      ],
      "min": [
        -10.0,
        0.3113046
      ]
    },
    {
      "bufferView": 4,
      "componentType": 5126,
      "count": 120,
      "type": "VEC3",
      "max": [
        4.007071,
        8.5070715,
        2.01
      ],
      "min": [
        -0.0070710676,
        4.492929,
        1.99
      ]
    },
    {
      "bufferView": 5,
      "componentType": 5126,
      "count": 120,
      "type": "VEC3",
      "max": [
        0.70710677,
        0.70710677,
        0.98768836
      ],
      "min": [
        -0.70710677,
        -0.70710677,
        -0.98768836
      ]
    },
    {
      "bufferView": 6,
      "componentType": 5123,
      "count": 228,
      "type": "SCALAR",
      "max": [
        119.0
      ],
      "min": [
        0.0
      ]
    },
    {
      "bufferView": 7,
      "componentType": 5126,
      "count": 120,
      "type": "VEC2",
      "max": [
        6.0204077,
        6.264858
      ],
      "min": [
        -6.0204077,
        -5.625105
      ]
    },
    {
      "bufferView": 8,
      "componentType": 5126,
      "count": 120,
      "type": "VEC3",
      "max": [
        4.01,
        4.5,
        2.01
      ],
      "min": [
        3.99,
        2.5,
        1.99
      ]
    },
    {
      "bufferView": 9,
      "componentType": 5126,
      "count": 120,
      "type": "VEC3",
      "max": [
        0.98768836,
        1.0,
        0.98768836
      ],
      "min": [
        -0.98768836,
        -1.0,
        -0.98768836
      ]
    },
    {
      "bufferView": 10,
      "componentType": 5123,
      "count": 228,
      "type": "SCALAR",
      "max": [
        119.0
      ],
      "min": [
        0.0
      ]
    },
    {
      "bufferView": 11,
      "componentType": 5126,
      "count": 120,
      "type": "VEC2",
      "max": [
        4.5,
        4.4735713
      ],
      "min": [
        -4.5,
        -3.639449
      ]
    },
    {
      "bufferView": 12,
      "componentType": 5126,
      "count": 120,
      "type": "VEC3",
      "max": [
        4.0,
        2.51,
        2.01
      ],
      "min": [
        1.0,
        2.49,
        1.99
      ]
    },
    {
      "bufferView": 13,
      "componentType": 5126,
      "count": 120,
      "type": "VEC3",
      "max": [
        1.0,
        0.98768836,
        0.98768836
      ],
      "min": [
        -1.0,
        -0.98768836,
        -0.98768836
      ]
    },
    {
      "bufferView": 14,
      "componentType": 5123,
      "count": 228,
      "type": "SCALAR",
      "max": [
        119.0
      ],
      "min": [
        0.0
      ]
    },
    {
      "bufferView": 15,
      "componentType": 5126,
      "count": 120,
      "type": "VEC2",
      "max": [
        4.0,
        3.1835449
      ],
      "min": [
        -4.0,
        -2.1579163
      ]
    },
    {
      "bufferView": 16,
      "componentType": 5126,
      "count": 120,
      "type": "VEC3",
      "max": [
        1.01,
        2.5,
        2.01
      ],
      "min": [
        0.99,
        0.0,
        1.99
      ]
    },
    {
      "bufferView": 17,
      "componentType": 5126,
      "count": 120,
      "type": "VEC3",
      "max": [
        0.98768836,
        1.0,
        0.98768836
      ],
      "min": [
        -0.98768836,
        -1.0,
        -0.98768836
      ]
    },
    {
      "bufferView": 18,
      "componentType": 5123,
      "count": 228,
      "type": "SCALAR",
      "max": [
        119.0
      ],
      "min": [
        0.0
      ]
    },
    {
      "bufferView": 19,
      "componentType": 5126,
      "count": 120,
      "type": "VEC2",
      "max": [
        2.5,
        2.237568
      ],
      "min": [
        -2.5,
        -0.67638373
      ]
    },
    {
      "bufferView": 20,
      "componentType": 5126,
      "count": 120,
      "type": "VEC3",
      "max": [
        1.007071,
        0.01,
        2.007071
      ],
      "min": [
        -0.0070710676,
        -0.01,
        0.9929289
      ]
    },
    {
      "bufferView": 21,
      "componentType": 5126,
      "count": 120,
      "type": "VEC3",
      "max": [
        0.70710677,
        0.98768836,
        0.70710677
      ],
      "min": [
        -0.70710677,
        -0.98768836,
        -0.70710677
      ]
    },
    {
      "bufferView": 22,
      "componentType": 5123,
      "count": 228,
      "type": "SCALAR",
      "max": [
        119.0
      ],
      "min": [
        0.0
      ]
    },
    {
      "bufferView": 23,
      "componentType": 5126,
      "count": 120,
      "type": "VEC2",
      "max": [
        0.9949,
        2.113169
      ],
      "min": [
        -0.9949,
        0.6971068
      ]
    },
    {
      "bufferView": 24,
      "componentType": 5126,
      "count": 120,
      "type": "VEC3",
      "max": [
        0.01,
        0.01,
        1.0
      ],
      "min": [
        -0.01,
        -0.01,
        0.0
      ]
    },
    {
      "bufferView": 25,
      "componentType": 5126,
      "count": 120,
      "type": "VEC3",
      "max": [
        0.98768836,
        0.98768836,
        1.0
      ],
      "min": [
        -0.98768836,
        -0.98768836,
        -1.0
      ]
    },
    {
      "bufferView": 26,
      "componentType": 5123,
      "count": 228,
      "type": "SCALAR",
      "max": [
        119.0
      ],
      "min": [
        0.0
      ]
    },
    {
      "bufferView": 27,
      "componentType": 5126,
      "count": 120,
      "type": "VEC2",
      "max": [
        0.01,
        1.0
      ],
      "min": [
        -0.01,
        -0.01
      ]
    },
    {
      "bufferView": 28,
      "componentType": 5126,
      "count": 959,
      "type": "VEC3",
      "max": [
        4.009,
        10.0,
        2.009
      ],
      "min": [
        -0.009,
        -0.009,
        0.0
      ]
    },
    {
      "bufferView": 29,
      "componentType": 5126,
      "count": 959,
      "type": "VEC3",
      "max": [
        1.0,
        1.0,
        1.0
      ],
      "min": [
        -1.0,
        -1.0,
        -1.0
      ]
    },
    {
      "bufferView": 30,
      "componentType": 5123,
      "count": 1836,
      "type": "SCALAR",
      "max": [
        958.0
      ],
      "min": [
        0.0
      ]
    },
    {
      "bufferView": 31,
      "componentType": 5126,
      "count": 959,
      "type": "VEC2",
      "max": [
        10.0,
        6.2647014
      ],
      "min": [
        -10.0,
        -5.6249485
      ]
    },
    {
      "bufferView": 32,
      "componentType": 5126,
      "count": 869,
      "type": "VEC3",
      "max": [
        4.025,
        10.0,
        2.025
      ],
      "min": [
        -0.025,
        -0.025,
        0.0
      ]
    },
    {
      "bufferView": 33,
      "componentType": 5126,
      "count": 869,
      "type": "VEC3",
      "max": [
        1.0,
        1.0,
        1.0
      ],
      "min": [
        -1.0,
        -1.0,
        -1.0
      ]
    },
    {
      "bufferView": 34,
      "componentType": 5123,
      "count": 1629,
      "type": "SCALAR",
      "max": [
        868.0
      ],
      "min": [
        0.0
      ]
    },
    {
      "bufferView": 35,
      "componentType": 5126,
      "count": 869,
      "type": "VEC2",
      "max": [
        10.0,
        6.2672043
      ],
      "min": [
        -10.0,
        -5.6274514
      ]
    }
  ],
  "asset": {
    "generator": "hypar-gltf",
    "version": "2.0"
  },
  "buffers": [
    {
      "uri": "normalizedConnectionStart_0.bin",
      "byteLength": 95500
    }
  ],
  "bufferViews": [
    {
      "buffer": 0,
      "byteLength": 1440
    },
    {
      "buffer": 0,
      "byteOffset": 1440,
      "byteLength": 1440
    },
    {
      "buffer": 0,
      "byteOffset": 2880,
      "byteLength": 456
    },
    {
      "buffer": 0,
      "byteOffset": 3336,
      "byteLength": 960
    },
    {
      "buffer": 0,
      "byteOffset": 4296,
      "byteLength": 1440
    },
    {
      "buffer": 0,
      "byteOffset": 5736,
      "byteLength": 1440
    },
    {
      "buffer": 0,
      "byteOffset": 7176,
      "byteLength": 456
    },
    {
      "buffer": 0,
      "byteOffset": 7632,
      "byteLength": 960
    },
    {
      "buffer": 0,
      "byteOffset": 8592,
      "byteLength": 1440
    },
    {
      "buffer": 0,
      "byteOffset": 10032,
      "byteLength": 1440
    },
    {
      "buffer": 0,
      "byteOffset": 11472,
      "byteLength": 456
    },
    {
      "buffer": 0,
      "byteOffset": 11928,
      "byteLength": 960
    },
    {
      "buffer": 0,
      "byteOffset": 12888,
      "byteLength": 1440
    },
    {
      "buffer": 0,
      "byteOffset": 14328,
      "byteLength": 1440
    },
    {
      "buffer": 0,
      "byteOffset": 15768,
      "byteLength": 456
    },
    {
      "buffer": 0,
      "byteOffset": 16224,
      "byteLength": 960
    },
    {
      "buffer": 0,
      "byteOffset": 17184,
      "byteLength": 1440
    },
    {
      "buffer": 0,
      "byteOffset": 18624,
      "byteLength": 1440
    },
    {
      "buffer": 0,
      "byteOffset": 20064,
      "byteLength": 456
    },
    {
      "buffer": 0,
      "byteOffset": 20520,
      "byteLength": 960
    },
    {
      "buffer": 0,
      "byteOffset": 21480,
      "byteLength": 1440
    },
    {
      "buffer": 0,
      "byteOffset": 22920,
      "byteLength": 1440
    },
    {
      "buffer": 0,
      "byteOffset": 24360,
      "byteLength": 456
    },
    {
      "buffer": 0,
      "byteOffset": 24816,
      "byteLength": 960
    },
    {
      "buffer": 0,
      "byteOffset": 25776,
      "byteLength": 1440
    },
    {
      "buffer": 0,
      "byteOffset": 27216,
      "byteLength": 1440
    },
    {
      "buffer": 0,
      "byteOffset": 28656,
      "byteLength": 456
    },
    {
      "buffer": 0,
      "byteOffset": 29112,
      "byteLength": 960
    },
    {
      "buffer": 0,
      "byteOffset": 30072,
      "byteLength": 11508
    },
    {
      "buffer": 0,
      "byteOffset": 41580,
      "byteLength": 11508
    },
    {
      "buffer": 0,
      "byteOffset": 53088,
      "byteLength": 3672
    },
    {
      "buffer": 0,
      "byteOffset": 56760,
      "byteLength": 7672
    },
    {
      "buffer": 0,
      "byteOffset": 64432,
      "byteLength": 10428
    },
    {
      "buffer": 0,
      "byteOffset": 74860,
      "byteLength": 10428
    },
    {
      "buffer": 0,
      "byteOffset": 85288,
      "byteLength": 3258
    },
    {
      "buffer": 0,
      "byteOffset": 88548,
      "byteLength": 6952
    }
  ],
  "materials": [
    {
      "name": "9babb829-9b96-4e73-97f4-9658d4d6c31c",
      "extensions": {
        "KHR_materials_specular": {
          "specularFactor": 0.0,
          "specularColorFactor": [
            1.0,
            1.0,
            1.0
          ]
        },
        "KHR_materials_ior": {
          "ior": 1000
        }
      },
      "pbrMetallicRoughness": {
        "metallicFactor": 0.0
      }
    },
    {
      "name": "a642688c-6ad8-45d4-8293-4a5232247c57",
      "extensions": {
        "KHR_materials_specular": {
          "specularFactor": 0.1,
          "specularColorFactor": [
            1.0,
            1.0,
            1.0
          ]
        },
        "KHR_materials_ior": {
          "ior": 1000
        }
      },
      "pbrMetallicRoughness": {
        "baseColorFactor": [
          1.0,
          0.13286832,
          0.0,
          1.0
        ],
        "metallicFactor": 0.0,
        "roughnessFactor": 0.9
      }
    },
    {
      "name": "1558dbf7-6cd6-441e-856e-d4574dde5c96",
      "extensions": {
        "KHR_materials_specular": {
          "specularFactor": 0.1,
          "specularColorFactor": [
            1.0,
            1.0,
            1.0
          ]
        },
        "KHR_materials_ior": {
          "ior": 1000
        }
      },
      "pbrMetallicRoughness": {
        "baseColorFactor": [
          0.033104766,
          0.40108714,
          1.0,
          1.0
        ],
        "metallicFactor": 0.0,
        "roughnessFactor": 0.9
      }
    }
  ],
  "meshes": [
    {
      "primitives": [
        {
          "attributes": {
            "POSITION": 0,
            "NORMAL": 1,
            "TEXCOORD_0": 3
          },
          "indices": 2,
          "material": 0
        }
      ],
      "name": "ab7594d3-b601-4e76-8c8b-a332a0558bd5_mesh"
    },
    {
      "primitives": [
        {
          "attributes": {
            "POSITION": 4,
            "NORMAL": 5,
            "TEXCOORD_0": 7
          },
          "indices": 6,
          "material": 0
        }
      ],
      "name": "8921fec4-204b-4976-8156-ed9192e9378b_mesh"
    },
    {
      "primitives": [
        {
          "attributes": {
            "POSITION": 8,
            "NORMAL": 9,
            "TEXCOORD_0": 11
          },
          "indices": 10,
          "material": 0
        }
      ],
      "name": "b0eb315a-30e8-426b-9eff-5660d6d68ca1_mesh"
    },
    {
      "primitives": [
        {
          "attributes": {
            "POSITION": 12,
            "NORMAL": 13,
            "TEXCOORD_0": 15
          },
          "indices": 14,
          "material": 0
        }
      ],
      "name": "223bada5-9439-48ae-9fc9-6a6fbcee7602_mesh"
    },
    {
      "primitives": [
        {
          "attributes": {
            "POSITION": 16,
            "NORMAL": 17,
            "TEXCOORD_0": 19
          },
          "indices": 18,
          "material": 0
        }
      ],
      "name": "9877f4f3-0d9b-4fe8-a1a7-28c745d137ea_mesh"
    },
    {
      "primitives": [
        {
          "attributes": {
            "POSITION": 20,
            "NORMAL": 21,
            "TEXCOORD_0": 23
          },
          "indices": 22,
          "material": 0
        }
      ],
      "name": "b2355beb-d838-4e40-a65a-c378e96c1015_mesh"
    },
    {
      "primitives": [
        {
          "attributes": {
            "POSITION": 24,
            "NORMAL": 25,
            "TEXCOORD_0": 27
          },
          "indices": 26,
          "material": 0
        }
      ],
      "name": "edec8aef-af61-4604-92a7-812d3db96145_mesh"
    },
    {
      "primitives": [
        {
          "attributes": {
            "POSITION": 28,
            "NORMAL": 29,
            "TEXCOORD_0": 31
          },
          "indices": 30,
          "material": 1
        }
      ],
      "name": "05bd5bae-44a6-4702-9c3c-d76d852eb55f_mesh"
    },
    {
      "primitives": [
        {
          "attributes": {
            "POSITION": 32,
            "NORMAL": 33,
            "TEXCOORD_0": 35
          },
          "indices": 34,
          "material": 2
        }
      ],
      "name": "e19d2ba5-3dcb-40f6-8903-87b31fb1f899_mesh"
    }
  ],
  "nodes": [
    {
      "children": [
        1,
        3,
        5,
        7,
        9,
        11,
        13,
        15,
        17
      ],
      "matrix": [
        1.0,
        0.0,
        0.0,
        0.0,
        0.0,
        6.123234E-17,
        -1.0,
        0.0,
        0.0,
        1.0,
        6.123234E-17,
        0.0,
        0.0,
        0.0,
        0.0,
        1.0
      ]
    },
    {
      "children": [
        2
      ],
      "extensions": {
        "HYPAR_info": {
          "id": "ab7594d3-b601-4e76-8c8b-a332a0558bd5"
        }
      }
    },
    {
      "mesh": 0
    },
    {
      "children": [
        4
      ],
      "extensions": {
        "HYPAR_info": {
          "id": "8921fec4-204b-4976-8156-ed9192e9378b"
        }
      }
    },
    {
      "mesh": 1
    },
    {
      "children": [
        6
      ],
      "extensions": {
        "HYPAR_info": {
          "id": "b0eb315a-30e8-426b-9eff-5660d6d68ca1"
        }
      }
    },
    {
      "mesh": 2
    },
    {
      "children": [
        8
      ],
      "extensions": {
        "HYPAR_info": {
          "id": "223bada5-9439-48ae-9fc9-6a6fbcee7602"
        }
      }
    },
    {
      "mesh": 3
    },
    {
      "children": [
        10
      ],
      "extensions": {
        "HYPAR_info": {
          "id": "9877f4f3-0d9b-4fe8-a1a7-28c745d137ea"
        }
      }
    },
    {
      "mesh": 4
    },
    {
      "children": [
        12
      ],
      "extensions": {
        "HYPAR_info": {
          "id": "b2355beb-d838-4e40-a65a-c378e96c1015"
        }
      }
    },
    {
      "mesh": 5
    },
    {
      "children": [
        14
      ],
      "extensions": {
        "HYPAR_info": {
          "id": "edec8aef-af61-4604-92a7-812d3db96145"
        }
      }
    },
    {
      "mesh": 6
    },
    {
      "children": [
        16
      ],
      "extensions": {
        "HYPAR_info": {
          "id": "05bd5bae-44a6-4702-9c3c-d76d852eb55f"
        }
      }
    },
    {
      "mesh": 7
    },
    {
      "children": [
        18
      ],
      "extensions": {
        "HYPAR_info": {
          "id": "e19d2ba5-3dcb-40f6-8903-87b31fb1f899"
        }
      }
    },
    {
      "mesh": 8
    }
  ],
  "scene": 0,
  "scenes": [
    {
      "nodes": [
        0
      ]
    }
  ]
}