{
  "extensionsUsed": [
    "KHR_materials_specular",
    "KHR_materials_ior",
    "KHR_materials_unlit",
    "HYPAR_info"
  ],
  "accessors": [
    {
      "bufferView": 0,
      "componentType": 5126,
      "count": 120,
      "type": "VEC3",
      "max": [
        0.01,
        10.0,
        2.01
      ],
      "min": [
        -0.01,
        8.5,
        1.99
      ]
    },
    {
      "bufferView": 1,
      "componentType": 5126,
      "count": 120,
      "type": "VEC3",
      "max": [
        0.98768836,
        1.0,
        0.98768836
      ],
      "min": [
        -0.98768836,
        -1.0,
        -0.98768836
      ]
    },
    {
      "bufferView": 2,
      "componentType": 5123,
      "count": 228,
      "type": "SCALAR",
      "max": [
        119.0
      ],
      "min": [
        0.0
      ]
    },
    {
      "bufferView": 3,
      "componentType": 5126,
      "count": 120,
      "type": "VEC2",
      "max": [
        10.0,
        2.01
      ],
      "min": [
        -10.0,
        0.3113046
      ]
    },
    {
      "bufferView": 4,
      "componentType": 5126,
      "count": 120,
      "type": "VEC3",
      "max": [
        4.007071,
        8.5070715,
        2.01
      ],
      "min": [
        -0.0070710676,
        4.492929,
        1.99
      ]
    },
    {
      "bufferView": 5,
      "componentType": 5126,
      "count": 120,
      "type": "VEC3",
      "max": [
        0.70710677,
        0.70710677,
        0.98768836
      ],
      "min": [
        -0.70710677,
        -0.70710677,
        -0.98768836
      ]
    },
    {
      "bufferView": 6,
      "componentType": 5123,
      "count": 228,
      "type": "SCALAR",
      "max": [
        119.0
      ],
      "min": [
        0.0
      ]
    },
    {
      "bufferView": 7,
      "componentType": 5126,
      "count": 120,
      "type": "VEC2",
      "max": [
        6.0204077,
        6.264858
      ],
      "min": [
        -6.0204077,
        -5.625105
      ]
    },
    {
      "bufferView": 8,
      "componentType": 5126,
      "count": 120,
      "type": "VEC3",
      "max": [
        4.01,
        4.5,
        2.01
      ],
      "min": [
        3.99,
        2.5,
        1.99
      ]
    },
    {
      "bufferView": 9,
      "componentType": 5126,
      "count": 120,
      "type": "VEC3",
      "max": [
        0.98768836,
        1.0,
        0.98768836
      ],
      "min": [
        -0.98768836,
        -1.0,
        -0.98768836
      ]
    },
    {
      "bufferView": 10,
      "componentType": 5123,
      "count": 228,
      "type": "SCALAR",
      "max": [
        119.0
      ],
      "min": [
        0.0
      ]
    },
    {
      "bufferView": 11,
      "componentType": 5126,
      "count": 120,
      "type": "VEC2",
      "max": [
        4.5,
        4.4735713
      ],
      "min": [
        -4.5,
        -3.639449
      ]
    },
    {
      "bufferView": 12,
      "componentType": 5126,
      "count": 120,
      "type": "VEC3",
      "max": [
        4.0,
        2.51,
        2.01
      ],
      "min": [
        1.0,
        2.49,
        1.99
      ]
    },
    {
      "bufferView": 13,
      "componentType": 5126,
      "count": 120,
      "type": "VEC3",
      "max": [
        1.0,
        0.98768836,
        0.98768836
      ],
      "min": [
        -1.0,
        -0.98768836,
        -0.98768836
      ]
    },
    {
      "bufferView": 14,
      "componentType": 5123,
      "count": 228,
      "type": "SCALAR",
      "max": [
        119.0
      ],
      "min": [
        0.0
      ]
    },
    {
      "bufferView": 15,
      "componentType": 5126,
      "count": 120,
      "type": "VEC2",
      "max": [
        4.0,
        3.1835449
      ],
      "min": [
        -4.0,
        -2.1579163
      ]
    },
    {
      "bufferView": 16,
      "componentType": 5126,
      "count": 120,
      "type": "VEC3",
      "max": [
        1.01,
        2.5,
        2.01
      ],
      "min": [
        0.99,
        0.0,
        1.99
      ]
    },
    {
      "bufferView": 17,
      "componentType": 5126,
      "count": 120,
      "type": "VEC3",
      "max": [
        0.98768836,
        1.0,
        0.98768836
      ],
      "min": [
        -0.98768836,
        -1.0,
        -0.98768836
      ]
    },
    {
      "bufferView": 18,
      "componentType": 5123,
      "count": 228,
      "type": "SCALAR",
      "max": [
        119.0
      ],
      "min": [
        0.0
      ]
    },
    {
      "bufferView": 19,
      "componentType": 5126,
      "count": 120,
      "type": "VEC2",
      "max": [
        2.5,
        2.237568
      ],
      "min": [
        -2.5,
        -0.67638373
      ]
    },
    {
      "bufferView": 20,
      "componentType": 5126,
      "count": 120,
      "type": "VEC3",
      "max": [
        1.007071,
        0.01,
        2.007071
      ],
      "min": [
        -0.0070710676,
        -0.01,
        0.9929289
      ]
    },
    {
      "bufferView": 21,
      "componentType": 5126,
      "count": 120,
      "type": "VEC3",
      "max": [
        0.70710677,
        0.98768836,
        0.70710677
      ],
      "min": [
        -0.70710677,
        -0.98768836,
        -0.70710677
      ]
    },
    {
      "bufferView": 22,
      "componentType": 5123,
      "count": 228,
      "type": "SCALAR",
      "max": [
        119.0
      ],
      "min": [
        0.0
      ]
    },
    {
      "bufferView": 23,
      "componentType": 5126,
      "count": 120,
      "type": "VEC2",
      "max": [
        0.9949,
        2.113169
      ],
      "min": [
        -0.9949,
        0.6971068
      ]
    },
    {
      "bufferView": 24,
      "componentType": 5126,
      "count": 120,
      "type": "VEC3",
      "max": [
        0.01,
        0.01,
        1.0
      ],
      "min": [
        -0.01,
        -0.01,
        0.0
      ]
    },
    {
      "bufferView": 25,
      "componentType": 5126,
      "count": 120,
      "type": "VEC3",
      "max": [
        0.98768836,
        0.98768836,
        1.0
      ],
      "min": [
        -0.98768836,
        -0.98768836,
        -1.0
      ]
    },
    {
      "bufferView": 26,
      "componentType": 5123,
      "count": 228,
      "type": "SCALAR",
      "max": [
        119.0
      ],
      "min": [
        0.0
      ]
    },
    {
      "bufferView": 27,
      "componentType": 5126,
      "count": 120,
      "type": "VEC2",
      "max": [
        0.01,
        1.0
      ],
      "min": [
        -0.01,
        -0.01
      ]
    },
    {
      "bufferView": 28,
      "componentType": 5126,
      "count": 959,
      "type": "VEC3",
      "max": [
        4.009,
        10.0,
        2.009
      ],
      "min": [
        -0.009,
        -0.009,
        0.0
      ]
    },
    {
      "bufferView": 29,
      "componentType": 5126,
      "count": 959,
      "type": "VEC3",
      "max": [
        1.0,
        1.0,
        1.0
      ],
      "min": [
        -1.0,
        -1.0,
        -1.0
      ]
    },
    {
      "bufferView": 30,
      "componentType": 5123,
      "count": 1836,
      "type": "SCALAR",
      "max": [
        958.0
      ],
      "min": [
        0.0
      ]
    },
    {
      "bufferView": 31,
      "componentType": 5126,
      "count": 959,
      "type": "VEC2",
      "max": [
        10.0,
        6.2647014
      ],
      "min": [
        -10.0,
        -5.6249485
      ]
    },
    {
      "bufferView": 32,
      "componentType": 5126,
      "count": 869,
      "type": "VEC3",
      "max": [
        4.025,
        10.0,
        2.025
      ],
      "min": [
        -0.025,
        -0.025,
        0.0
      ]
    },
    {
      "bufferView": 33,
      "componentType": 5126,
      "count": 869,
      "type": "VEC3",
      "max": [
        1.0,
        1.0,
        1.0
      ],
      "min": [
        -1.0,
        -1.0,
        -1.0
      ]
    },
    {
      "bufferView": 34,
      "componentType": 5123,
      "count": 1629,
      "type": "SCALAR",
      "max": [
        868.0
      ],
      "min": [
        0.0
      ]
    },
    {
      "bufferView": 35,
      "componentType": 5126,
      "count": 869,
      "type": "VEC2",
      "max": [
        10.0,
        6.2672043
      ],
      "min": [
        -10.0,
        -5.6274514
      ]
    }
  ],
  "asset": {
    "generator": "hypar-gltf",
    "version": "2.0"
  },
  "buffers": [
    {
      "uri": "normalizedConnectionStart_0.bin",
      "byteLength": 95500
    }
  ],
  "bufferViews": [
    {
      "buffer": 0,
      "byteLength": 1440
    },
    {
      "buffer": 0,
      "byteOffset": 1440,
      "byteLength": 1440
    },
    {
      "buffer": 0,
      "byteOffset": 2880,
      "byteLength": 456
    },
    {
      "buffer": 0,
      "byteOffset": 3336,
      "byteLength": 960
    },
    {
      "buffer": 0,
      "byteOffset": 4296,
      "byteLength": 1440
    },
    {
      "buffer": 0,
      "byteOffset": 5736,
      "byteLength": 1440
    },
    {
      "buffer": 0,
      "byteOffset": 7176,
      "byteLength": 456
    },
    {
      "buffer": 0,
      "byteOffset": 7632,
      "byteLength": 960
    },
    {
      "buffer": 0,
      "byteOffset": 8592,
      "byteLength": 1440
    },
    {
      "buffer": 0,
      "byteOffset": 10032,
      "byteLength": 1440
    },
    {
      "buffer": 0,
      "byteOffset": 11472,
      "byteLength": 456
    },
    {
      "buffer": 0,
      "byteOffset": 11928,
      "byteLength": 960
    },
    {
      "buffer": 0,
      "byteOffset": 12888,
      "byteLength": 1440
    },
    {
      "buffer": 0,
      "byteOffset": 14328,
      "byteLength": 1440
    },
    {
      "buffer": 0,
      "byteOffset": 15768,
      "byteLength": 456
    },
    {
      "buffer": 0,
      "byteOffset": 16224,
      "byteLength": 960
    },
    {
      "buffer": 0,
      "byteOffset": 17184,
      "byteLength": 1440
    },
    {
      "buffer": 0,
      "byteOffset": 18624,
      "byteLength": 1440
    },
    {
      "buffer": 0,
      "byteOffset": 20064,
      "byteLength": 456
    },
    {
      "buffer": 0,
      "byteOffset": 20520,
      "byteLength": 960
    },
    {
      "buffer": 0,
      "byteOffset": 21480,
      "byteLength": 1440
    },
    {
      "buffer": 0,
      "byteOffset": 22920,
      "byteLength": 1440
    },
    {
      "buffer": 0,
      "byteOffset": 24360,
      "byteLength": 456
    },
    {
      "buffer": 0,
      "byteOffset": 24816,
      "byteLength": 960
    },
    {
      "buffer": 0,
      "byteOffset": 25776,
      "byteLength": 1440
    },
    {
      "buffer": 0,
      "byteOffset": 27216,
      "byteLength": 1440
    },
    {
      "buffer": 0,
      "byteOffset": 28656,
      "byteLength": 456
    },
    {
      "buffer": 0,
      "byteOffset": 29112,
      "byteLength": 960
    },
    {
      "buffer": 0,
      "byteOffset": 30072,
      "byteLength": 11508
    },
    {
      "buffer": 0,
      "byteOffset": 41580,
      "byteLength": 11508
    },
    {
      "buffer": 0,
      "byteOffset": 53088,
      "byteLength": 3672
    },
    {
      "buffer": 0,
      "byteOffset": 56760,
      "byteLength": 7672
    },
    {
      "buffer": 0,
      "byteOffset": 64432,
      "byteLength": 10428
    },
    {
      "buffer": 0,
      "byteOffset": 74860,
      "byteLength": 10428
    },
    {
      "buffer": 0,
      "byteOffset": 85288,
      "byteLength": 3258
    },
    {
      "buffer": 0,
      "byteOffset": 88548,
      "byteLength": 6952
    }
  ],
  "materials": [
    {
      "name": "9babb829-9b96-4e73-97f4-9658d4d6c31c",
      "extensions": {
        "KHR_materials_specular": {
          "specularFactor": 0.0,
          "specularColorFactor": [
            1.0,
            1.0,
            1.0
          ]
        },
        "KHR_materials_ior": {
          "ior": 1000
        }
      },
      "pbrMetallicRoughness": {
        "metallicFactor": 0.0
      }
    },
    {
      "name": "f9715ff3-6672-4854-9746-9578b4a3b2a7",
      "extensions": {
        "KHR_materials_specular": {
          "specularFactor": 0.1,
          "specularColorFactor": [
            1.0,
            1.0,
            1.0
          ]
        },
        "KHR_materials_ior": {
          "ior": 1000
        }
      },
      "pbrMetallicRoughness": {
        "baseColorFactor": [
          1.0,
          0.13286832,
          0.0,
          1.0
        ],
        "metallicFactor": 0.0,
        "roughnessFactor": 0.9
      }
    },
    {
      "name": "17954553-af9d-4fa8-8fa6-cd9b5e416d38",
      "extensions": {
        "KHR_materials_specular": {
          "specularFactor": 0.1,
          "specularColorFactor": [
            1.0,
            1.0,
            1.0
          ]
        },
        "KHR_materials_ior": {
          "ior": 1000
        }
      },
      "pbrMetallicRoughness": {
        "baseColorFactor": [
          0.033104766,
          0.40108714,
          1.0,
          1.0
        ],
        "metallicFactor": 0.0,
        "roughnessFactor": 0.9
      }
    }
  ],
  "meshes": [
    {
      "primitives": [
        {
          "attributes": {
            "NORMAL": 1,
            "POSITION": 0,
            "TEXCOORD_0": 3
          },
          "indices": 2,
          "material": 0
        }
      ],
      "name": "4d631283-d405-48c8-a7f9-8a201b4fbcd1_mesh"
    },
    {
      "primitives": [
        {
          "attributes": {
            "NORMAL": 5,
            "POSITION": 4,
            "TEXCOORD_0": 7
          },
          "indices": 6,
          "material": 0
        }
      ],
      "name": "edb0e9fa-7310-4aa7-91b0-c30b8c7d44f4_mesh"
    },
    {
      "primitives": [
        {
          "attributes": {
            "NORMAL": 9,
            "POSITION": 8,
            "TEXCOORD_0": 11
          },
          "indices": 10,
          "material": 0
        }
      ],
      "name": "50ecc17a-664d-4881-b7ca-54a034adc395_mesh"
    },
    {
      "primitives": [
        {
          "attributes": {
            "NORMAL": 13,
            "POSITION": 12,
            "TEXCOORD_0": 15
          },
          "indices": 14,
          "material": 0
        }
      ],
      "name": "415bfe3b-d5be-486f-b427-81fc6bbdeed0_mesh"
    },
    {
      "primitives": [
        {
          "attributes": {
            "NORMAL": 17,
            "POSITION": 16,
            "TEXCOORD_0": 19
          },
          "indices": 18,
          "material": 0
        }
      ],
      "name": "59c6e88b-f01c-43ac-8595-17b22aa80b67_mesh"
    },
    {
      "primitives": [
        {
          "attributes": {
            "NORMAL": 21,
            "POSITION": 20,
            "TEXCOORD_0": 23
          },
          "indices": 22,
          "material": 0
        }
      ],
      "name": "d39238de-260d-4e82-af52-9838603a2e7a_mesh"
    },
    {
      "primitives": [
        {
          "attributes": {
            "NORMAL": 25,
            "POSITION": 24,
            "TEXCOORD_0": 27
          },
          "indices": 26,
          "material": 0
        }
      ],
      "name": "f4e35149-2afb-42b2-98c1-7cfdf6f258eb_mesh"
    },
    {
      "primitives": [
        {
          "attributes": {
            "NORMAL": 29,
            "POSITION": 28,
            "TEXCOORD_0": 31
          },
          "indices": 30,
          "material": 1
        }
      ],
      "name": "43f7ecbf-65cf-4418-8550-8302e6299fd1_mesh"
    },
    {
      "primitives": [
        {
          "attributes": {
            "NORMAL": 33,
            "POSITION": 32,
            "TEXCOORD_0": 35
          },
          "indices": 34,
          "material": 2
        }
      ],
      "name": "f702821c-9cdd-49d5-9a74-6cabf17eb61c_mesh"
    }
  ],
  "nodes": [
    {
      "children": [
        1,
        3,
        5,
        7,
        9,
        11,
        13,
        15,
        17
      ],
      "matrix": [
        1.0,
        0.0,
        0.0,
        0.0,
        0.0,
        6.123234E-17,
        -1.0,
        0.0,
        0.0,
        1.0,
        6.123234E-17,
        0.0,
        0.0,
        0.0,
        0.0,
        1.0
      ]
    },
    {
      "children": [
        2
      ],
      "extensions": {
        "HYPAR_info": {
          "id": "4d631283-d405-48c8-a7f9-8a201b4fbcd1"
        }
      }
    },
    {
      "mesh": 0
    },
    {
      "children": [
        4
      ],
      "extensions": {
        "HYPAR_info": {
          "id": "edb0e9fa-7310-4aa7-91b0-c30b8c7d44f4"
        }
      }
    },
    {
      "mesh": 1
    },
    {
      "children": [
        6
      ],
      "extensions": {
        "HYPAR_info": {
          "id": "50ecc17a-664d-4881-b7ca-54a034adc395"
        }
      }
    },
    {
      "mesh": 2
    },
    {
      "children": [
        8
      ],
      "extensions": {
        "HYPAR_info": {
          "id": "415bfe3b-d5be-486f-b427-81fc6bbdeed0"
        }
      }
    },
    {
      "mesh": 3
    },
    {
      "children": [
        10
      ],
      "extensions": {
        "HYPAR_info": {
          "id": "59c6e88b-f01c-43ac-8595-17b22aa80b67"
        }
      }
    },
    {
      "mesh": 4
    },
    {
      "children": [
        12
      ],
      "extensions": {
        "HYPAR_info": {
          "id": "d39238de-260d-4e82-af52-9838603a2e7a"
        }
      }
    },
    {
      "mesh": 5
    },
    {
      "children": [
        14
      ],
      "extensions": {
        "HYPAR_info": {
          "id": "f4e35149-2afb-42b2-98c1-7cfdf6f258eb"
        }
      }
    },
    {
      "mesh": 6
    },
    {
      "children": [
        16
      ],
      "extensions": {
        "HYPAR_info": {
          "id": "43f7ecbf-65cf-4418-8550-8302e6299fd1"
        }
      }
    },
    {
      "mesh": 7
    },
    {
      "children": [
        18
      ],
      "extensions": {
        "HYPAR_info": {
          "id": "f702821c-9cdd-49d5-9a74-6cabf17eb61c"
        }
      }
    },
    {
      "mesh": 8
    }
  ],
  "scene": 0,
  "scenes": [
    {
      "nodes": [
        0
      ]
    }
  ]
}