{
  "extensionsUsed": [
    "KHR_materials_specular",
    "KHR_materials_ior",
    "KHR_materials_unlit",
    "HYPAR_info"
  ],
  "accessors": [
    {
      "bufferView": 0,
      "componentType": 5126,
      "count": 398,
      "type": "VEC3",
      "max": [
        0.14,
        0.05,
        0.05
      ],
      "min": [
        0.0,
        -0.05,
        -0.05
      ]
    },
    {
      "bufferView": 1,
      "componentType": 5126,
      "count": 398,
      "type": "VEC3",
      "max": [
        1.0,
        0.98768836,
        0.98768836
      ],
      "min": [
        -1.0,
        -0.98768836,
        -0.98768836
      ]
    },
    {
      "bufferView": 2,
      "componentType": 5123,
      "count": 816,
      "type": "SCALAR",
      "max": [
        397.0
      ],
      "min": [
        0.0
      ]
    },
    {
      "bufferView": 3,
      "componentType": 5126,
      "count": 398,
      "type": "VEC2",
      "max": [
        0.14,
        0.05
      ],
      "min": [
        -0.14,
        -0.05
      ]
    },
    {
      "bufferView": 4,
      "componentType": 5126,
      "count": 120,
      "type": "VEC3",
      "max": [
        4.89,
        0.05,
        0.05
      ],
      "min": [
        0.03,
        -0.05,
        -0.05
      ]
    },
    {
      "bufferView": 5,
      "componentType": 5126,
      "count": 120,
      "type": "VEC3",
      "max": [
        1.0,
        0.98768836,
        0.98768836
      ],
      "min": [
        -1.0,
        -0.98768836,
        -0.98768836
      ]
    },
    {
      "bufferView": 6,
      "componentType": 5123,
      "count": 228,
      "type": "SCALAR",
      "max": [
        119.0
      ],
      "min": [
        0.0
      ]
    },
    {
      "bufferView": 7,
      "componentType": 5126,
      "count": 120,
      "type": "VEC2",
      "max": [
        4.89,
        0.05
      ],
      "min": [
        -4.89,
        -0.05
      ]
    },
    {
      "bufferView": 8,
      "componentType": 5126,
      "count": 754,
      "type": "VEC3",
      "max": [
        0.05,
        0.22,
        0.05
      ],
      "min": [
        -0.22,
        -0.05,
        -0.05
      ]
    },
    {
      "bufferView": 9,
      "componentType": 5126,
      "count": 754,
      "type": "VEC3",
      "max": [
        1.0,
        1.0,
        0.98768836
      ],
      "min": [
        -1.0,
        -1.0,
        -0.98768836
      ]
    },
    {
      "bufferView": 10,
      "componentType": 5123,
      "count": 1524,
      "type": "SCALAR",
      "max": [
        753.0
      ],
      "min": [
        0.0
      ]
    },
    {
      "bufferView": 11,
      "componentType": 5126,
      "count": 754,
      "type": "VEC2",
      "max": [
        0.22,
        0.05
      ],
      "min": [
        -0.22,
        -0.05
      ]
    },
    {
      "bufferView": 12,
      "componentType": 5126,
      "count": 809,
      "type": "VEC3",
      "max": [
        0.05,
        0.15,
        0.05
      ],
      "min": [
        -0.05,
        -0.15,
        -0.05
      ]
    },
    {
      "bufferView": 13,
      "componentType": 5126,
      "count": 809,
      "type": "VEC3",
      "max": [
        0.98768836,
        1.0,
        0.98768836
      ],
      "min": [
        -0.98768836,
        -1.0,
        -0.98768836
      ]
    },
    {
      "bufferView": 14,
      "componentType": 5123,
      "count": 1677,
      "type": "SCALAR",
      "max": [
        808.0
      ],
      "min": [
        0.0
      ]
    },
    {
      "bufferView": 15,
      "componentType": 5126,
      "count": 809,
      "type": "VEC2",
      "max": [
        0.15,
        0.05
      ],
      "min": [
        -0.15,
        -0.05
      ]
    },
    {
      "bufferView": 16,
      "componentType": 5126,
      "count": 120,
      "type": "VEC3",
      "max": [
        5.025,
        4.81,
        0.05
      ],
      "min": [
        4.975,
        0.19,
        0.0
      ]
    },
    {
      "bufferView": 17,
      "componentType": 5126,
      "count": 120,
      "type": "VEC3",
      "max": [
        0.98768836,
        1.0,
        0.98768836
      ],
      "min": [
        -0.98768836,
        -1.0,
        -0.98768836
      ]
    },
    {
      "bufferView": 18,
      "componentType": 5123,
      "count": 228,
      "type": "SCALAR",
      "max": [
        119.0
      ],
      "min": [
        0.0
      ]
    },
    {
      "bufferView": 19,
      "componentType": 5126,
      "count": 120,
      "type": "VEC2",
      "max": [
        5.025,
        4.9462633
      ],
      "min": [
        -5.025,
        -4.9384418
      ]
    },
    {
      "bufferView": 20,
      "componentType": 5126,
      "count": 810,
      "type": "VEC3",
      "max": [
        0.05,
        0.15,
        0.025
      ],
      "min": [
        -0.05,
        -0.15,
        -0.075
      ]
    },
    {
      "bufferView": 21,
      "componentType": 5126,
      "count": 810,
      "type": "VEC3",
      "max": [
        0.98768836,
        1.0,
        0.98768836
      ],
      "min": [
        -0.98768836,
        -1.0,
        -0.98768836
      ]
    },
    {
      "bufferView": 22,
      "componentType": 5123,
      "count": 1677,
      "type": "SCALAR",
      "max": [
        809.0
      ],
      "min": [
        0.0
      ]
    },
    {
      "bufferView": 23,
      "componentType": 5126,
      "count": 810,
      "type": "VEC2",
      "max": [
        0.15,
        0.025
      ],
      "min": [
        -0.15,
        -0.075
      ]
    },
    {
      "bufferView": 24,
      "componentType": 5126,
      "count": 754,
      "type": "VEC3",
      "max": [
        0.22,
        0.05,
        0.05
      ],
      "min": [
        -0.05,
        -0.22,
        -0.05
      ]
    },
    {
      "bufferView": 25,
      "componentType": 5126,
      "count": 754,
      "type": "VEC3",
      "max": [
        1.0,
        1.0,
        0.98768836
      ],
      "min": [
        -1.0,
        -1.0,
        -0.98768836
      ]
    },
    {
      "bufferView": 26,
      "componentType": 5123,
      "count": 1524,
      "type": "SCALAR",
      "max": [
        753.0
      ],
      "min": [
        0.0
      ]
    },
    {
      "bufferView": 27,
      "componentType": 5126,
      "count": 754,
      "type": "VEC2",
      "max": [
        0.22,
        0.05
      ],
      "min": [
        -0.22,
        -0.05
      ]
    },
    {
      "bufferView": 28,
      "componentType": 5126,
      "count": 120,
      "type": "VEC3",
      "max": [
        9.97,
        5.05,
        0.05
      ],
      "min": [
        5.11,
        4.95,
        -0.05
      ]
    },
    {
      "bufferView": 29,
      "componentType": 5126,
      "count": 120,
      "type": "VEC3",
      "max": [
        1.0,
        0.98768836,
        0.98768836
      ],
      "min": [
        -1.0,
        -0.98768836,
        -0.98768836
      ]
    },
    {
      "bufferView": 30,
      "componentType": 5123,
      "count": 228,
      "type": "SCALAR",
      "max": [
        119.0
      ],
      "min": [
        0.0
      ]
    },
    {
      "bufferView": 31,
      "componentType": 5126,
      "count": 120,
      "type": "VEC2",
      "max": [
        9.97,
        4.9462633
      ],
      "min": [
        -9.97,
        -4.9462633
      ]
    },
    {
      "bufferView": 32,
      "componentType": 5126,
      "count": 398,
      "type": "VEC3",
      "max": [
        3.5527137E-15,
        0.05,
        0.05
      ],
      "min": [
        -0.14,
        -0.05,
        -0.05
      ]
    },
    {
      "bufferView": 33,
      "componentType": 5126,
      "count": 398,
      "type": "VEC3",
      "max": [
        1.0,
        0.98768836,
        0.98768836
      ],
      "min": [
        -1.0,
        -0.98768836,
        -0.98768836
      ]
    },
    {
      "bufferView": 34,
      "componentType": 5123,
      "count": 816,
      "type": "SCALAR",
      "max": [
        397.0
      ],
      "min": [
        0.0
      ]
    },
    {
      "bufferView": 35,
      "componentType": 5126,
      "count": 398,
      "type": "VEC2",
      "max": [
        0.14,
        0.05
      ],
      "min": [
        -0.14,
        -0.05
      ]
    }
  ],
  "asset": {
    "generator": "hypar-gltf",
    "version": "2.0"
  },
  "buffers": [
    {
      "uri": "PipeWithTwoReducers_0.bin",
      "byteLength": 154496
    }
  ],
  "bufferViews": [
    {
      "buffer": 0,
      "byteLength": 4776
    },
    {
      "buffer": 0,
      "byteOffset": 4776,
      "byteLength": 4776
    },
    {
      "buffer": 0,
      "byteOffset": 9552,
      "byteLength": 1632
    },
    {
      "buffer": 0,
      "byteOffset": 11184,
      "byteLength": 3184
    },
    {
      "buffer": 0,
      "byteOffset": 14368,
      "byteLength": 1440
    },
    {
      "buffer": 0,
      "byteOffset": 15808,
      "byteLength": 1440
    },
    {
      "buffer": 0,
      "byteOffset": 17248,
      "byteLength": 456
    },
    {
      "buffer": 0,
      "byteOffset": 17704,
      "byteLength": 960
    },
    {
      "buffer": 0,
      "byteOffset": 18664,
      "byteLength": 9048
    },
    {
      "buffer": 0,
      "byteOffset": 27712,
      "byteLength": 9048
    },
    {
      "buffer": 0,
      "byteOffset": 36760,
      "byteLength": 3048
    },
    {
      "buffer": 0,
      "byteOffset": 39808,
      "byteLength": 6032
    },
    {
      "buffer": 0,
      "byteOffset": 45840,
      "byteLength": 9708
    },
    {
      "buffer": 0,
      "byteOffset": 55548,
      "byteLength": 9708
    },
    {
      "buffer": 0,
      "byteOffset": 65256,
      "byteLength": 3354
    },
    {
      "buffer": 0,
      "byteOffset": 68612,
      "byteLength": 6472
    },
    {
      "buffer": 0,
      "byteOffset": 75084,
      "byteLength": 1440
    },
    {
      "buffer": 0,
      "byteOffset": 76524,
      "byteLength": 1440
    },
    {
      "buffer": 0,
      "byteOffset": 77964,
      "byteLength": 456
    },
    {
      "buffer": 0,
      "byteOffset": 78420,
      "byteLength": 960
    },
    {
      "buffer": 0,
      "byteOffset": 79380,
      "byteLength": 9720
    },
    {
      "buffer": 0,
      "byteOffset": 89100,
      "byteLength": 9720
    },
    {
      "buffer": 0,
      "byteOffset": 98820,
      "byteLength": 3354
    },
    {
      "buffer": 0,
      "byteOffset": 102176,
      "byteLength": 6480
    },
    {
      "buffer": 0,
      "byteOffset": 108656,
      "byteLength": 9048
    },
    {
      "buffer": 0,
      "byteOffset": 117704,
      "byteLength": 9048
    },
    {
      "buffer": 0,
      "byteOffset": 126752,
      "byteLength": 3048
    },
    {
      "buffer": 0,
      "byteOffset": 129800,
      "byteLength": 6032
    },
    {
      "buffer": 0,
      "byteOffset": 135832,
      "byteLength": 1440
    },
    {
      "buffer": 0,
      "byteOffset": 137272,
      "byteLength": 1440
    },
    {
      "buffer": 0,
      "byteOffset": 138712,
      "byteLength": 456
    },
    {
      "buffer": 0,
      "byteOffset": 139168,
      "byteLength": 960
    },
    {
      "buffer": 0,
      "byteOffset": 140128,
      "byteLength": 4776
    },
    {
      "buffer": 0,
      "byteOffset": 144904,
      "byteLength": 4776
    },
    {
      "buffer": 0,
      "byteOffset": 149680,
      "byteLength": 1632
    },
    {
      "buffer": 0,
      "byteOffset": 151312,
      "byteLength": 3184
    }
  ],
  "materials": [
    {
      "name": "7298d643-9049-4a2b-960d-ae775b50fd80",
      "extensions": {
        "KHR_materials_specular": {
          "specularFactor": 0.0,
          "specularColorFactor": [
            1.0,
            1.0,
            1.0
          ]
        },
        "KHR_materials_ior": {
          "ior": 1000
        }
      },
      "pbrMetallicRoughness": {
        "baseColorFactor": [
          0.0,
          0.0,
          0.0,
          1.0
        ],
        "metallicFactor": 0.0
      }
    },
    {
      "name": "2ef7eb48-f7b3-4244-b8b9-a210dab1e445",
      "extensions": {
        "KHR_materials_specular": {
          "specularFactor": 1.0,
          "specularColorFactor": [
            1.0,
            1.0,
            1.0
          ]
        },
        "KHR_materials_ior": {
          "ior": 1000
        }
      },
      "pbrMetallicRoughness": {
        "baseColorFactor": [
          0.0,
          0.13286832,
          0.13286832,
          0.4
        ],
        "metallicFactor": 0.0,
        "roughnessFactor": 0.0
      },
      "alphaMode": "BLEND"
    }
  ],
  "meshes": [
    {
      "primitives": [
        {
          "attributes": {
            "NORMAL": 1,
            "POSITION": 0,
            "TEXCOORD_0": 3
          },
          "indices": 2,
          "material": 0
        }
      ],
      "name": "e1c05a21-f1e6-4f53-b159-9792b700bc71_mesh"
    },
    {
      "primitives": [
        {
          "attributes": {
            "NORMAL": 5,
            "POSITION": 4,
            "TEXCOORD_0": 7
          },
          "indices": 6,
          "material": 1
        }
      ],
      "name": "8c499a98-c766-4e5e-8369-7ea96ce9fa4c_mesh"
    },
    {
      "primitives": [
        {
          "attributes": {
            "NORMAL": 9,
            "POSITION": 8,
            "TEXCOORD_0": 11
          },
          "indices": 10,
          "material": 0
        }
      ],
      "name": "756edae6-5596-47ab-8aa8-e7a329296a6c_mesh"
    },
    {
      "primitives": [
        {
          "attributes": {
            "NORMAL": 13,
            "POSITION": 12,
            "TEXCOORD_0": 15
          },
          "indices": 14,
          "material": 0
        }
      ],
      "name": "91ed8e66-eb9c-4e63-a87a-aa8a9010119c_mesh"
    },
    {
      "primitives": [
        {
          "attributes": {
            "NORMAL": 17,
            "POSITION": 16,
            "TEXCOORD_0": 19
          },
          "indices": 18,
          "material": 1
        }
      ],
      "name": "97a3ce5d-563e-4426-8da0-d62bf2e0d355_mesh"
    },
    {
      "primitives": [
        {
          "attributes": {
            "NORMAL": 21,
            "POSITION": 20,
            "TEXCOORD_0": 23
          },
          "indices": 22,
          "material": 0
        }
      ],
      "name": "de61075b-d4ce-4f35-b230-649b32c3223d_mesh"
    },
    {
      "primitives": [
        {
          "attributes": {
            "NORMAL": 25,
            "POSITION": 24,
            "TEXCOORD_0": 27
          },
          "indices": 26,
          "material": 0
        }
      ],
      "name": "3ef41aed-7282-4e76-938f-bd0a846026c0_mesh"
    },
    {
      "primitives": [
        {
          "attributes": {
            "NORMAL": 29,
            "POSITION": 28,
            "TEXCOORD_0": 31
          },
          "indices": 30,
          "material": 1
        }
      ],
      "name": "0840db5e-8c83-4d2e-ae4b-dda8b70aa4d9_mesh"
    },
    {
      "primitives": [
        {
          "attributes": {
            "NORMAL": 33,
            "POSITION": 32,
            "TEXCOORD_0": 35
          },
          "indices": 34,
          "material": 0
        }
      ],
      "name": "771552b3-da3b-4a38-844b-232215127168_mesh"
    }
  ],
  "nodes": [
    {
      "children": [
        1,
        3,
        5,
        7,
        9,
        11,
        13,
        15,
        17
      ],
      "matrix": [
        1.0,
        0.0,
        0.0,
        0.0,
        0.0,
        6.123234E-17,
        -1.0,
        0.0,
        0.0,
        1.0,
        6.123234E-17,
        0.0,
        0.0,
        0.0,
        0.0,
        1.0
      ]
    },
    {
      "children": [
        2
      ],
      "extensions": {
        "HYPAR_info": {
          "id": "e1c05a21-f1e6-4f53-b159-9792b700bc71"
        }
      }
    },
    {
      "mesh": 0
    },
    {
      "children": [
        4
      ],
      "extensions": {
        "HYPAR_info": {
          "id": "8c499a98-c766-4e5e-8369-7ea96ce9fa4c"
        }
      }
    },
    {
      "mesh": 1
    },
    {
      "children": [
        6
      ],
      "matrix": [
        1.0,
        0.0,
        0.0,
        0.0,
        0.0,
        1.0,
        0.0,
        0.0,
        0.0,
        0.0,
        1.0,
        0.0,
        5.0,
        0.0,
        0.0,
        1.0
      ],
      "extensions": {
        "HYPAR_info": {
          "id": "756edae6-5596-47ab-8aa8-e7a329296a6c"
        }
      }
    },
    {
      "mesh": 2
    },
    {
      "children": [
        8
      ],
      "matrix": [
        1.0,
        0.0,
        0.0,
        0.0,
        0.0,
        1.0,
        0.0,
        0.0,
        0.0,
        0.0,
        1.0,
        0.0,
        5.0,
        0.15,
        0.0,
        1.0
      ],
      "extensions": {
        "HYPAR_info": {
          "id": "91ed8e66-eb9c-4e63-a87a-aa8a9010119c"
        }
      }
    },
    {
      "mesh": 3
    },
    {
      "children": [
        10
      ],
      "extensions": {
        "HYPAR_info": {
          "id": "97a3ce5d-563e-4426-8da0-d62bf2e0d355"
        }
      }
    },
    {
      "mesh": 4
    },
    {
      "children": [
        12
      ],
      "matrix": [
        1.0,
        0.0,
        0.0,
        0.0,
        0.0,
        1.0,
        0.0,
        0.0,
        0.0,
        0.0,
        1.0,
        0.0,
        5.0,
        4.85,
        0.025,
        1.0
      ],
      "extensions": {
        "HYPAR_info": {
          "id": "de61075b-d4ce-4f35-b230-649b32c3223d"
        }
      }
    },
    {
      "mesh": 5
    },
    {
      "children": [
        14
      ],
      "matrix": [
        1.0,
        0.0,
        0.0,
        0.0,
        0.0,
        1.0,
        0.0,
        0.0,
        0.0,
        0.0,
        1.0,
        0.0,
        5.0,
        5.0,
        0.0,
        1.0
      ],
      "extensions": {
        "HYPAR_info": {
          "id": "3ef41aed-7282-4e76-938f-bd0a846026c0"
        }
      }
    },
    {
      "mesh": 6
    },
    {
      "children": [
        16
      ],
      "extensions": {
        "HYPAR_info": {
          "id": "0840db5e-8c83-4d2e-ae4b-dda8b70aa4d9"
        }
      }
    },
    {
      "mesh": 7
    },
    {
      "children": [
        18
      ],
      "matrix": [
        1.0,
        0.0,
        0.0,
        0.0,
        0.0,
        1.0,
        0.0,
        0.0,
        0.0,
        0.0,
        1.0,
        0.0,
        10.0,
        5.0,
        0.0,
        1.0
      ],
      "extensions": {
        "HYPAR_info": {
          "id": "771552b3-da3b-4a38-844b-232215127168"
        }
      }
    },
    {
      "mesh": 8
    }
  ],
  "scene": 0,
  "scenes": [
    {
      "nodes": [
        0
      ]
    }
  ]
}