{
  "extensionsUsed": [
    "KHR_materials_specular",
    "KHR_materials_ior",
    "KHR_materials_unlit",
    "HYPAR_info"
  ],
  "accessors": [
    {
      "bufferView": 0,
      "componentType": 5126,
      "count": 398,
      "type": "VEC3",
      "max": [
        0.02,
        0.14,
        0.02
      ],
      "min": [
        -0.02,
        0.0,
        -0.02
      ]
    },
    {
      "bufferView": 1,
      "componentType": 5126,
      "count": 398,
      "type": "VEC3",
      "max": [
        0.98768836,
        1.0,
        0.98768836
      ],
      "min": [
        -0.98768836,
        -1.0,
        -0.98768836
      ]
    },
    {
      "bufferView": 2,
      "componentType": 5123,
      "count": 816,
      "type": "SCALAR",
      "max": [
        397.0
      ],
      "min": [
        0.0
      ]
    },
    {
      "bufferView": 3,
      "componentType": 5126,
      "count": 398,
      "type": "VEC2",
      "max": [
        0.14,
        0.02
      ],
      "min": [
        -0.14,
        -0.02
      ]
    },
    {
      "bufferView": 4,
      "componentType": 5126,
      "count": 120,
      "type": "VEC3",
      "max": [
        1.02,
        2.956,
        0.02
      ],
      "min": [
        0.98,
        1.03,
        -0.02
      ]
    },
    {
      "bufferView": 5,
      "componentType": 5126,
      "count": 120,
      "type": "VEC3",
      "max": [
        0.98768836,
        1.0,
        0.98768836
      ],
      "min": [
        -0.98768836,
        -1.0,
        -0.98768836
      ]
    },
    {
      "bufferView": 6,
      "componentType": 5123,
      "count": 228,
      "type": "SCALAR",
      "max": [
        119.0
      ],
      "min": [
        0.0
      ]
    },
    {
      "bufferView": 7,
      "componentType": 5126,
      "count": 120,
      "type": "VEC2",
      "max": [
        2.956,
        0.990817
      ],
      "min": [
        -2.956,
        -0.990817
      ]
    },
    {
      "bufferView": 8,
      "componentType": 5126,
      "count": 754,
      "type": "VEC3",
      "max": [
        0.02,
        0.02,
        0.02
      ],
      "min": [
        -0.154,
        -0.154,
        -0.02
      ]
    },
    {
      "bufferView": 9,
      "componentType": 5126,
      "count": 754,
      "type": "VEC3",
      "max": [
        1.0,
        1.0,
        0.98768836
      ],
      "min": [
        -1.0,
        -1.0,
        -0.98768836
      ]
    },
    {
      "bufferView": 10,
      "componentType": 5123,
      "count": 1524,
      "type": "SCALAR",
      "max": [
        753.0
      ],
      "min": [
        0.0
      ]
    },
    {
      "bufferView": 11,
      "componentType": 5126,
      "count": 754,
      "type": "VEC2",
      "max": [
        0.154,
        0.02
      ],
      "min": [
        -0.154,
        -0.02
      ]
    },
    {
      "bufferView": 12,
      "componentType": 5126,
      "count": 120,
      "type": "VEC3",
      "max": [
        0.956,
        3.02,
        0.02
      ],
      "min": [
        0.756,
        2.98,
        -0.02
      ]
    },
    {
      "bufferView": 13,
      "componentType": 5126,
      "count": 120,
      "type": "VEC3",
      "max": [
        1.0,
        0.98768836,
        0.98768836
      ],
      "min": [
        -1.0,
        -0.98768836,
        -0.98768836
      ]
    },
    {
      "bufferView": 14,
      "componentType": 5123,
      "count": 228,
      "type": "SCALAR",
      "max": [
        119.0
      ],
      "min": [
        0.0
      ]
    },
    {
      "bufferView": 15,
      "componentType": 5126,
      "count": 120,
      "type": "VEC2",
      "max": [
        3.02,
        2.9661937
      ],
      "min": [
        -3.02,
        -2.9661937
      ]
    },
    {
      "bufferView": 16,
      "componentType": 5126,
      "count": 816,
      "type": "VEC3",
      "max": [
        0.125,
        0.03,
        0.03
      ],
      "min": [
        -0.125,
        -0.03,
        -0.03
      ]
    },
    {
      "bufferView": 17,
      "componentType": 5126,
      "count": 816,
      "type": "VEC3",
      "max": [
        1.0,
        0.98768836,
        0.98768836
      ],
      "min": [
        -1.0,
        -0.98768836,
        -0.98768836
      ]
    },
    {
      "bufferView": 18,
      "componentType": 5123,
      "count": 1698,
      "type": "SCALAR",
      "max": [
        815.0
      ],
      "min": [
        0.0
      ]
    },
    {
      "bufferView": 19,
      "componentType": 5126,
      "count": 816,
      "type": "VEC2",
      "max": [
        0.125,
        0.03
      ],
      "min": [
        -0.125,
        -0.03
      ]
    },
    {
      "bufferView": 20,
      "componentType": 5126,
      "count": 120,
      "type": "VEC3",
      "max": [
        0.726,
        3.03,
        0.03
      ],
      "min": [
        0.06,
        2.97,
        -0.03
      ]
    },
    {
      "bufferView": 21,
      "componentType": 5126,
      "count": 120,
      "type": "VEC3",
      "max": [
        1.0,
        0.98768836,
        0.98768836
      ],
      "min": [
        -1.0,
        -0.98768836,
        -0.98768836
      ]
    },
    {
      "bufferView": 22,
      "componentType": 5123,
      "count": 228,
      "type": "SCALAR",
      "max": [
        119.0
      ],
      "min": [
        0.0
      ]
    },
    {
      "bufferView": 23,
      "componentType": 5126,
      "count": 120,
      "type": "VEC2",
      "max": [
        3.03,
        2.967758
      ],
      "min": [
        -3.03,
        -2.967758
      ]
    },
    {
      "bufferView": 24,
      "componentType": 5126,
      "count": 816,
      "type": "VEC3",
      "max": [
        0.125,
        0.03,
        0.03
      ],
      "min": [
        -0.125,
        -0.03,
        -0.03
      ]
    },
    {
      "bufferView": 25,
      "componentType": 5126,
      "count": 816,
      "type": "VEC3",
      "max": [
        1.0,
        0.98768836,
        0.98768836
      ],
      "min": [
        -1.0,
        -0.98768836,
        -0.98768836
      ]
    },
    {
      "bufferView": 26,
      "componentType": 5123,
      "count": 1698,
      "type": "SCALAR",
      "max": [
        815.0
      ],
      "min": [
        0.0
      ]
    },
    {
      "bufferView": 27,
      "componentType": 5126,
      "count": 816,
      "type": "VEC2",
      "max": [
        0.125,
        0.03
      ],
      "min": [
        -0.125,
        -0.03
      ]
    },
    {
      "bufferView": 28,
      "componentType": 5126,
      "count": 398,
      "type": "VEC3",
      "max": [
        0.14,
        0.02,
        0.02
      ],
      "min": [
        0.0,
        -0.02,
        -0.02
      ]
    },
    {
      "bufferView": 29,
      "componentType": 5126,
      "count": 398,
      "type": "VEC3",
      "max": [
        1.0,
        0.98768836,
        0.98768836
      ],
      "min": [
        -1.0,
        -0.98768836,
        -0.98768836
      ]
    },
    {
      "bufferView": 30,
      "componentType": 5123,
      "count": 816,
      "type": "SCALAR",
      "max": [
        397.0
      ],
      "min": [
        0.0
      ]
    },
    {
      "bufferView": 31,
      "componentType": 5126,
      "count": 398,
      "type": "VEC2",
      "max": [
        0.14,
        0.02
      ],
      "min": [
        -0.14,
        -0.02
      ]
    }
  ],
  "asset": {
    "generator": "hypar-gltf",
    "version": "2.0"
  },
  "buffers": [
    {
      "uri": "pipe_operations_0.bin",
      "byteLength": 127816
    }
  ],
  "bufferViews": [
    {
      "buffer": 0,
      "byteLength": 4776
    },
    {
      "buffer": 0,
      "byteOffset": 4776,
      "byteLength": 4776
    },
    {
      "buffer": 0,
      "byteOffset": 9552,
      "byteLength": 1632
    },
    {
      "buffer": 0,
      "byteOffset": 11184,
      "byteLength": 3184
    },
    {
      "buffer": 0,
      "byteOffset": 14368,
      "byteLength": 1440
    },
    {
      "buffer": 0,
      "byteOffset": 15808,
      "byteLength": 1440
    },
    {
      "buffer": 0,
      "byteOffset": 17248,
      "byteLength": 456
    },
    {
      "buffer": 0,
      "byteOffset": 17704,
      "byteLength": 960
    },
    {
      "buffer": 0,
      "byteOffset": 18664,
      "byteLength": 9048
    },
    {
      "buffer": 0,
      "byteOffset": 27712,
      "byteLength": 9048
    },
    {
      "buffer": 0,
      "byteOffset": 36760,
      "byteLength": 3048
    },
    {
      "buffer": 0,
      "byteOffset": 39808,
      "byteLength": 6032
    },
    {
      "buffer": 0,
      "byteOffset": 45840,
      "byteLength": 1440
    },
    {
      "buffer": 0,
      "byteOffset": 47280,
      "byteLength": 1440
    },
    {
      "buffer": 0,
      "byteOffset": 48720,
      "byteLength": 456
    },
    {
      "buffer": 0,
      "byteOffset": 49176,
      "byteLength": 960
    },
    {
      "buffer": 0,
      "byteOffset": 50136,
      "byteLength": 9792
    },
    {
      "buffer": 0,
      "byteOffset": 59928,
      "byteLength": 9792
    },
    {
      "buffer": 0,
      "byteOffset": 69720,
      "byteLength": 3396
    },
    {
      "buffer": 0,
      "byteOffset": 73116,
      "byteLength": 6528
    },
    {
      "buffer": 0,
      "byteOffset": 79644,
      "byteLength": 1440
    },
    {
      "buffer": 0,
      "byteOffset": 81084,
      "byteLength": 1440
    },
    {
      "buffer": 0,
      "byteOffset": 82524,
      "byteLength": 456
    },
    {
      "buffer": 0,
      "byteOffset": 82980,
      "byteLength": 960
    },
    {
      "buffer": 0,
      "byteOffset": 83940,
      "byteLength": 9792
    },
    {
      "buffer": 0,
      "byteOffset": 93732,
      "byteLength": 9792
    },
    {
      "buffer": 0,
      "byteOffset": 103524,
      "byteLength": 3396
    },
    {
      "buffer": 0,
      "byteOffset": 106920,
      "byteLength": 6528
    },
    {
      "buffer": 0,
      "byteOffset": 113448,
      "byteLength": 4776
    },
    {
      "buffer": 0,
      "byteOffset": 118224,
      "byteLength": 4776
    },
    {
      "buffer": 0,
      "byteOffset": 123000,
      "byteLength": 1632
    },
    {
      "buffer": 0,
      "byteOffset": 124632,
      "byteLength": 3184
    }
  ],
  "materials": [
    {
      "name": "7298d643-9049-4a2b-960d-ae775b50fd80",
      "extensions": {
        "KHR_materials_specular": {
          "specularFactor": 0.0,
          "specularColorFactor": [
            1.0,
            1.0,
            1.0
          ]
        },
        "KHR_materials_ior": {
          "ior": 1000
        }
      },
      "pbrMetallicRoughness": {
        "baseColorFactor": [
          0.0,
          0.0,
          0.0,
          1.0
        ],
        "metallicFactor": 0.0
      }
    },
    {
      "name": "ac4653cf-2215-4377-887c-57383fd4bb4b",
      "extensions": {
        "KHR_materials_specular": {
          "specularFactor": 1.0,
          "specularColorFactor": [
            1.0,
            1.0,
            1.0
          ]
        },
        "KHR_materials_ior": {
          "ior": 1000
        }
      },
      "pbrMetallicRoughness": {
        "baseColorFactor": [
          0.0,
          0.13286832,
          0.13286832,
          0.4
        ],
        "metallicFactor": 0.0,
        "roughnessFactor": 0.0
      },
      "alphaMode": "BLEND"
    }
  ],
  "meshes": [
    {
      "primitives": [
        {
          "attributes": {
            "NORMAL": 1,
            "POSITION": 0,
            "TEXCOORD_0": 3
          },
          "indices": 2,
          "material": 0
        }
      ],
      "name": "12623515-cb7f-453f-a4f6-414e947f8a34_mesh"
    },
    {
      "primitives": [
        {
          "attributes": {
            "NORMAL": 5,
            "POSITION": 4,
            "TEXCOORD_0": 7
          },
          "indices": 6,
          "material": 1
        }
      ],
      "name": "498fbdc2-6730-41cc-9a3c-d4dedb089853_mesh"
    },
    {
      "primitives": [
        {
          "attributes": {
            "NORMAL": 9,
            "POSITION": 8,
            "TEXCOORD_0": 11
          },
          "indices": 10,
          "material": 0
        }
      ],
      "name": "a980ba44-6a58-434a-82ef-2123910a7d33_mesh"
    },
    {
      "primitives": [
        {
          "attributes": {
            "NORMAL": 13,
            "POSITION": 12,
            "TEXCOORD_0": 15
          },
          "indices": 14,
          "material": 1
        }
      ],
      "name": "2048bc7f-cb97-43e5-96fe-71f2f17d04d0_mesh"
    },
    {
      "primitives": [
        {
          "attributes": {
            "NORMAL": 17,
            "POSITION": 16,
            "TEXCOORD_0": 19
          },
          "indices": 18,
          "material": 0
        }
      ],
      "name": "367a3371-acba-4743-97e5-de2f3f6e1edc_mesh"
    },
    {
      "primitives": [
        {
          "attributes": {
            "NORMAL": 21,
            "POSITION": 20,
            "TEXCOORD_0": 23
          },
          "indices": 22,
          "material": 1
        }
      ],
      "name": "ee8fcd8e-018f-4152-a28e-61d81cb211d3_mesh"
    },
    {
      "primitives": [
        {
          "attributes": {
            "NORMAL": 25,
            "POSITION": 24,
            "TEXCOORD_0": 27
          },
          "indices": 26,
          "material": 0
        }
      ],
      "name": "33c7b017-f933-44af-be54-83e16872847e_mesh"
    },
    {
      "primitives": [
        {
          "attributes": {
            "NORMAL": 29,
            "POSITION": 28,
            "TEXCOORD_0": 31
          },
          "indices": 30,
          "material": 0
        }
      ],
      "name": "6aeaa129-ff40-4896-b853-5e4e09e6cbcd_mesh"
    }
  ],
  "nodes": [
    {
      "children": [
        1,
        3,
        5,
        7,
        9,
        11,
        13,
        15
      ],
      "matrix": [
        1.0,
        0.0,
        0.0,
        0.0,
        0.0,
        6.123234E-17,
        -1.0,
        0.0,
        0.0,
        1.0,
        6.123234E-17,
        0.0,
        0.0,
        0.0,
        0.0,
        1.0
      ]
    },
    {
      "children": [
        2
      ],
      "matrix": [
        1.0,
        0.0,
        0.0,
        0.0,
        0.0,
        1.0,
        0.0,
        0.0,
        0.0,
        0.0,
        1.0,
        0.0,
        1.0,
        1.0,
        0.0,
        1.0
      ],
      "extensions": {
        "HYPAR_info": {
          "id": "12623515-cb7f-453f-a4f6-414e947f8a34"
        }
      }
    },
    {
      "mesh": 0
    },
    {
      "children": [
        4
      ],
      "extensions": {
        "HYPAR_info": {
          "id": "498fbdc2-6730-41cc-9a3c-d4dedb089853"
        }
      }
    },
    {
      "mesh": 1
    },
    {
      "children": [
        6
      ],
      "matrix": [
        1.0,
        0.0,
        0.0,
        0.0,
        0.0,
        1.0,
        0.0,
        0.0,
        0.0,
        0.0,
        1.0,
        0.0,
        1.0,
        3.0,
        0.0,
        1.0
      ],
      "extensions": {
        "HYPAR_info": {
          "id": "a980ba44-6a58-434a-82ef-2123910a7d33"
        }
      }
    },
    {
      "mesh": 2
    },
    {
      "children": [
        8
      ],
      "extensions": {
        "HYPAR_info": {
          "id": "2048bc7f-cb97-43e5-96fe-71f2f17d04d0"
        }
      }
    },
    {
      "mesh": 3
    },
    {
      "children": [
        10
      ],
      "matrix": [
        1.0,
        0.0,
        0.0,
        0.0,
        0.0,
        1.0,
        0.0,
        0.0,
        0.0,
        0.0,
        1.0,
        0.0,
        0.741,
        3.0,
        0.0,
        1.0
      ],
      "extensions": {
        "HYPAR_info": {
          "id": "367a3371-acba-4743-97e5-de2f3f6e1edc"
        }
      }
    },
    {
      "mesh": 4
    },
    {
      "children": [
        12
      ],
      "extensions": {
        "HYPAR_info": {
          "id": "ee8fcd8e-018f-4152-a28e-61d81cb211d3"
        }
      }
    },
    {
      "mesh": 5
    },
    {
      "children": [
        14
      ],
      "matrix": [
        1.0,
        0.0,
        0.0,
        0.0,
        0.0,
        1.0,
        0.0,
        0.0,
        0.0,
        0.0,
        1.0,
        0.0,
        0.045,
        3.0,
        0.0,
        1.0
      ],
      "extensions": {
        "HYPAR_info": {
          "id": "33c7b017-f933-44af-be54-83e16872847e"
        }
      }
    },
    {
      "mesh": 6
    },
    {
      "children": [
        16
      ],
      "matrix": [
        1.0,
        0.0,
        0.0,
        0.0,
        0.0,
        1.0,
        0.0,
        0.0,
        0.0,
        0.0,
        1.0,
        0.0,
        0.0,
        3.0,
        0.0,
        1.0
      ],
      "extensions": {
        "HYPAR_info": {
          "id": "6aeaa129-ff40-4896-b853-5e4e09e6cbcd"
        }
      }
    },
    {
      "mesh": 7
    }
  ],
  "scene": 0,
  "scenes": [
    {
      "nodes": [
        0
      ]
    }
  ]
}