{
  "extensionsUsed": [
    "KHR_materials_specular",
    "KHR_materials_ior",
    "KHR_materials_unlit",
    "HYPAR_info"
  ],
  "accessors": [
    {
      "bufferView": 0,
      "componentType": 5126,
      "count": 398,
      "type": "VEC3",
      "max": [
        0.14,
        0.05,
        0.05
      ],
      "min": [
        0.0,
        -0.05,
        -0.05
      ]
    },
    {
      "bufferView": 1,
      "componentType": 5126,
      "count": 398,
      "type": "VEC3",
      "max": [
        1.0,
        0.98768836,
        0.98768836
      ],
      "min": [
        -1.0,
        -0.98768836,
        -0.98768836
      ]
    },
    {
      "bufferView": 2,
      "componentType": 5123,
      "count": 816,
      "type": "SCALAR",
      "max": [
        397.0
      ],
      "min": [
        0.0
      ]
    },
    {
      "bufferView": 3,
      "componentType": 5126,
      "count": 398,
      "type": "VEC2",
      "max": [
        0.14,
        0.05
      ],
      "min": [
        -0.14,
        -0.05
      ]
    },
    {
      "bufferView": 4,
      "componentType": 5126,
      "count": 120,
      "type": "VEC3",
      "max": [
        4.89,
        0.05,
        0.05
      ],
      "min": [
        0.03,
        -0.05,
        -0.05
      ]
    },
    {
      "bufferView": 5,
      "componentType": 5126,
      "count": 120,
      "type": "VEC3",
      "max": [
        1.0,
        0.98768836,
        0.98768836
      ],
      "min": [
        -1.0,
        -0.98768836,
        -0.98768836
      ]
    },
    {
      "bufferView": 6,
      "componentType": 5123,
      "count": 228,
      "type": "SCALAR",
      "max": [
        119.0
      ],
      "min": [
        0.0
      ]
    },
    {
      "bufferView": 7,
      "componentType": 5126,
      "count": 120,
      "type": "VEC2",
      "max": [
        4.89,
        0.05
      ],
      "min": [
        -4.89,
        -0.05
      ]
    },
    {
      "bufferView": 8,
      "componentType": 5126,
      "count": 754,
      "type": "VEC3",
      "max": [
        0.05,
        0.22,
        0.05
      ],
      "min": [
        -0.22,
        -0.05,
        -0.05
      ]
    },
    {
      "bufferView": 9,
      "componentType": 5126,
      "count": 754,
      "type": "VEC3",
      "max": [
        1.0,
        1.0,
        0.98768836
      ],
      "min": [
        -1.0,
        -1.0,
        -0.98768836
      ]
    },
    {
      "bufferView": 10,
      "componentType": 5123,
      "count": 1524,
      "type": "SCALAR",
      "max": [
        753.0
      ],
      "min": [
        0.0
      ]
    },
    {
      "bufferView": 11,
      "componentType": 5126,
      "count": 754,
      "type": "VEC2",
      "max": [
        0.22,
        0.05
      ],
      "min": [
        -0.22,
        -0.05
      ]
    },
    {
      "bufferView": 12,
      "componentType": 5126,
      "count": 816,
      "type": "VEC3",
      "max": [
        0.05,
        0.15,
        0.05
      ],
      "min": [
        -0.05,
        -0.15,
        -0.05
      ]
    },
    {
      "bufferView": 13,
      "componentType": 5126,
      "count": 816,
      "type": "VEC3",
      "max": [
        0.98768836,
        1.0,
        0.98768836
      ],
      "min": [
        -0.98768836,
        -1.0,
        -0.98768836
      ]
    },
    {
      "bufferView": 14,
      "componentType": 5123,
      "count": 1698,
      "type": "SCALAR",
      "max": [
        815.0
      ],
      "min": [
        0.0
      ]
    },
    {
      "bufferView": 15,
      "componentType": 5126,
      "count": 816,
      "type": "VEC2",
      "max": [
        0.15,
        0.05
      ],
      "min": [
        -0.15,
        -0.05
      ]
    },
    {
      "bufferView": 16,
      "componentType": 5126,
      "count": 120,
      "type": "VEC3",
      "max": [
        5.025,
        4.81,
        0.025
      ],
      "min": [
        4.975,
        0.19,
        -0.025
      ]
    },
    {
      "bufferView": 17,
      "componentType": 5126,
      "count": 120,
      "type": "VEC3",
      "max": [
        0.98768836,
        1.0,
        0.98768836
      ],
      "min": [
        -0.98768836,
        -1.0,
        -0.98768836
      ]
    },
    {
      "bufferView": 18,
      "componentType": 5123,
      "count": 228,
      "type": "SCALAR",
      "max": [
        119.0
      ],
      "min": [
        0.0
      ]
    },
    {
      "bufferView": 19,
      "componentType": 5126,
      "count": 120,
      "type": "VEC2",
      "max": [
        5.025,
        4.942353
      ],
      "min": [
        -5.025,
        -4.942353
      ]
    },
    {
      "bufferView": 20,
      "componentType": 5126,
      "count": 816,
      "type": "VEC3",
      "max": [
        0.05,
        0.15,
        0.05
      ],
      "min": [
        -0.05,
        -0.15,
        -0.05
      ]
    },
    {
      "bufferView": 21,
      "componentType": 5126,
      "count": 816,
      "type": "VEC3",
      "max": [
        0.98768836,
        1.0,
        0.98768836
      ],
      "min": [
        -0.98768836,
        -1.0,
        -0.98768836
      ]
    },
    {
      "bufferView": 22,
      "componentType": 5123,
      "count": 1698,
      "type": "SCALAR",
      "max": [
        815.0
      ],
      "min": [
        0.0
      ]
    },
    {
      "bufferView": 23,
      "componentType": 5126,
      "count": 816,
      "type": "VEC2",
      "max": [
        0.15,
        0.05
      ],
      "min": [
        -0.15,
        -0.05
      ]
    },
    {
      "bufferView": 24,
      "componentType": 5126,
      "count": 754,
      "type": "VEC3",
      "max": [
        0.22,
        0.05,
        0.05
      ],
      "min": [
        -0.05,
        -0.22,
        -0.05
      ]
    },
    {
      "bufferView": 25,
      "componentType": 5126,
      "count": 754,
      "type": "VEC3",
      "max": [
        1.0,
        1.0,
        0.98768836
      ],
      "min": [
        -1.0,
        -1.0,
        -0.98768836
      ]
    },
    {
      "bufferView": 26,
      "componentType": 5123,
      "count": 1524,
      "type": "SCALAR",
      "max": [
        753.0
      ],
      "min": [
        0.0
      ]
    },
    {
      "bufferView": 27,
      "componentType": 5126,
      "count": 754,
      "type": "VEC2",
      "max": [
        0.22,
        0.05
      ],
      "min": [
        -0.22,
        -0.05
      ]
    },
    {
      "bufferView": 28,
      "componentType": 5126,
      "count": 120,
      "type": "VEC3",
      "max": [
        9.97,
        5.05,
        0.05
      ],
      "min": [
        5.11,
        4.95,
        -0.05
      ]
    },
    {
      "bufferView": 29,
      "componentType": 5126,
      "count": 120,
      "type": "VEC3",
      "max": [
        1.0,
        0.98768836,
        0.98768836
      ],
      "min": [
        -1.0,
        -0.98768836,
        -0.98768836
      ]
    },
    {
      "bufferView": 30,
      "componentType": 5123,
      "count": 228,
      "type": "SCALAR",
      "max": [
        119.0
      ],
      "min": [
        0.0
      ]
    },
    {
      "bufferView": 31,
      "componentType": 5126,
      "count": 120,
      "type": "VEC2",
      "max": [
        9.97,
        4.9462633
      ],
      "min": [
        -9.97,
        -4.9462633
      ]
    },
    {
      "bufferView": 32,
      "componentType": 5126,
      "count": 398,
      "type": "VEC3",
      "max": [
        3.5527137E-15,
        0.05,
        0.05
      ],
      "min": [
        -0.14,
        -0.05,
        -0.05
      ]
    },
    {
      "bufferView": 33,
      "componentType": 5126,
      "count": 398,
      "type": "VEC3",
      "max": [
        1.0,
        0.98768836,
        0.98768836
      ],
      "min": [
        -1.0,
        -0.98768836,
        -0.98768836
      ]
    },
    {
      "bufferView": 34,
      "componentType": 5123,
      "count": 816,
      "type": "SCALAR",
      "max": [
        397.0
      ],
      "min": [
        0.0
      ]
    },
    {
      "bufferView": 35,
      "componentType": 5126,
      "count": 398,
      "type": "VEC2",
      "max": [
        0.14,
        0.05
      ],
      "min": [
        -0.14,
        -0.05
      ]
    }
  ],
  "asset": {
    "generator": "hypar-gltf",
    "version": "2.0"
  },
  "buffers": [
    {
      "uri": "PipeWithTwoReducers_0.bin",
      "byteLength": 154992
    }
  ],
  "bufferViews": [
    {
      "buffer": 0,
      "byteLength": 4776
    },
    {
      "buffer": 0,
      "byteOffset": 4776,
      "byteLength": 4776
    },
    {
      "buffer": 0,
      "byteOffset": 9552,
      "byteLength": 1632
    },
    {
      "buffer": 0,
      "byteOffset": 11184,
      "byteLength": 3184
    },
    {
      "buffer": 0,
      "byteOffset": 14368,
      "byteLength": 1440
    },
    {
      "buffer": 0,
      "byteOffset": 15808,
      "byteLength": 1440
    },
    {
      "buffer": 0,
      "byteOffset": 17248,
      "byteLength": 456
    },
    {
      "buffer": 0,
      "byteOffset": 17704,
      "byteLength": 960
    },
    {
      "buffer": 0,
      "byteOffset": 18664,
      "byteLength": 9048
    },
    {
      "buffer": 0,
      "byteOffset": 27712,
      "byteLength": 9048
    },
    {
      "buffer": 0,
      "byteOffset": 36760,
      "byteLength": 3048
    },
    {
      "buffer": 0,
      "byteOffset": 39808,
      "byteLength": 6032
    },
    {
      "buffer": 0,
      "byteOffset": 45840,
      "byteLength": 9792
    },
    {
      "buffer": 0,
      "byteOffset": 55632,
      "byteLength": 9792
    },
    {
      "buffer": 0,
      "byteOffset": 65424,
      "byteLength": 3396
    },
    {
      "buffer": 0,
      "byteOffset": 68820,
      "byteLength": 6528
    },
    {
      "buffer": 0,
      "byteOffset": 75348,
      "byteLength": 1440
    },
    {
      "buffer": 0,
      "byteOffset": 76788,
      "byteLength": 1440
    },
    {
      "buffer": 0,
      "byteOffset": 78228,
      "byteLength": 456
    },
    {
      "buffer": 0,
      "byteOffset": 78684,
      "byteLength": 960
    },
    {
      "buffer": 0,
      "byteOffset": 79644,
      "byteLength": 9792
    },
    {
      "buffer": 0,
      "byteOffset": 89436,
      "byteLength": 9792
    },
    {
      "buffer": 0,
      "byteOffset": 99228,
      "byteLength": 3396
    },
    {
      "buffer": 0,
      "byteOffset": 102624,
      "byteLength": 6528
    },
    {
      "buffer": 0,
      "byteOffset": 109152,
      "byteLength": 9048
    },
    {
      "buffer": 0,
      "byteOffset": 118200,
      "byteLength": 9048
    },
    {
      "buffer": 0,
      "byteOffset": 127248,
      "byteLength": 3048
    },
    {
      "buffer": 0,
      "byteOffset": 130296,
      "byteLength": 6032
    },
    {
      "buffer": 0,
      "byteOffset": 136328,
      "byteLength": 1440
    },
    {
      "buffer": 0,
      "byteOffset": 137768,
      "byteLength": 1440
    },
    {
      "buffer": 0,
      "byteOffset": 139208,
      "byteLength": 456
    },
    {
      "buffer": 0,
      "byteOffset": 139664,
      "byteLength": 960
    },
    {
      "buffer": 0,
      "byteOffset": 140624,
      "byteLength": 4776
    },
    {
      "buffer": 0,
      "byteOffset": 145400,
      "byteLength": 4776
    },
    {
      "buffer": 0,
      "byteOffset": 150176,
      "byteLength": 1632
    },
    {
      "buffer": 0,
      "byteOffset": 151808,
      "byteLength": 3184
    }
  ],
  "materials": [
    {
      "name": "7298d643-9049-4a2b-960d-ae775b50fd80",
      "extensions": {
        "KHR_materials_specular": {
          "specularFactor": 0.0,
          "specularColorFactor": [
            1.0,
            1.0,
            1.0
          ]
        },
        "KHR_materials_ior": {
          "ior": 1000
        }
      },
      "pbrMetallicRoughness": {
        "baseColorFactor": [
          0.0,
          0.0,
          0.0,
          1.0
        ],
        "metallicFactor": 0.0
      }
    },
    {
      "name": "ac4653cf-2215-4377-887c-57383fd4bb4b",
      "extensions": {
        "KHR_materials_specular": {
          "specularFactor": 1.0,
          "specularColorFactor": [
            1.0,
            1.0,
            1.0
          ]
        },
        "KHR_materials_ior": {
          "ior": 1000
        }
      },
      "pbrMetallicRoughness": {
        "baseColorFactor": [
          0.0,
          0.13286832,
          0.13286832,
          0.4
        ],
        "metallicFactor": 0.0,
        "roughnessFactor": 0.0
      },
      "alphaMode": "BLEND"
    }
  ],
  "meshes": [
    {
      "primitives": [
        {
          "attributes": {
            "NORMAL": 1,
            "POSITION": 0,
            "TEXCOORD_0": 3
          },
          "indices": 2,
          "material": 0
        }
      ],
      "name": "448deb51-e205-4f38-8345-4a4d8a78894a_mesh"
    },
    {
      "primitives": [
        {
          "attributes": {
            "NORMAL": 5,
            "POSITION": 4,
            "TEXCOORD_0": 7
          },
          "indices": 6,
          "material": 1
        }
      ],
      "name": "98344425-4d0c-416f-8bef-07941402a610_mesh"
    },
    {
      "primitives": [
        {
          "attributes": {
            "NORMAL": 9,
            "POSITION": 8,
            "TEXCOORD_0": 11
          },
          "indices": 10,
          "material": 0
        }
      ],
      "name": "6cbfb93d-c741-46bc-95be-fc73ce186c08_mesh"
    },
    {
      "primitives": [
        {
          "attributes": {
            "NORMAL": 13,
            "POSITION": 12,
            "TEXCOORD_0": 15
          },
          "indices": 14,
          "material": 0
        }
      ],
      "name": "d34225ff-65b2-48fa-be11-1a8c86a1c261_mesh"
    },
    {
      "primitives": [
        {
          "attributes": {
            "NORMAL": 17,
            "POSITION": 16,
            "TEXCOORD_0": 19
          },
          "indices": 18,
          "material": 1
        }
      ],
      "name": "4262d48c-a19c-4546-be6b-f4fa24e4aa39_mesh"
    },
    {
      "primitives": [
        {
          "attributes": {
            "NORMAL": 21,
            "POSITION": 20,
            "TEXCOORD_0": 23
          },
          "indices": 22,
          "material": 0
        }
      ],
      "name": "73d8ad93-a0bc-48b7-87bd-50c72e3075eb_mesh"
    },
    {
      "primitives": [
        {
          "attributes": {
            "NORMAL": 25,
            "POSITION": 24,
            "TEXCOORD_0": 27
          },
          "indices": 26,
          "material": 0
        }
      ],
      "name": "4e0281e9-017a-4a9a-bdb7-7bc425c37edc_mesh"
    },
    {
      "primitives": [
        {
          "attributes": {
            "NORMAL": 29,
            "POSITION": 28,
            "TEXCOORD_0": 31
          },
          "indices": 30,
          "material": 1
        }
      ],
      "name": "d975ba0a-d0a0-4c17-a973-ed14e7bb3684_mesh"
    },
    {
      "primitives": [
        {
          "attributes": {
            "NORMAL": 33,
            "POSITION": 32,
            "TEXCOORD_0": 35
          },
          "indices": 34,
          "material": 0
        }
      ],
      "name": "c3563244-540e-42d3-80ce-688177f33bf8_mesh"
    }
  ],
  "nodes": [
    {
      "children": [
        1,
        3,
        5,
        7,
        9,
        11,
        13,
        15,
        17
      ],
      "matrix": [
        1.0,
        0.0,
        0.0,
        0.0,
        0.0,
        6.123234E-17,
        -1.0,
        0.0,
        0.0,
        1.0,
        6.123234E-17,
        0.0,
        0.0,
        0.0,
        0.0,
        1.0
      ]
    },
    {
      "children": [
        2
      ],
      "extensions": {
        "HYPAR_info": {
          "id": "448deb51-e205-4f38-8345-4a4d8a78894a"
        }
      }
    },
    {
      "mesh": 0
    },
    {
      "children": [
        4
      ],
      "extensions": {
        "HYPAR_info": {
          "id": "98344425-4d0c-416f-8bef-07941402a610"
        }
      }
    },
    {
      "mesh": 1
    },
    {
      "children": [
        6
      ],
      "matrix": [
        1.0,
        0.0,
        0.0,
        0.0,
        0.0,
        1.0,
        0.0,
        0.0,
        0.0,
        0.0,
        1.0,
        0.0,
        5.0,
        0.0,
        0.0,
        1.0
      ],
      "extensions": {
        "HYPAR_info": {
          "id": "6cbfb93d-c741-46bc-95be-fc73ce186c08"
        }
      }
    },
    {
      "mesh": 2
    },
    {
      "children": [
        8
      ],
      "matrix": [
        1.0,
        0.0,
        0.0,
        0.0,
        0.0,
        1.0,
        0.0,
        0.0,
        0.0,
        0.0,
        1.0,
        0.0,
        5.0,
        0.15,
        0.0,
        1.0
      ],
      "extensions": {
        "HYPAR_info": {
          "id": "d34225ff-65b2-48fa-be11-1a8c86a1c261"
        }
      }
    },
    {
      "mesh": 3
    },
    {
      "children": [
        10
      ],
      "extensions": {
        "HYPAR_info": {
          "id": "4262d48c-a19c-4546-be6b-f4fa24e4aa39"
        }
      }
    },
    {
      "mesh": 4
    },
    {
      "children": [
        12
      ],
      "matrix": [
        1.0,
        0.0,
        0.0,
        0.0,
        0.0,
        1.0,
        0.0,
        0.0,
        0.0,
        0.0,
        1.0,
        0.0,
        5.0,
        4.85,
        0.0,
        1.0
      ],
      "extensions": {
        "HYPAR_info": {
          "id": "73d8ad93-a0bc-48b7-87bd-50c72e3075eb"
        }
      }
    },
    {
      "mesh": 5
    },
    {
      "children": [
        14
      ],
      "matrix": [
        1.0,
        0.0,
        0.0,
        0.0,
        0.0,
        1.0,
        0.0,
        0.0,
        0.0,
        0.0,
        1.0,
        0.0,
        5.0,
        5.0,
        0.0,
        1.0
      ],
      "extensions": {
        "HYPAR_info": {
          "id": "4e0281e9-017a-4a9a-bdb7-7bc425c37edc"
        }
      }
    },
    {
      "mesh": 6
    },
    {
      "children": [
        16
      ],
      "extensions": {
        "HYPAR_info": {
          "id": "d975ba0a-d0a0-4c17-a973-ed14e7bb3684"
        }
      }
    },
    {
      "mesh": 7
    },
    {
      "children": [
        18
      ],
      "matrix": [
        1.0,
        0.0,
        0.0,
        0.0,
        0.0,
        1.0,
        0.0,
        0.0,
        0.0,
        0.0,
        1.0,
        0.0,
        10.0,
        5.0,
        0.0,
        1.0
      ],
      "extensions": {
        "HYPAR_info": {
          "id": "c3563244-540e-42d3-80ce-688177f33bf8"
        }
      }
    },
    {
      "mesh": 8
    }
  ],
  "scene": 0,
  "scenes": [
    {
      "nodes": [
        0
      ]
    }
  ]
}