{
  "extensionsUsed": [
    "KHR_materials_specular",
    "KHR_materials_ior",
    "KHR_materials_unlit",
    "HYPAR_info"
  ],
  "accessors": [
    {
      "bufferView": 0,
      "componentType": 5126,
      "count": 816,
      "type": "VEC3",
      "max": [
        0.05,
        0.15,
        0.05
      ],
      "min": [
        -0.05,
        -0.15,
        -0.05
      ]
    },
    {
      "bufferView": 1,
      "componentType": 5126,
      "count": 816,
      "type": "VEC3",
      "max": [
        0.98768836,
        1.0,
        0.98768836
      ],
      "min": [
        -0.98768836,
        -1.0,
        -0.98768836
      ]
    },
    {
      "bufferView": 2,
      "componentType": 5123,
      "count": 1698,
      "type": "SCALAR",
      "max": [
        815.0
      ],
      "min": [
        0.0
      ]
    },
    {
      "bufferView": 3,
      "componentType": 5126,
      "count": 816,
      "type": "VEC2",
      "max": [
        0.15,
        0.05
      ],
      "min": [
        -0.15,
        -0.05
      ]
    }
  ],
  "asset": {
    "generator": "hypar-gltf",
    "version": "2.0"
  },
  "buffers": [
    {
      "uri": "reducer_0.bin",
      "byteLength": 29508
    }
  ],
  "bufferViews": [
    {
      "buffer": 0,
      "byteLength": 9792
    },
    {
      "buffer": 0,
      "byteOffset": 9792,
      "byteLength": 9792
    },
    {
      "buffer": 0,
      "byteOffset": 19584,
      "byteLength": 3396
    },
    {
      "buffer": 0,
      "byteOffset": 22980,
      "byteLength": 6528
    }
  ],
  "materials": [
    {
      "name": "f6fa27a7-dbe1-4bcf-823c-3d6d3c34876d",
      "extensions": {
        "KHR_materials_specular": {
          "specularFactor": 0.0,
          "specularColorFactor": [
            1.0,
            1.0,
            1.0
          ]
        },
        "KHR_materials_ior": {
          "ior": 1000
        }
      },
      "pbrMetallicRoughness": {
        "baseColorFactor": [
          0.74540424,
          0.6172066,
          0.32777813,
          1.0
        ],
        "metallicFactor": 0.0
      }
    }
  ],
  "meshes": [
    {
      "primitives": [
        {
          "attributes": {
            "NORMAL": 1,
            "POSITION": 0,
            "TEXCOORD_0": 3
          },
          "indices": 2,
          "material": 0
        }
      ],
      "name": "14008786-b78b-4a92-9d06-c0b5b3dcd0cb_mesh"
    }
  ],
  "nodes": [
    {
      "children": [
        1
      ],
      "matrix": [
        1.0,
        0.0,
        0.0,
        0.0,
        0.0,
        6.123234E-17,
        -1.0,
        0.0,
        0.0,
        1.0,
        6.123234E-17,
        0.0,
        0.0,
        0.0,
        0.0,
        1.0
      ]
    },
    {
      "children": [
        2
      ],
      "extensions": {
        "HYPAR_info": {
          "id": "14008786-b78b-4a92-9d06-c0b5b3dcd0cb"
        }
      }
    },
    {
      "mesh": 0
    }
  ],
  "scene": 0,
  "scenes": [
    {
      "nodes": [
        0
      ]
    }
  ]
}