{
  "extensionsUsed": [
    "KHR_materials_specular",
    "KHR_materials_ior",
    "KHR_materials_unlit",
    "HYPAR_info",
    "HYPAR_representation_info"
  ],
  "accessors": [
    {
      "bufferView": 0,
      "componentType": 5126,
      "count": 398,
      "type": "VEC3",
      "max": [
        0.05,
        0.14,
        0.05
      ],
      "min": [
        -0.05,
        -0.0,
        -0.05
      ]
    },
    {
      "bufferView": 1,
      "componentType": 5126,
      "count": 398,
      "type": "VEC3",
      "max": [
        0.98768836,
        1.0,
        0.98768836
      ],
      "min": [
        -0.98768836,
        -1.0,
        -0.98768836
      ]
    },
    {
      "bufferView": 2,
      "componentType": 5123,
      "count": 816,
      "type": "SCALAR",
      "max": [
        397.0
      ],
      "min": [
        0.0
      ]
    },
    {
      "bufferView": 3,
      "componentType": 5126,
      "count": 398,
      "type": "VEC2",
      "max": [
        0.14,
        0.05
      ],
      "min": [
        -0.14,
        -0.05
      ]
    },
    {
      "bufferView": 4,
      "componentType": 5126,
      "count": 120,
      "type": "VEC3",
      "max": [
        0.05,
        4.9,
        0.05
      ],
      "min": [
        -0.05,
        0.03,
        -0.05
      ]
    },
    {
      "bufferView": 5,
      "componentType": 5126,
      "count": 120,
      "type": "VEC3",
      "max": [
        0.98768836,
        1.0,
        0.98768836
      ],
      "min": [
        -0.98768836,
        -1.0,
        -0.98768836
      ]
    },
    {
      "bufferView": 6,
      "componentType": 5123,
      "count": 228,
      "type": "SCALAR",
      "max": [
        119.0
      ],
      "min": [
        0.0
      ]
    },
    {
      "bufferView": 7,
      "componentType": 5126,
      "count": 120,
      "type": "VEC2",
      "max": [
        4.9,
        0.05
      ],
      "min": [
        -4.9,
        -0.05
      ]
    },
    {
      "bufferView": 8,
      "componentType": 5126,
      "count": 760,
      "type": "VEC3",
      "max": [
        0.05,
        0.05,
        0.21
      ],
      "min": [
        -0.05,
        -0.21,
        -0.05
      ]
    },
    {
      "bufferView": 9,
      "componentType": 5126,
      "count": 760,
      "type": "VEC3",
      "max": [
        0.98768836,
        1.0,
        1.0
      ],
      "min": [
        -0.98768836,
        -1.0,
        -1.0
      ]
    },
    {
      "bufferView": 10,
      "componentType": 5123,
      "count": 1524,
      "type": "SCALAR",
      "max": [
        759.0
      ],
      "min": [
        0.0
      ]
    },
    {
      "bufferView": 11,
      "componentType": 5126,
      "count": 760,
      "type": "VEC2",
      "max": [
        0.21,
        0.21
      ],
      "min": [
        -0.21,
        -0.05
      ]
    },
    {
      "bufferView": 12,
      "componentType": 5126,
      "count": 400,
      "type": "VEC3",
      "max": [
        0.05,
        0.05,
        2.220446E-16
      ],
      "min": [
        -0.05,
        -0.05,
        -0.51
      ]
    },
    {
      "bufferView": 13,
      "componentType": 5126,
      "count": 400,
      "type": "VEC3",
      "max": [
        0.98768836,
        0.98768836,
        1.0
      ],
      "min": [
        -0.98768836,
        -0.98768836,
        -1.0
      ]
    },
    {
      "bufferView": 14,
      "componentType": 5123,
      "count": 816,
      "type": "SCALAR",
      "max": [
        399.0
      ],
      "min": [
        0.0
      ]
    },
    {
      "bufferView": 15,
      "componentType": 5126,
      "count": 400,
      "type": "VEC2",
      "max": [
        0.05,
        0.05
      ],
      "min": [
        -0.05,
        -0.51
      ]
    }
  ],
  "asset": {
    "generator": "hypar-gltf",
    "version": "2.0"
  },
  "buffers": [
    {
      "uri": "TerminalsBeyondConnectionNode_0.bin",
      "byteLength": 60464
    }
  ],
  "bufferViews": [
    {
      "buffer": 0,
      "byteLength": 4776
    },
    {
      "buffer": 0,
      "byteOffset": 4776,
      "byteLength": 4776
    },
    {
      "buffer": 0,
      "byteOffset": 9552,
      "byteLength": 1632
    },
    {
      "buffer": 0,
      "byteOffset": 11184,
      "byteLength": 3184
    },
    {
      "buffer": 0,
      "byteOffset": 14368,
      "byteLength": 1440
    },
    {
      "buffer": 0,
      "byteOffset": 15808,
      "byteLength": 1440
    },
    {
      "buffer": 0,
      "byteOffset": 17248,
      "byteLength": 456
    },
    {
      "buffer": 0,
      "byteOffset": 17704,
      "byteLength": 960
    },
    {
      "buffer": 0,
      "byteOffset": 18664,
      "byteLength": 9120
    },
    {
      "buffer": 0,
      "byteOffset": 27784,
      "byteLength": 9120
    },
    {
      "buffer": 0,
      "byteOffset": 36904,
      "byteLength": 3048
    },
    {
      "buffer": 0,
      "byteOffset": 39952,
      "byteLength": 6080
    },
    {
      "buffer": 0,
      "byteOffset": 46032,
      "byteLength": 4800
    },
    {
      "buffer": 0,
      "byteOffset": 50832,
      "byteLength": 4800
    },
    {
      "buffer": 0,
      "byteOffset": 55632,
      "byteLength": 1632
    },
    {
      "buffer": 0,
      "byteOffset": 57264,
      "byteLength": 3200
    }
  ],
  "materials": [
    {
      "name": "7298d643-9049-4a2b-960d-ae775b50fd80",
      "extensions": {
        "KHR_materials_specular": {
          "specularFactor": 0.0,
          "specularColorFactor": [
            1.0,
            1.0,
            1.0
          ]
        },
        "KHR_materials_ior": {
          "ior": 1000
        }
      },
      "pbrMetallicRoughness": {
        "baseColorFactor": [
          0.0,
          0.0,
          0.0,
          1.0
        ],
        "metallicFactor": 0.0
      }
    },
    {
      "name": "e7aa235b-49e9-42d0-b5fb-884a54e90d07",
      "extensions": {
        "KHR_materials_specular": {
          "specularFactor": 1.0,
          "specularColorFactor": [
            1.0,
            1.0,
            1.0
          ]
        },
        "KHR_materials_ior": {
          "ior": 1000
        }
      },
      "pbrMetallicRoughness": {
        "baseColorFactor": [
          0.0,
          0.13286832,
          0.13286832,
          0.4
        ],
        "metallicFactor": 0.0,
        "roughnessFactor": 0.0
      },
      "alphaMode": "BLEND"
    },
    {
      "name": "28c5c2b1-d65c-4c46-8689-d651f50f07e7",
      "extensions": {
        "KHR_materials_specular": {
          "specularFactor": 1.0,
          "specularColorFactor": [
            1.0,
            1.0,
            1.0
          ]
        },
        "KHR_materials_ior": {
          "ior": 1000
        }
      },
      "pbrMetallicRoughness": {
        "baseColorFactor": [
          1.0,
          1.0,
          1.0,
          0.2
        ],
        "metallicFactor": 0.0,
        "roughnessFactor": 0.0
      },
      "alphaMode": "BLEND"
    },
    {
      "name": "9babb829-9b96-4e73-97f4-9658d4d6c31c",
      "extensions": {
        "KHR_materials_specular": {
          "specularFactor": 0.0,
          "specularColorFactor": [
            1.0,
            1.0,
            1.0
          ]
        },
        "KHR_materials_ior": {
          "ior": 1000
        }
      },
      "pbrMetallicRoughness": {
        "metallicFactor": 0.0
      }
    }
  ],
  "meshes": [
    {
      "primitives": [
        {
          "attributes": {
            "POSITION": 0,
            "NORMAL": 1,
            "TEXCOORD_0": 3
          },
          "indices": 2,
          "material": 0
        }
      ],
      "name": "f28bb1cb-e017-444b-853d-d1b932910d38_mesh"
    },
    {
      "primitives": [
        {
          "attributes": {
            "POSITION": 4,
            "NORMAL": 5,
            "TEXCOORD_0": 7
          },
          "indices": 6,
          "material": 1
        }
      ],
      "name": "025ff7c3-a898-4f37-a739-a3dc075b5761_mesh"
    },
    {
      "primitives": [
        {
          "attributes": {
            "POSITION": 8,
            "NORMAL": 9,
            "TEXCOORD_0": 11
          },
          "indices": 10,
          "material": 0
        }
      ],
      "name": "64980da6-92a4-4db1-9046-f92b20a7b08c_mesh"
    },
    {
      "primitives": [
        {
          "attributes": {
            "POSITION": 12,
            "NORMAL": 13,
            "TEXCOORD_0": 15
          },
          "indices": 14,
          "material": 2
        }
      ],
      "name": "6f279650-605e-434d-acaa-550722c8144e_mesh"
    }
  ],
  "nodes": [
    {
      "children": [
        1,
        3,
        5,
        7
      ],
      "matrix": [
        1.0,
        0.0,
        0.0,
        0.0,
        0.0,
        6.123234E-17,
        -1.0,
        0.0,
        0.0,
        1.0,
        6.123234E-17,
        0.0,
        0.0,
        0.0,
        0.0,
        1.0
      ]
    },
    {
      "children": [
        2
      ],
      "extensions": {
        "HYPAR_info": {
          "id": "f28bb1cb-e017-444b-853d-d1b932910d38"
        }
      }
    },
    {
      "mesh": 0
    },
    {
      "children": [
        4
      ],
      "extensions": {
        "HYPAR_info": {
          "id": "025ff7c3-a898-4f37-a739-a3dc075b5761"
        }
      }
    },
    {
      "mesh": 1
    },
    {
      "children": [
        6
      ],
      "matrix": [
        1.0,
        0.0,
        0.0,
        0.0,
        0.0,
        1.0,
        0.0,
        0.0,
        0.0,
        0.0,
        1.0,
        0.0,
        0.0,
        5.0,
        0.0,
        1.0
      ],
      "extensions": {
        "HYPAR_info": {
          "id": "64980da6-92a4-4db1-9046-f92b20a7b08c"
        }
      }
    },
    {
      "mesh": 2
    },
    {
      "children": [
        8
      ],
      "matrix": [
        1.0,
        0.0,
        0.0,
        0.0,
        0.0,
        1.0,
        0.0,
        0.0,
        0.0,
        0.0,
        1.0,
        0.0,
        0.0,
        5.0,
        0.5,
        1.0
      ],
      "extensions": {
        "HYPAR_info": {
          "id": "6f279650-605e-434d-acaa-550722c8144e"
        }
      }
    },
    {
      "mesh": 3
    }
  ],
  "scene": 0,
  "scenes": [
    {
      "nodes": [
        0
      ]
    }
  ]
}