{
  "extensionsUsed": [
    "KHR_materials_specular",
    "KHR_materials_ior",
    "KHR_materials_unlit",
    "HYPAR_info"
  ],
  "accessors": [
    {
      "bufferView": 0,
      "componentType": 5126,
      "count": 120,
      "type": "VEC3",
      "max": [
        1.02,
        2.1,
        1.02
      ],
      "min": [
        0.98,
        0.1,
        0.98
      ]
    },
    {
      "bufferView": 1,
      "componentType": 5126,
      "count": 120,
      "type": "VEC3",
      "max": [
        0.98768836,
        1.0,
        0.98768836
      ],
      "min": [
        -0.98768836,
        -1.0,
        -0.98768836
      ]
    },
    {
      "bufferView": 2,
      "componentType": 5123,
      "count": 228,
      "type": "SCALAR",
      "max": [
        119.0
      ],
      "min": [
        0.0
      ]
    },
    {
      "bufferView": 3,
      "componentType": 5126,
      "count": 120,
      "type": "VEC2",
      "max": [
        2.1,
        1.4173423
      ],
      "min": [
        -2.1,
        -0.8343826
      ]
    },
    {
      "bufferView": 4,
      "componentType": 5126,
      "count": 120,
      "type": "VEC3",
      "max": [
        1.7657642,
        1.0777812,
        1.765767
      ],
      "min": [
        1.0413426,
        0.06364019,
        1.0413398
      ]
    },
    {
      "bufferView": 5,
      "componentType": 5126,
      "count": 120,
      "type": "VEC3",
      "max": [
        0.85855955,
        0.70710677,
        0.8553632
      ],
      "min": [
        -0.85855955,
        -0.70710677,
        -0.8553632
      ]
    },
    {
      "bufferView": 6,
      "componentType": 5123,
      "count": 228,
      "type": "SCALAR",
      "max": [
        119.0
      ],
      "min": [
        0.0
      ]
    },
    {
      "bufferView": 7,
      "componentType": 5126,
      "count": 120,
      "type": "VEC2",
      "max": [
        2.0554404,
        2.6616447
      ],
      "min": [
        -2.0554404,
        0.5635035
      ]
    },
    {
      "bufferView": 8,
      "componentType": 5126,
      "count": 997,
      "type": "VEC3",
      "max": [
        0.14509654,
        0.21,
        0.14510225
      ],
      "min": [
        -0.02,
        -0.17,
        -0.02
      ]
    },
    {
      "bufferView": 9,
      "componentType": 5126,
      "count": 997,
      "type": "VEC3",
      "max": [
        0.98768836,
        1.0,
        0.98768836
      ],
      "min": [
        -0.98768836,
        -1.0,
        -0.98768836
      ]
    },
    {
      "bufferView": 10,
      "componentType": 5123,
      "count": 2073,
      "type": "SCALAR",
      "max": [
        996.0
      ],
      "min": [
        0.0
      ]
    },
    {
      "bufferView": 11,
      "componentType": 5126,
      "count": 997,
      "type": "VEC2",
      "max": [
        0.22221261,
        0.24748743
      ],
      "min": [
        -0.22221261,
        -0.02
      ]
    },
    {
      "bufferView": 12,
      "componentType": 5126,
      "count": 24,
      "type": "VEC3",
      "max": [
        0.05,
        0.05,
        0.1
      ],
      "min": [
        -0.05,
        -0.05,
        0.0
      ]
    },
    {
      "bufferView": 13,
      "componentType": 5126,
      "count": 24,
      "type": "VEC3",
      "max": [
        1.0,
        1.0,
        1.0
      ],
      "min": [
        -1.0,
        -1.0,
        -1.0
      ]
    },
    {
      "bufferView": 14,
      "componentType": 5123,
      "count": 36,
      "type": "SCALAR",
      "max": [
        23.0
      ],
      "min": [
        0.0
      ]
    },
    {
      "bufferView": 15,
      "componentType": 5126,
      "count": 24,
      "type": "VEC2",
      "max": [
        0.05,
        0.1
      ],
      "min": [
        -0.05,
        -0.05
      ]
    }
  ],
  "asset": {
    "generator": "hypar-gltf",
    "version": "2.0"
  },
  "buffers": [
    {
      "uri": "wye_0.bin",
      "byteLength": 45484
    }
  ],
  "bufferViews": [
    {
      "buffer": 0,
      "byteLength": 1440
    },
    {
      "buffer": 0,
      "byteOffset": 1440,
      "byteLength": 1440
    },
    {
      "buffer": 0,
      "byteOffset": 2880,
      "byteLength": 456
    },
    {
      "buffer": 0,
      "byteOffset": 3336,
      "byteLength": 960
    },
    {
      "buffer": 0,
      "byteOffset": 4296,
      "byteLength": 1440
    },
    {
      "buffer": 0,
      "byteOffset": 5736,
      "byteLength": 1440
    },
    {
      "buffer": 0,
      "byteOffset": 7176,
      "byteLength": 456
    },
    {
      "buffer": 0,
      "byteOffset": 7632,
      "byteLength": 960
    },
    {
      "buffer": 0,
      "byteOffset": 8592,
      "byteLength": 11964
    },
    {
      "buffer": 0,
      "byteOffset": 20556,
      "byteLength": 11964
    },
    {
      "buffer": 0,
      "byteOffset": 32520,
      "byteLength": 4146
    },
    {
      "buffer": 0,
      "byteOffset": 36668,
      "byteLength": 7976
    },
    {
      "buffer": 0,
      "byteOffset": 44644,
      "byteLength": 288
    },
    {
      "buffer": 0,
      "byteOffset": 44932,
      "byteLength": 288
    },
    {
      "buffer": 0,
      "byteOffset": 45220,
      "byteLength": 72
    },
    {
      "buffer": 0,
      "byteOffset": 45292,
      "byteLength": 192
    }
  ],
  "materials": [
    {
      "name": "ac4653cf-2215-4377-887c-57383fd4bb4b",
      "extensions": {
        "KHR_materials_specular": {
          "specularFactor": 1.0,
          "specularColorFactor": [
            1.0,
            1.0,
            1.0
          ]
        },
        "KHR_materials_ior": {
          "ior": 1000
        }
      },
      "pbrMetallicRoughness": {
        "baseColorFactor": [
          0.0,
          0.13286832,
          0.13286832,
          0.4
        ],
        "metallicFactor": 0.0,
        "roughnessFactor": 0.0
      },
      "alphaMode": "BLEND"
    },
    {
      "name": "7298d643-9049-4a2b-960d-ae775b50fd80",
      "extensions": {
        "KHR_materials_specular": {
          "specularFactor": 0.0,
          "specularColorFactor": [
            1.0,
            1.0,
            1.0
          ]
        },
        "KHR_materials_ior": {
          "ior": 1000
        }
      },
      "pbrMetallicRoughness": {
        "baseColorFactor": [
          0.0,
          0.0,
          0.0,
          1.0
        ],
        "metallicFactor": 0.0
      }
    },
    {
      "name": "323c9495-d84e-4c57-b5af-a2e9fd1a8a19",
      "extensions": {
        "KHR_materials_specular": {
          "specularFactor": 0.0,
          "specularColorFactor": [
            1.0,
            1.0,
            1.0
          ]
        },
        "KHR_materials_ior": {
          "ior": 1000
        }
      },
      "pbrMetallicRoughness": {
        "baseColorFactor": [
          0.21404114,
          0.21404114,
          1.0,
          0.2
        ],
        "metallicFactor": 0.0
      },
      "alphaMode": "BLEND"
    }
  ],
  "meshes": [
    {
      "primitives": [
        {
          "attributes": {
            "NORMAL": 1,
            "POSITION": 0,
            "TEXCOORD_0": 3
          },
          "indices": 2,
          "material": 0
        }
      ],
      "name": "3297cca6-da7e-4921-ad36-34e44dd607c6_mesh"
    },
    {
      "primitives": [
        {
          "attributes": {
            "NORMAL": 5,
            "POSITION": 4,
            "TEXCOORD_0": 7
          },
          "indices": 6,
          "material": 0
        }
      ],
      "name": "57026334-2b05-4315-ad42-b6bce6cdb4ca_mesh"
    },
    {
      "primitives": [
        {
          "attributes": {
            "NORMAL": 9,
            "POSITION": 8,
            "TEXCOORD_0": 11
          },
          "indices": 10,
          "material": 1
        }
      ],
      "name": "a6881701-3859-4d0e-a92f-3485a85782d4_mesh"
    },
    {
      "primitives": [
        {
          "attributes": {
            "NORMAL": 13,
            "POSITION": 12,
            "TEXCOORD_0": 15
          },
          "indices": 14,
          "material": 2
        }
      ],
      "name": "da931a36-2ef1-48a7-80f4-ea96f23585e8_mesh"
    }
  ],
  "nodes": [
    {
      "children": [
        1,
        3,
        5,
        7
      ],
      "matrix": [
        1.0,
        0.0,
        0.0,
        0.0,
        0.0,
        6.123234E-17,
        -1.0,
        0.0,
        0.0,
        1.0,
        6.123234E-17,
        0.0,
        0.0,
        0.0,
        0.0,
        1.0
      ]
    },
    {
      "children": [
        2
      ],
      "extensions": {
        "HYPAR_info": {
          "id": "3297cca6-da7e-4921-ad36-34e44dd607c6"
        }
      }
    },
    {
      "mesh": 0
    },
    {
      "children": [
        4
      ],
      "extensions": {
        "HYPAR_info": {
          "id": "57026334-2b05-4315-ad42-b6bce6cdb4ca"
        }
      }
    },
    {
      "mesh": 1
    },
    {
      "children": [
        6
      ],
      "matrix": [
        1.0,
        0.0,
        0.0,
        0.0,
        0.0,
        1.0,
        0.0,
        0.0,
        0.0,
        0.0,
        1.0,
        0.0,
        1.0,
        0.0,
        1.0,
        1.0
      ],
      "extensions": {
        "HYPAR_info": {
          "id": "a6881701-3859-4d0e-a92f-3485a85782d4"
        }
      }
    },
    {
      "mesh": 2
    },
    {
      "children": [
        8
      ],
      "extensions": {
        "HYPAR_info": {
          "id": "da931a36-2ef1-48a7-80f4-ea96f23585e8"
        }
      }
    },
    {
      "mesh": 3
    }
  ],
  "scene": 0,
  "scenes": [
    {
      "nodes": [
        0
      ]
    }
  ]
}