<svg id="CLEANED_UP" height="50" data-name="CLEANED UP" xmlns="http://www.w3.org/2000/svg" viewBox="0 0 339.76 64.47"><defs><style>.cls-1{fill:#f15c6b;}.cls-2{fill:none;}</style></defs><title>Logo_Final_July10</title><path class="cls-1" d="M204.66,881.27V904h-2.55V881.27h-2.47V904h-2.48V881.27h-2.47V904h-2.54V881.27h-2.48V904H166.84V881.27h-2.48V904h-2.54V881.27h-2.48V904h-2.47V881.27H154.4V904h-2.55V881.27h-2.47v63.37h2.47V921.45h2.55v23.19h2.47V921.45h2.47v23.19h2.48V921.45h2.54v23.19h2.48V921.45h22.83v23.19h2.48V921.45h2.54v23.19h2.47V921.45h2.48v23.19h2.47V921.45h2.55v23.19h2.47V881.27Zm0,25.2V909h-2.55v-2.54Zm-47.79,5h2.47V914h-2.47ZM154.4,914h-2.55v-2.47h2.55Zm7.42-2.47h2.54V914h-2.54Zm5,0h22.83V914H166.84Zm25.31,0h2.54V914h-2.54Zm5,0h2.48V914h-2.48Zm5,0h2.55V914h-2.55Zm-2.47-5V909h-2.48v-2.54Zm-4.95,0V909h-2.54v-2.54Zm-5,0V909H166.84v-2.54Zm-25.31,0V909h-2.54v-2.54Zm-5,0V909h-2.47v-2.54Zm-4.94,0V909h-2.55v-2.54ZM151.85,919v-2.55h2.55V919Zm5,0v-2.55h2.47V919Zm4.95,0v-2.55h2.54V919Zm5,0v-2.55h22.83V919Zm25.31,0v-2.55h2.54V919Zm5,0v-2.55h2.48V919Zm5,0v-2.55h2.55V919Z" transform="translate(-149.38 -880.21)"/><path class="cls-1" d="M253.34,933.4l2.71-5.22h0l24.55-46.94h-2.79l-16.38,31.32-1.52-2.6,15-28.72h-2.79l-13.72,26.17L257,904.94l12.37-23.69h-2.79L255.51,902.4l-1.5-2.57,9.68-18.58H260.9l-8.38,16-9.34-16h-2.86l10.83,18.62-1.38,2.65-12.4-21.27h-2.86l13.89,23.89-1.34,2.54-15.41-26.43h-2.86l16.89,29.07-1.33,2.55-18.5-31.62H223l20,34.29-15.26,29.14h14.08l8.58-16.41,1.52,2.6-7.18,13.73-2.92.08h5.67l5.9-11.28v0m-1.81-18.07,1.33-2.53,1.43,2.47L253,917.82Zm0,5.12L250.27,923l-1.43-2.45,1.31-2.52Zm4.21-2.61,1.52,2.6L256,923l-1.51-2.59Zm4.28-2.68-1.38,2.64-1.52-2.6,1.39-2.64Zm-3-5.17-1.39,2.65-1.44-2.47,1.38-2.65Zm-4.42-7.58,1.49,2.57-1.38,2.65-1.49-2.56Zm-2.75,5.29,1.49,2.55-1.33,2.53-1.48-2.54Zm-2.71,5.19,1.48,2.55L247.35,918l-1.48-2.54Zm-16.5,31.68,13.78-26.44,1.47,2.53-12.5,23.91Zm8.25,0h-2.67l11.16-21.36,1.42,2.45Zm12.83-19,1.31-2.5,1.51,2.6-1.3,2.49Z" transform="translate(-149.38 -880.21)"/><polyline class="cls-2" points="243.5 37.61 236.22 18.01 234.86 21.66 240.78 37.61"/><polygon class="cls-2" points="240.93 45.1 226.15 45.1 225.23 47.58 241.85 47.58 240.93 45.1"/><polygon class="cls-2" points="228.93 37.61 238.15 37.61 233.54 25.21 228.93 37.61"/><polygon class="cls-2" points="224.31 50.05 223.36 52.59 243.71 52.59 242.77 50.05 224.31 50.05"/><polyline class="cls-2" points="223.58 37.61 230.86 18.01 232.22 21.66 226.29 37.61"/><polygon class="cls-2" points="227.06 42.63 240.01 42.63 239.06 40.09 228.01 40.09 227.06 42.63"/><polyline class="cls-2" points="247.27 55.07 250.38 63.44 253.1 63.44 249.99 55.07"/><polyline class="cls-2" points="247.74 63.44 244.63 55.07 222.44 55.07 219.33 63.44"/><polyline class="cls-2" points="219.8 55.07 216.69 63.44 213.98 63.44 217.09 55.07"/><polyline class="cls-2" points="206.46 55.07 203.35 63.44 206.06 63.44 209.17 55.07"/><polyline class="cls-2" points="211.81 55.07 208.7 63.44 211.34 63.44 214.45 55.07"/><polyline class="cls-2" points="252.63 55.07 255.74 63.44 258.37 63.44 255.26 55.07"/><polyline class="cls-2" points="257.9 55.07 261.01 63.44 263.73 63.44 260.62 55.07"/><polyline class="cls-2" points="215.66 37.61 226.9 7.36 225.55 3.71 212.95 37.61"/><polyline class="cls-2" points="220.94 37.61 229.54 14.46 228.22 10.91 218.3 37.61"/><polygon class="cls-2" points="232.22 7.26 230.9 3.71 229.54 7.36 230.86 10.91 232.22 7.26"/><polygon class="cls-2" points="237.53 7.36 236.18 3.71 234.86 7.26 236.22 10.91 237.53 7.36"/><polygon class="cls-2" points="233.54 18.11 234.9 14.46 233.54 10.81 232.18 14.46 233.54 18.11"/><polyline class="cls-2" points="248.78 37.61 238.85 10.91 237.53 14.46 246.14 37.61"/><polyline class="cls-2" points="254.13 37.61 241.53 3.71 240.17 7.36 251.41 37.61"/><path class="cls-1" d="M389.39,922.84H376.45l.94-2.55h11.06Zm-1.86-5h-9.22l4.61-12.4Zm18.62,0h0l-13.92-37.45h-2.64L388.23,884l-1.35-3.65h-2.64l-1.32,3.55-1.32-3.55H379L377.6,884l-1.35-3.65h-2.64l-13.92,37.45-6.49,17.46-3.11,8.37h2.64l3.11-8.37,6.49-17.46,12.6-33.9,1.35,3.65L365,917.82l-6.49,17.46-3.11,8.37h2.64l3.11-8.37,6.49-17.46,9.92-26.7,1.32,3.55-8.6,23.15-6.49,17.46-3.11,8.37h2.64l3.11-8.37L373,917.82l7.28-19.6,1.36,3.65-5.93,16-9.6,25.83h2.64l3.11-8.37H394l3.11,8.37h2.64l-3.11-8.37-6.49-17.46-5.92-16,1.36-3.65,7.28,19.6,6.49,17.46,3.11,8.37h2.64L402,935.28l-6.49-17.46-8.61-23.15,1.32-3.55,9.93,26.7,6.48,17.46,3.11,8.37h2.64l-3.11-8.37-6.49-17.46-11.24-30.25,1.36-3.65,12.6,33.9L410,935.28l3.11,8.37h2.64l-2.42-6.52h0l-7.17-19.31m-30.62,7.49h14.78l.92,2.47H374.61Zm10-41.39,1.35,3.65-1.31,3.55-1.36-3.65Zm-2.64,7.1,1.36,3.65-1.36,3.65-1.36-3.65Zm-2.64-7.1,1.32,3.55-1.36,3.65-1.32-3.55Zm-7.54,48.88.95-2.54h18.46l.94,2.54Z" transform="translate(-149.38 -880.21)"/><rect class="cls-1" x="299.86" y="17.56" width="0.02" height="9.63"/><polygon class="cls-1" points="299.87 39.72 299.86 39.72 299.86 42.27 299.88 42.27 299.88 39.72 299.87 39.72"/><polygon class="cls-1" points="299.86 29.67 299.86 32.29 299.87 32.29 299.87 32.26 299.88 32.26 299.88 29.67 299.86 29.67"/><rect class="cls-1" x="299.86" y="34.77" width="0.02" height="2.52"/><rect class="cls-1" x="299.86" y="12.54" width="0.02" height="2.55"/><rect class="cls-1" x="299.86" y="7.5" width="0.02" height="2.56"/><polygon class="cls-1" points="299.87 2.44 299.86 2.44 299.86 5.03 299.87 5.03 299.87 5.01 299.88 5.01 299.88 2.44 299.87 2.44"/><path class="cls-1" d="M486.22,943.62h2.92l-14.35-22.8c6.61-4.88,8.83-13,8.67-18.23-.37-12.16-9.48-22.36-22.18-22.37H431.84v.06h-.06v63.37h2.47v0h0V925h2.54v18.68h2.48v0h0V925h2.47v18.68h2.47v0h0V925h2.54v18.68h2.47v0h0V925l5.7,0h1.86l11.71,18.61h2.92L459.72,925h2c.33,0,.64,0,1-.06l11.74,18.66h2.92l-11.93-19a21.81,21.81,0,0,0,2.56-.56l12.3,19.53h2.92L470.4,923.27a20.56,20.56,0,0,0,2.31-1.1Zm-49.43-21.14h-2.54v-2.55h2.54Zm0-5h-2.54V915h2.54Zm0-5h-2.54v-2.62h2.54Zm0-5.1h-2.54v-9.63h2.54Zm0-12.1h-2.54v-2.56h2.54Zm0-5h-2.54v-2.56h2.54Zm0-5h-2.54v-2.57h2.54Zm4.95,37.25h-2.47v-2.55h2.47Zm0-5h-2.47V915h2.47Zm0-5h-2.47v-2.62h2.47Zm0-5.1h-2.47v-9.63h2.47Zm0-12.1h-2.47v-2.56h2.47Zm0-5h-2.47v-2.56h2.47Zm0-5h-2.47v-2.57h2.47Zm7.5,2.48h10.64v0C475.82,888,476,902.52,476,902.52c-.39,14.21-14.88,15-16,15H449.24V915h0v-.15l5.68.11h6.93v-.05a12.5,12.5,0,0,0,11.51-12.51,11.77,11.77,0,0,0-11.9-12.07H449.26v0h0Zm0,5h12.17c9.78.72,9.49,9.65,9.49,9.65-.83,9.71-9,10.09-9.76,10.1h-11.9v-2.59h10.67c.85,0,8.32.3,8.41-7.26,0,0,.73-7.34-8.3-7.27H449.26v0h0Zm0,14.66v-9.63h0v0h10.59a8.54,8.54,0,0,1,3.51.58,4.79,4.79,0,0,1,2.48,4.29,5,5,0,0,1-2.48,4.3s-.64.54-3.47.52H449.26v0Zm-2.48,15.08h-2.54v-2.55h2.54Zm0-5h-2.54V915h2.54Zm0-5h-2.54v-2.62h2.54Zm0-5.1h-2.54v-9.63h2.54Zm0-12.1h-2.54v-2.56h2.54Zm0-5h-2.54v-2.56h2.54Zm0-5h-2.54v-2.58h2.54Zm15.05,37.28H449.26v0h0V920h5.7l5.05,0v0c11.59.18,18.51-8,18.4-17.39-.14-11.27-8.38-17.39-18.72-17.39v0H449.24v-2.57h11.83v0s18.34.08,19.88,19.91C481,902.58,481.39,920.47,461.81,922.51Z" transform="translate(-149.38 -880.21)"/><rect class="cls-1" x="161.19" y="17.56" width="0.02" height="9.63"/><polygon class="cls-1" points="161.2 39.72 161.19 39.72 161.19 42.27 161.21 42.27 161.21 39.72 161.2 39.72"/><polygon class="cls-1" points="161.19 29.67 161.19 32.29 161.2 32.29 161.2 32.26 161.21 32.26 161.21 29.67 161.19 29.67"/><rect class="cls-1" x="161.19" y="34.77" width="0.02" height="2.52"/><rect class="cls-1" x="161.19" y="12.54" width="0.02" height="2.55"/><rect class="cls-1" x="161.19" y="7.5" width="0.02" height="2.56"/><polygon class="cls-1" points="161.2 2.44 161.19 2.44 161.19 5.03 161.2 5.03 161.2 5.01 161.21 5.01 161.21 2.44 161.2 2.44"/><path class="cls-1" d="M344.79,902.59c-.36-12.16-9.48-22.36-22.17-22.37H293.17v.06h-.06v63.37h2.47v0h0V925h2.54v18.68h2.47v0h0V925h2.46v18.68h2.48v0h0V925h2.54v18.68h2.48v0h0V925l5.71,0h7s7.26-.12,12.84-4.19C342.74,915.94,345,907.87,344.79,902.59Zm-46.66,19.89h-2.54v-2.55h2.54Zm0-5h-2.54V915h2.54Zm0-5h-2.54v-2.62h2.54Zm0-5.1h-2.54v-9.63h2.54Zm0-14.66v2.56h-2.54v-2.56m2.54-2.47h-2.54v-2.56h2.54Zm0-5h-2.54v-2.57h2.54Zm4.94,37.25h-2.46v-2.55h2.46Zm0-5h-2.46V915h2.46Zm0-5h-2.46v-2.62h2.46Zm0-5.1h-2.46v-9.63h2.46Zm0-12.1h-2.46v-2.56h2.46Zm0-5h-2.46v-2.56h2.46Zm0-5h-2.46v-2.57h2.46Zm7.5,2.48h10.64v0c16,.34,16.08,14.85,16.08,14.85-.38,14.21-14.88,15-16,15H310.57V915h0v-.15l5.69.11h6.92v-.05a12.49,12.49,0,0,0,11.51-12.51,11.77,11.77,0,0,0-11.89-12.07H310.59v0h0Zm0,5h12.17c9.78.72,9.5,9.65,9.5,9.65-.83,9.71-9,10.09-9.76,10.1H310.57v-2.59h10.67c.85,0,8.33.3,8.41-7.26,0,0,.73-7.34-8.3-7.27H310.59v0h0Zm0,14.66v-9.63h0v0h10.6a8.48,8.48,0,0,1,3.5.58,4.77,4.77,0,0,1,2.48,4.29,5,5,0,0,1-2.48,4.3s-.64.54-3.46.52H310.59v0Zm-2.48,15.08h-2.54v-2.55h2.54Zm0-5h-2.54V915h2.54Zm0-5h-2.54v-2.62h2.54Zm0-5.1h-2.54v-9.63h2.54Zm0-12.1h-2.54v-2.56h2.54Zm0-5h-2.54v-2.56h2.54Zm0-5h-2.54v-2.58h2.54Zm15.05,37.28H310.59v0h0V920h5.71l5,0v0c11.59.18,18.51-8,18.4-17.39-.13-11.27-8.37-17.39-18.72-17.39v0H310.57v-2.57h11.84v0s18.33.08,19.87,19.91C342.28,902.58,342.72,920.47,323.14,922.51Z" transform="translate(-149.38 -880.21)"/></svg>
